<svg width="1808" height="479" viewBox="0 0 1808 479" fill="none" xmlns="http://www.w3.org/2000/svg"><path d="M216.52 155.497l-.269.003H42.013C19.085 155.5.5 136.938.5 114.041c0-19.263 13.156-35.46 30.985-40.114l.478-.124-.119-.48a58.74 58.74 0 01-1.72-14.15C30.124 26.768 56.426.5 88.873.5 112.75.5 133.3 14.726 142.49 35.155l.22.49.473-.255c6.919-3.727 14.837-5.842 23.251-5.842 24.924 0 45.506 18.564 48.64 42.602l.057.438.443-.003.223-.002h.191c22.927 0 41.512 18.562 41.512 41.458 0 22.719-18.298 41.171-40.98 41.456zm1565.75-36.999l-.16.002h-108.06c-14.11 0-25.55-11.341-25.55-25.32 0-11.763 8.1-21.656 19.07-24.5l.48-.124-.12-.481a35.834 35.834 0 01-1.06-8.661c0-19.83 16.22-35.914 36.24-35.914 14.74 0 27.42 8.71 33.08 21.214l.22.486.47-.251a30.357 30.357 0 0114.34-3.573c15.36 0 28.04 11.355 29.97 26.05l.06.437.44-.003.14-.001h.12s0 0 0 0c14.11 0 25.55 11.34 25.55 25.32 0 13.872-11.26 25.145-25.23 25.319zm-1211.996 293l-.166.002H462.054c-14.117 0-25.554-11.341-25.554-25.321 0-11.762 8.095-21.655 19.073-24.499l.48-.124-.121-.481a35.68 35.68 0 01-1.06-8.661c0-19.831 16.222-35.914 36.243-35.914 14.732 0 27.41 8.71 33.078 21.214l.22.486.471-.251a30.315 30.315 0 0114.331-3.573c15.363 0 28.045 11.354 29.976 26.049l.058.438.442-.003.137-.001h.118s0 0 0 0c14.118 0 25.554 11.341 25.554 25.32 0 13.872-11.26 25.145-25.226 25.319zM1590.1 478.499l-.08.001h-49.97c-6.39 0-11.55-5.083-11.55-11.334 0-5.26 3.65-9.692 8.62-10.967l.48-.124-.12-.482c-.32-1.25-.48-2.557-.48-3.903 0-8.933 7.37-16.19 16.49-16.19 6.71 0 12.48 3.93 15.06 9.566l.22.482.46-.248a13.879 13.879 0 016.51-1.607c6.97 0 12.72 5.107 13.59 11.704l.06.438.44-.003.07-.001h.05s0 0 0 0c6.39 0 11.55 5.083 11.55 11.335 0 6.202-5.08 11.255-11.4 11.333z" stroke="#fff" stroke-opacity=".1"/></svg>