<svg width="101" height="62" viewBox="0 0 101 62" fill="none" xmlns="http://www.w3.org/2000/svg"><path d="M84.758 61.499l-.104.001H16.447C7.647 61.5.5 54.264.5 45.324c0-7.52 5.058-13.837 11.904-15.652l.474-.125-.116-.477a23.38 23.38 0 01-.665-5.553C12.097 10.8 22.264.5 34.791.5c9.22 0 17.16 5.576 20.711 13.593l.22.497.477-.26a18.602 18.602 0 018.956-2.285c9.596 0 17.53 7.258 18.739 16.668l.056.44.444-.004h.159s0 0 0 0c8.801 0 15.947 7.235 15.947 16.175 0 8.871-7.036 16.064-15.742 16.175z" stroke="#fff" stroke-opacity=".1"/></svg>