<svg width="236" height="236" viewBox="0 0 236 236" fill="none" xmlns="http://www.w3.org/2000/svg"><path d="M235.41 148.31H1V1h234.41V0H0v149.31h235.41v-1zM60.82 230.38a6.921 6.921 0 016.91-6.92h22.75v-14.83h73.149v14.83h22.75a6.903 6.903 0 016.519 4.437 6.896 6.896 0 01-1.899 7.653h1.4a7.817 7.817 0 002-5.17 7.927 7.927 0 00-7.92-7.92h-21.85v-14.83h-75.15v14.83H67.73a7.907 7.907 0 00-7.225 4.608 7.9 7.9 0 001.225 8.482h1.41a6.845 6.845 0 01-2.32-5.17z" fill="#3F3F3F"/><path d="M145.419 37.91a7.999 7.999 0 00-10.62 3.54l-29.66 59.32a7.92 7.92 0 0014.16 7.08l29.7-59.32a7.908 7.908 0 00-3.55-10.62h-.03zm2.65 10.17l-29.66 59.33a6.933 6.933 0 11-12.41-6.19l29.7-59.32a6.914 6.914 0 0112.37 6.18zm16.241 59.45c1.43 3.22 4.77 5.08 9 5.08h.77a.94.94 0 00.64-.28l37.68-37.68-35.26-35.25a7.937 7.937 0 00-8.81-1.64c-3.41 1.51-5.3 5.17-5.06 9.79.014.24.113.467.28.64L190 74.65l-24 24.07a8.002 8.002 0 00-1.69 8.81zm27.12-32.88L164.27 47.5c-.22-4.19 1.45-7.49 4.47-8.83a6.95 6.95 0 017.7 1.43L211 74.65l-36.94 36.94c-4.18.2-7.48-1.45-8.82-4.46a7.011 7.011 0 01-.466-4.074 7.009 7.009 0 011.896-3.636l24.76-24.77zM89.8 41.77c-1.52-3.4-5.17-5.3-9.8-5.06a1 1 0 00-.63.29L41.71 74.65l37.66 37.66c.168.17.393.27.63.28h.77c4.26 0 7.6-1.86 9-5.08a8 8 0 00-1.64-8.81L64.09 74.65l24.07-24.06a8 8 0 001.64-8.82zM62.68 74.65l24.77 24.78a7 7 0 011.43 7.7c-1.34 3-4.63 4.69-8.81 4.47L43.12 74.65l36.93-36.94c4.18-.2 7.49 1.46 8.83 4.47a7 7 0 01-1.43 7.7L62.68 74.65zM7.92 193.8h227.49v-1H7.92a6.916 6.916 0 01-6.393-4.272A6.916 6.916 0 011 185.88v-21.74h234.41v-1H0v22.74a7.927 7.927 0 007.92 7.92z" fill="#3F3F3F"/></svg>