<svg width="234" height="234" viewBox="0 0 234 234" fill="none" xmlns="http://www.w3.org/2000/svg"><path d="M81.26 219.18H59.44l-.11.07c-5.24 3-6.19 7.51-5.33 10.73a8.605 8.605 0 002 3.64h1.46a7.58 7.58 0 01-2.49-3.89c-1-3.68.79-7.24 4.74-9.55H82.1l8.29-45.62H1v-23.38h232.9v-1H0v25.38h89.2l-7.94 43.62zm94.27-182.62h-25.35v9.12h25.35v-9.12zm-1 8.12h-23.35v-7.12h23.35v7.12z" fill="#3F3F3F"/><path d="M220.18 126.83V16.24H138v110.59h82.18zM139 17.24h80.18v108.59H139V17.24zm42.21 216.38c1.76-3.35 2-6.74.6-9.61a8.672 8.672 0 00-7.74-4.83h-18.92l-7.93-43.62h86.68v-1h-87.88l8.22 45.24.08.41h19.75a7.675 7.675 0 016.85 4.27c1.32 2.7 1 6-.87 9.17l1.16-.03zm-75.681-75.32v9.11h25.37v-9.11h-25.37zm24.37 8.11h-23.37v-7.11h23.37v7.11z" fill="#3F3F3F"/><path d="M233.9 142.06H1V1h232.9V0H0v143.06h233.9v-1z" fill="#3F3F3F"/><path d="M61.38 36.56A44.859 44.859 0 0022.9 58.1c-8.55 13.92-8.87 30.92-.88 46.64a37.407 37.407 0 0016.3 16.32 50.993 50.993 0 0023.13 5.77 45.13 45.13 0 0045.081-45.15v-.5h-44.63V36.56h-.52zm44.151 45.65a43.886 43.886 0 01-21.09 37.15c-13.62 8.36-30.26 8.67-45.67.84a36.479 36.479 0 01-15.87-15.91c-7.82-15.41-7.52-32 .84-45.67A43.909 43.909 0 0160.9 37.56v44.62l44.63.03zm44.649 12.15H208v-9.12h-57.82v9.12zm1-8.12H207v7.12h-55.82v-7.12z" fill="#3F3F3F"/><path d="M122.769 65.44a45.2 45.2 0 00-45.15-45.14h-.5v45.64h45.65v-.5zm-44.65-.5V21.3a44.192 44.192 0 0143.64 43.64h-43.64zm72.061-3.06H208v-9.11h-57.82v9.11zm1-8.11H207v7.11h-55.82v-7.11zm-1 56.79h25.35v-9.12h-25.35v9.12zm1-8.12h23.35v7.12h-23.35v-7.12zM175.53 69h-25.35v9.12h25.35V69zm-1 8.12h-23.35V70h23.35v7.12z" fill="#3F3F3F"/></svg>