<svg width="170" height="236" viewBox="0 0 170 236" fill="none" xmlns="http://www.w3.org/2000/svg"><path d="M124.6 68.05a2.75 2.75 0 01-.71 1.63 2.86 2.86 0 01-1.54.9 48.007 48.007 0 00-16.35 6.9 2.87 2.87 0 01-3.42-.17L93.68 70l-9.74 9.7 7.36 8.88a2.861 2.861 0 01.21 3.42 49.381 49.381 0 00-6.91 16.421 2.834 2.834 0 01-2.49 2.24l-11.45 1.12v13.84l11.45 1.11a2.695 2.695 0 011.59.71c.447.405.75.946.86 1.54a47.928 47.928 0 006.9 16.37 2.872 2.872 0 01-.17 3.42l-7.36 8.88 9.75 9.74 8.88-7.35a2.846 2.846 0 011.66-.65 2.885 2.885 0 011.72.45 49.688 49.688 0 0016.41 6.93 2.856 2.856 0 011.54.9c.407.452.656 1.024.71 1.63l1.12 11.53h13.84l1.11-11.53a2.867 2.867 0 012.25-2.53 47.932 47.932 0 0016.37-6.9 2.995 2.995 0 011.74-.48 2.875 2.875 0 011.68.66l7 5.81v-1.34l-6.37-5.27a3.995 3.995 0 00-2.29-.9 3.926 3.926 0 00-2.37.66 47.201 47.201 0 01-16 6.75 3.899 3.899 0 00-3.07 3.44l-1 10.59h-12l-1-10.59a3.922 3.922 0 00-.971-2.221 3.92 3.92 0 00-2.089-1.229 48.177 48.177 0 01-16.06-6.78 3.902 3.902 0 00-4.62.28l-8.13 6.75-8.4-8.41 6.74-8.14a3.912 3.912 0 00.25-4.67 46.834 46.834 0 01-6.75-16 3.843 3.843 0 00-3.37-3.07l-10.51-1v-12.03l10.51-1a4.004 4.004 0 002.21-1 3.81 3.81 0 001.19-2.09 48.465 48.465 0 016.77-16.06 3.93 3.93 0 00.62-2.36 3.88 3.88 0 00-.9-2.26l-6.75-8.14 8.41-8.41 8.15 6.74a3.9 3.9 0 004.66.25 46.804 46.804 0 0116-6.75 3.921 3.921 0 003.07-3.45l1-10.59h12l1 10.59a3.899 3.899 0 001 2.22 3.821 3.821 0 002.1 1.22 48.3 48.3 0 0116.06 6.79 3.94 3.94 0 004.62-.28l6.36-5.26v-1.35l-7 5.81c-.473.39-1.058.62-1.67.66a2.89 2.89 0 01-1.72-.45 49.58 49.58 0 00-16.41-6.93 2.872 2.872 0 01-2.25-2.53l-1.11-11.52h-13.9l-1.12 11.52z" fill="#3F3F3F"/><path d="M139.31 85.08a34.227 34.227 0 00-36.426 16.717 34.218 34.218 0 00-2.718 27.591 34.22 34.22 0 0018.606 20.553 34.226 34.226 0 0036.871-5.904 34.23 34.23 0 00-16.333-58.956zm24 46.281a33.209 33.209 0 111.89-19.18 33.094 33.094 0 01-1.9 19.18h.01z" fill="#3F3F3F"/><path d="M150.741 106.261a3.929 3.929 0 00-1.27-.87 3.83 3.83 0 00-1.5-.31 3.996 3.996 0 00-1.5.29c-.48.189-.916.475-1.28.84l-17 16.64-8.25-8a3.923 3.923 0 00-2.778-1.112 3.924 3.924 0 00-2.752 1.172 3.859 3.859 0 00-.83 1.28 3.986 3.986 0 00-.28 1.5c.006.516.114 1.026.32 1.5.2.47.493.895.86 1.25l11 10.72a3.91 3.91 0 005.46 0l19.77-19.31a3.91 3.91 0 00.88-1.25 4.08 4.08 0 00.32-1.5 3.926 3.926 0 00-1.11-2.79l-.06-.05zm-.17 3.87c-.149.35-.366.666-.64.93l-19.78 19.31a3 3 0 01-4 0l-11-10.72a2.678 2.678 0 01-.64-.92 2.777 2.777 0 01-.23-1.1 2.76 2.76 0 01.2-1.1 2.917 2.917 0 012.64-1.81 2.997 2.997 0 012 .82l9 8.76 17.8-17.3a2.79 2.79 0 01.94-.62 2.642 2.642 0 011.1-.21 2.862 2.862 0 012.85 2.91c-.007.363-.089.72-.24 1.05z" fill="#3F3F3F"/><path d="M132.642 77.64a40.999 40.999 0 00-36.135 60.327 41.005 41.005 0 0034.134 21.624 41.005 41.005 0 0039.101-23.44v-2.63a40.645 40.645 0 01-3.86 7.35 39.899 39.899 0 01-66.954-1.006 39.898 39.898 0 0128.25-60.71 39.9 39.9 0 0142.564 24.606v-2.61a41.254 41.254 0 00-8.11-11.48 40.787 40.787 0 00-28.99-12.03zM64.721 225.441a5.611 5.611 0 10-4.67-8.72 5.613 5.613 0 00-.94 3.12 5.598 5.598 0 005.61 5.6zm0-10.17a4.571 4.571 0 11-4.57 4.57 4.58 4.58 0 014.57-4.57z" fill="#3F3F3F"/><path d="M60.001 231.281a12.29 12.29 0 007.16.71 12.38 12.38 0 009.73-9.74 12.39 12.39 0 00-12.15-14.8 12.39 12.39 0 00-4.74 23.83zm-6.61-11.44a11.366 11.366 0 019.699-11.254 11.369 11.369 0 11-7.789 17.554 11.28 11.28 0 01-1.93-6.3h.02zm3.031-111.3a3.87 3.87 0 00-2.77-1.14h-4.65a3.911 3.911 0 000 7.82h4.68a3.925 3.925 0 003.607-2.419 3.919 3.919 0 00-.837-4.261h-.03zm-.74 4.8a2.855 2.855 0 01-2 .84h-4.68a2.86 2.86 0 01-2-4.9 2.822 2.822 0 012-.85h4.68a2.811 2.811 0 012 .85 2.85 2.85 0 010 4.06zm14.929 50.58h-15.83a3.888 3.888 0 00-2.78 1.15 3.898 3.898 0 000 5.53 3.882 3.882 0 002.76 1.14h15.85a3.893 3.893 0 002.77-1.14 4 4 0 001.14-2.77 3.91 3.91 0 00-3.91-3.91zm2 6a2.855 2.855 0 01-2 .84h-15.83a2.885 2.885 0 01-2.624-1.794 2.879 2.879 0 01.624-3.116 2.867 2.867 0 012-.84h15.83c.751.005 1.47.307 2 .84a2.888 2.888 0 010 4.07zm-32.991-6h-26.1a3.894 3.894 0 00-2.77 1.15 3.918 3.918 0 000 5.53 3.891 3.891 0 002.77 1.14h26.1a3.893 3.893 0 002.77-1.14 3.942 3.942 0 001.14-2.77 3.91 3.91 0 00-3.91-3.91zm2 6a2.855 2.855 0 01-2 .84h-26.1a2.884 2.884 0 01-2.624-1.794 2.879 2.879 0 01.625-3.116 2.847 2.847 0 012-.84h26.1c.751.005 1.47.307 2 .84a2.86 2.86 0 010 4.07zm-28.099-26.44h3.48a3.926 3.926 0 002.77-1.14 3.92 3.92 0 00-2.77-6.68h-3.48a3.911 3.911 0 000 7.82zm-2-5.94a2.887 2.887 0 012-.84h3.48a2.888 2.888 0 012.88 2.87 2.891 2.891 0 01-2.88 2.87h-3.48a2.87 2.87 0 01-2-4.9z" fill="#3F3F3F"/><path d="M5.64 231.501a19.425 19.425 0 006 4.14h3.16a16.868 16.868 0 01-2.45-.81A18.49 18.49 0 011 217.581v-14.18h127.881v14.18a18.76 18.76 0 01-3.986 11.444 18.758 18.758 0 01-10.154 6.616h3.26a19.746 19.746 0 0012-18.06v-15.22h-130v15.21a19.571 19.571 0 005.64 13.93zm124.281-44.97h-6.82a2.854 2.854 0 01-2.85-2.59l-1.17-12.08-.35-.1a54.931 54.931 0 01-13.79-5.82l-.31-.19-9.3 7.7a3.002 3.002 0 01-2 .66 2.856 2.856 0 01-1.89-.84L78 159.831a2.893 2.893 0 01-.17-3.87l7.69-9.27-.18-.32a54.078 54.078 0 01-5.79-13.81l-.1-.35-12-1.16a2.844 2.844 0 01-1.82-.94 2.802 2.802 0 01-.71-1.92v-19.07a2.818 2.818 0 01.71-1.92 2.756 2.756 0 011.81-.93l12-1.17.1-.34a55.2 55.2 0 015.82-13.76l.18-.31-7.7-9.3a2.86 2.86 0 01.16-3.9L91.46 64a3 3 0 011.9-.84 2.87 2.87 0 012 .66l9.28 7.69.31-.19a54.257 54.257 0 0113.81-5.81l.35-.1 1.17-12.07a2.858 2.858 0 012.85-2.6h6.82V33.92h-8.68a2.899 2.899 0 01-2-.85 2.847 2.847 0 01-.84-2 2.867 2.867 0 012.87-2.87h8.68v-8.46A19.878 19.878 0 00109.941 0h-90.44A19.55 19.55 0 000 19.74v8.43h92.42a2.89 2.89 0 012 .84 2.93 2.93 0 01.84 2 2.89 2.89 0 01-2.87 2.88H0v162.7h129.92v-10.06zm-1 9.05H1.001V35.001h91.42a3.91 3.91 0 100-7.82H1v-7.4A18.51 18.51 0 0119.5 1h90.44a18.849 18.849 0 0118.94 18.7v7.39h-7.64a3.91 3.91 0 00-2.76 6.68 3.872 3.872 0 002.76 1.23h7.64v14.74h-5.78a3.87 3.87 0 00-2.62 1 3.941 3.941 0 00-1.27 2.52l-1.09 11.36a55.282 55.282 0 00-13.41 5.64L96 63.06a3.93 3.93 0 00-2.68-.89 3.88 3.88 0 00-2.58 1.14L77.29 76.75A3.92 3.92 0 0077 82l7.24 8.74a56.177 56.177 0 00-5.66 13.39l-11.29 1.1a3.794 3.794 0 00-2.49 1.27 3.85 3.85 0 00-1 2.62v19a3.86 3.86 0 003.46 3.91l11.33 1.1a55.185 55.185 0 005.62 13.41l-7.23 8.71a3.899 3.899 0 00.24 5.26L90.73 174a3.92 3.92 0 005.26.25l8.74-7.24a56.2 56.2 0 0013.39 5.66l1.09 11.33a4.003 4.003 0 001.27 2.52 3.903 3.903 0 002.62 1h5.78l.04 8.06z" fill="#3F3F3F"/><path d="M53.652 135.661h-21.65a3.911 3.911 0 000 7.82h21.65a3.926 3.926 0 002.77-1.14 3.92 3.92 0 00-2.77-6.68zm2 5.94a2.813 2.813 0 01-2 .84h-21.65a2.805 2.805 0 01-2-.84 2.873 2.873 0 01.416-4.405 2.869 2.869 0 011.584-.495h21.65a2.888 2.888 0 012.88 2.87 2.82 2.82 0 01-.85 2.03h-.03zM37.83 84.69h21.48a3.91 3.91 0 100-7.82H37.83a3.91 3.91 0 00-3.91 3.91 3.888 3.888 0 003.91 3.91zm-2-5.94a2.93 2.93 0 012-.84h21.48c.75.01 1.468.312 2 .84a2.93 2.93 0 01.84 2 2.872 2.872 0 01-2.87 2.88H37.83a2.93 2.93 0 01-2-.84 2.89 2.89 0 01-.84-2 2.93 2.93 0 01.8-2.04h.04zM103.551 35h6.28a3.91 3.91 0 100-7.82h-6.28a4 4 0 00-2.77 1.15 3.914 3.914 0 00-.841 4.26 3.908 3.908 0 003.61 2.41zm-2-5.94a2.89 2.89 0 012-.84h6.28a2.868 2.868 0 012.87 2.78 2.804 2.804 0 01-.84 2 2.86 2.86 0 01-2 .85h-6.28a2.862 2.862 0 01-2-.85 2.817 2.817 0 01-.84-2 2.893 2.893 0 01.78-2l.03.06zM13.522 84.69h9.14a3.91 3.91 0 100-7.82h-9.14a3.92 3.92 0 00-2.77 6.68 3.9 3.9 0 002.77 1.14zm-2-5.94a2.89 2.89 0 012-.84h9.14c.75.01 1.467.312 2 .84a2.93 2.93 0 01.84 2 2.871 2.871 0 01-2.88 2.88h-9.1a2.88 2.88 0 01-2-4.91v.03zm1.999 36.471h20.48a3.877 3.877 0 002.76-1.15 3.912 3.912 0 00-.592-6.008 3.909 3.909 0 00-2.168-.662h-20.48a3.94 3.94 0 00-2.77 1.14 3.997 3.997 0 00-1.14 2.77 3.908 3.908 0 003.91 3.91zm-2-5.94a2.857 2.857 0 012-.85h20.48a2.811 2.811 0 012 .85 2.867 2.867 0 01.629 3.114 2.87 2.87 0 01-2.63 1.786H13.52a2.872 2.872 0 01-2.03-4.9h.03z" fill="#3F3F3F"/></svg>