<svg width="232" height="204" viewBox="0 0 232 204" fill="none" xmlns="http://www.w3.org/2000/svg"><path d="M173.43 189.94h20.5V30.83h-20.5v23.35a60.081 60.081 0 010 30.44v105.32zm1-105.13a61.001 61.001 0 000-30.82V31.83h18.5v157.11h-18.5V84.81zm57.41 104.12h-16.92V1h16.92V0h-17.92v189.93h17.92v-1zM1 203.45v-7.52h230.84v-1H0v8.52h1zm41.67-13.52h20.49v-31.37h-5.27l-15.22 15.22v16.15zm1-15.73l14.63-14.64h3.86v29.37H43.67V174.2zm87.471-45.92v61.65h20.5v-72.11l-.8.6a60.38 60.38 0 01-19.34 9.75l-.36.11zm1 .75a61.434 61.434 0 0018.5-9.22v69.12h-18.5v-59.9zm-44.931-.83v61.73h20.491v-59.61h-.44a60.309 60.309 0 01-10.26-2.1l-9.79-.02zm19.491 60.73h-18.49V129.2h8.55a61.525 61.525 0 009.94 2v57.73zm7.44-83.26a37.083 37.083 0 0036.324-29.884A37.08 37.08 0 1087.871 94.81a36.887 36.887 0 0026.27 10.86zM88.581 43A36.18 36.18 0 1178 68.54 35.869 35.869 0 0188.58 43z" fill="#3F3F3F"/><path d="M23.29 173.17a13.743 13.743 0 009.75-4l38.21-38.22a13.746 13.746 0 003.82-12.22l8.4-8.41a52.061 52.061 0 0067.3-5.11 51.819 51.819 0 00.02-73.28 51.824 51.824 0 00-36.636-15.187A51.816 51.816 0 0077.51 31.91a52 52 0 00-5.11 67.3l-8.4 8.4a13.781 13.781 0 00-12.23 3.81l-38.23 38.22a13.79 13.79 0 009.75 23.53zm-9-22.83l38.22-38.21a12.799 12.799 0 0111.55-3.49l.26.06 9.4-9.4-.26-.3a51 51 0 014.75-66.34 50.802 50.802 0 0171.85 71.84 51 51 0 01-66.34 4.76l-.35-.26-9.37 9.36.06.26a12.82 12.82 0 01-3.49 11.59l-38.24 38.21a12.775 12.775 0 01-9.04 3.75 12.78 12.78 0 01-9.04-3.75 12.81 12.81 0 010-18.08h.04z" fill="#3F3F3F"/></svg>