<svg width="234" height="234" viewBox="0 0 234 234" fill="none" xmlns="http://www.w3.org/2000/svg"><path d="M95.202 32.26v14.56l.67-.24a82.65 82.65 0 11-49.84 49.25l.25-.67h-14a16.772 16.772 0 01-11.93-4.94l-6.47-6.46-.27.73a116.95 116.95 0 0067.42 148.86h2.83a115.932 115.932 0 01-69.55-147.78l5.35 5.36a17.76 17.76 0 0012.64 5.23h12.57a83.68 83.68 0 1051.33-50.76V32.26a17.76 17.76 0 00-5.23-12.64l-4.94-4.93a115.93 115.93 0 01147.29 72.3v-3a116.95 116.95 0 00-148.37-70l-.75.27 6.06 6a16.77 16.77 0 014.94 12zm68.038 201.09h2.79a117.574 117.574 0 0040.948-27.101 117.581 117.581 0 0026.312-41.459v-3a116.53 116.53 0 01-70.05 71.56z" fill="#3F3F3F"/><path d="M32.091 78.79h34.29l49.49 49.49a8.818 8.818 0 006.36 2.578 8.807 8.807 0 006.28-2.768 9.05 9.05 0 00-.43-12.5l-49.25-49.25V32.05L49.081 2.31a6.944 6.944 0 00-.87-.75l-.18-.14a7.183 7.183 0 00-.88-.55l-.12-.05a8.28 8.28 0 00-.91-.38l-.19-.08a7.924 7.924 0 00-1-.24l-.09.49-.01-.51a8.463 8.463 0 00-.88-.1h-1.38c-.28 0-.56.09-.92.17h-.14a9.18 9.18 0 00-.93.29l-.12.06a8.56 8.56 0 00-.8.39l-.19.1a8.603 8.603 0 00-.8.54l-.09.07c-.23.19-.45.38-.66.59l-.18.18a7.994 7.994 0 00-.69.82 8.857 8.857 0 00-.5.82l-.11.2c-.157.326-.298.66-.42 1a7.31 7.31 0 00-.25 1l-.05.27a8.09 8.09 0 00-.1 1.11l-.59 27.38-27.31.58a7.68 7.68 0 00-4.09 1.25 7.5 7.5 0 00-1.22 1 7.94 7.94 0 00-1.35 1.75 8.31 8.31 0 00-.82 2 7.77 7.77 0 002.08 7.46l29.77 29.76zm-30.85-37a7.14 7.14 0 01.72-1.79 6.92 6.92 0 011.17-1.48c.328-.312.686-.59 1.07-.83a6.75 6.75 0 013.57-1.09l28.26-.61.61-28.27a6.36 6.36 0 01.09-1v-.24a9.27 9.27 0 01.23-.9c.102-.284.222-.561.36-.83l.1-.2c.14-.26.297-.51.47-.75.173-.231.36-.452.56-.66l.2-.15c.18-.18.38-.35.65-.58.27-.23.47-.32.71-.47l.19-.1c.22-.12.44-.23.67-.33l-.19-.46.3.41c.266-.1.536-.187.81-.26l.2-.05c.24-.05.49-.1.73-.13l-.06-.47.2.47h1.05c.255.012.509.039.76.08l.08-.51v.51c.282.053.56.127.83.22l.2.07c.288.101.569.221.84.36.276.143.54.306.79.49l.18.13c.265.2.515.417.75.65l29.49 29.44v34.29l49.54 49.54a7.997 7.997 0 01.41 11.11 7.8 7.8 0 01-5.564 2.46 7.781 7.781 0 01-5.636-2.29l-49.79-49.78h-34.29L3.031 48.34a6.72 6.72 0 01-1.79-6.51v-.04z" fill="#3F3F3F"/><path d="M87.15 122.71L62.71 98.28l-.29.68a65.653 65.653 0 00-5.1 25.43 66.287 66.287 0 0046.721 63.385 66.29 66.29 0 10-4.67-125.035l-.71.28 24.909 24.9h.2a36.481 36.481 0 11-36.68 36.47v-1l.06-.68zm36.41 39.16a37.471 37.471 0 00.47-74.94l-23.58-23.54a65.352 65.352 0 0178.244 25.898A65.35 65.35 0 1163.03 100.04l23.1 23.07v1.28a37.52 37.52 0 0037.43 37.48z" fill="#3F3F3F"/></svg>