<svg width="200" height="236" viewBox="0 0 200 236" fill="none" xmlns="http://www.w3.org/2000/svg"><path d="M42.846 184.429a7.72 7.72 0 005.49-2.28l10.27-10.27a7.779 7.779 0 00-11-11l-10.25 10.29a7.76 7.76 0 00-2.282 5.5 7.769 7.769 0 002.282 5.5 7.682 7.682 0 005.49 2.26zm-4.79-12.55l10.28-10.28a6.768 6.768 0 019.43.14 6.77 6.77 0 01.14 9.43l-10.28 10.28a6.77 6.77 0 11-9.57-9.57zm151.7-105.7a7.779 7.779 0 007.76 7.77h2.13v-1h-2.13a6.768 6.768 0 01-6.77-6.77 6.768 6.768 0 016.77-6.77h2.13v-1h-2.13a7.78 7.78 0 00-7.76 7.77zm-110.24 146.44l19.85-19.85 14.77 14.31 10.39-10.4a7.766 7.766 0 002.28-5.5 7.656 7.656 0 00-2.28-5.47l-8.38-8.43a136.327 136.327 0 0110.9-8.24l7 7a21.3 21.3 0 016.241 15.06 21.289 21.289 0 01-6.241 15.06l-10.24 10.25 8.11 7.86a13.88 13.88 0 014.08 11.01h1a14.918 14.918 0 00-4.35-11.64l-7.4-7.16 9.53-9.53a22.301 22.301 0 000-31.53l-7.64-7.64-.34.23a136.119 136.119 0 00-11.74 8.88l-.42.35 9.16 9.17a6.74 6.74 0 011.984 4.78 6.745 6.745 0 01-1.984 4.78l-9.7 9.7-14.74-14.3-21.26 21.26 23.38 22.65h1.44l-23.4-22.66zm103.48-167.75a7.698 7.698 0 005.49-2.27l11.17-11.16v-1.42l-11.88 11.88a6.768 6.768 0 01-9.429-.14 6.773 6.773 0 01-.141-9.43l14.53-14.54a6.71 6.71 0 016.91-1.64v-1a7.726 7.726 0 00-7.62 2l-14.53 14.47a7.755 7.755 0 00-1.682 8.465 7.762 7.762 0 007.182 4.785zm-29.079-14.52a7.782 7.782 0 007.77-7.77V8.049a7.76 7.76 0 00-4.727-7.43 7.772 7.772 0 00-10.803 7.43v14.53a7.78 7.78 0 007.76 7.77zm-6.76-22.3a6.756 6.756 0 01.439-2.67 6.76 6.76 0 013.676-3.82 6.765 6.765 0 017.529 1.535 6.775 6.775 0 011.886 4.955v14.53a6.774 6.774 0 01-4.114 6.49 6.77 6.77 0 01-9.416-6.49V8.049z" fill="#3F3F3F"/><path d="M27.067 212.979a22.332 22.332 0 0031.54 0l36.32-36.32-52.08-52.09-36.33 36.32a22.34 22.34 0 000 31.54l20.55 20.55zm-19.84-51.39l35.62-35.61 50.67 50.68-35.61 35.62a21.323 21.323 0 01-30.13 0l-20.55-20.56a21.321 21.321 0 010-30.13zm98.22 5.8c20.86-17.8 44.79-29.79 69.22-34.68l4.57-.91-91.87-91.87-.91 4.56c-4.94 24.69-17.13 49.39-34.34 69.56l-.31.35 53.29 53.29.35-.3zm-18-122.7l.55-2.73 89.23 89.22-2.73.55c-24.46 4.89-48.42 16.86-69.32 34.6l-52-52c17.16-20.21 29.32-44.93 34.26-69.64h.01zm103.8 79.98a14.947 14.947 0 008.4 4.21v-1a13.919 13.919 0 01-7.69-3.91l-96.75-96.76a14.04 14.04 0 0119.86-19.85l84.58 84.6v-1.41l-83.88-83.89a15.035 15.035 0 00-25.671 10.626 15.039 15.039 0 004.401 10.634l96.75 96.75z" fill="#3F3F3F"/></svg>