<svg width="234" height="232" viewBox="0 0 234 232" fill="none" xmlns="http://www.w3.org/2000/svg"><path d="M.1 181.47H234v-1H1.1v-26.58H234v-1H.1v28.58zm56.64 47.78a20.212 20.212 0 0120.19-20.19h17.23l-6.89-13.79h62.079l-6.9 13.79h17.24a20.223 20.223 0 0120.19 20.19 6.298 6.298 0 01-.63 2.75h1.09a7.207 7.207 0 00.54-2.75 21.22 21.22 0 00-21.19-21.19h-15.62l6.9-13.79h-65.32l6.89 13.79H76.93a21.208 21.208 0 00-21.19 21.19c0 .942.18 1.875.53 2.75h1.1a6.309 6.309 0 01-.63-2.75zM187.14 112h.14a7.388 7.388 0 007.39-7.4V77.06a7.312 7.312 0 00-2.21-5.27 7.203 7.203 0 00-5.32-2.12 7.551 7.551 0 00-7.26 7.62v6.17H170l10.5-31.65a7.404 7.404 0 00-1.878-8.344A7.399 7.399 0 00166.5 47.13l-13.8 41.38a7.4 7.4 0 007 9.74h20.19v6.17a7.55 7.55 0 007.25 7.58zm-27.45-14.79a6.396 6.396 0 01-5.194-2.653 6.39 6.39 0 01-.876-5.767l13.8-41.38a6.39 6.39 0 0112.13 4l-11 33h12.31v-7.12a6.541 6.541 0 016.28-6.62 6.388 6.388 0 016.51 6.39v27.59a6.385 6.385 0 01-1.914 4.561 6.39 6.39 0 01-4.596 1.829 6.539 6.539 0 01-6.28-6.62v-7.17l-21.17-.04zm-41.381 1.04a7.399 7.399 0 007.39-7.4V63.27a7.4 7.4 0 10-14.79 0v27.58a7.409 7.409 0 007.4 7.4zm-6.4-35a6.4 6.4 0 1112.79 0v27.6a6.402 6.402 0 01-6.395 6.653 6.401 6.401 0 01-6.395-6.653v-27.6z" fill="#4D7BA6"/><path d="M234 .24H.1v139.85H234v-1H1.1V1.24H234v-1z" fill="#4D7BA6"/><path d="M76.79 112h.14a7.39 7.39 0 007.39-7.4V77.06a7.39 7.39 0 00-7.39-7.4h-.14a7.55 7.55 0 00-7.26 7.62v6.17H59.6l10.55-31.64a7.4 7.4 0 10-14-4.68L42.32 88.51a7.399 7.399 0 007 9.74h20.21v6.17a7.55 7.55 0 007.26 7.58zM49.34 97.25a6.392 6.392 0 01-6.07-8.42l13.8-41.38a6.38 6.38 0 016-4.38 6.412 6.412 0 016.1 8.43l-11 33h12.36v-7.21a6.54 6.54 0 016.28-6.62 6.389 6.389 0 016.51 6.39v27.59a6.392 6.392 0 01-6.51 6.35 6.54 6.54 0 01-6.28-6.62v-7.17l-21.19.04zm47.78-33.54v26.7c0 11.59 9.209 21.29 20.549 21.63h.64a21.208 21.208 0 0021.19-21.2V63.27a21.217 21.217 0 00-6.44-15.202 21.213 21.213 0 00-15.39-5.978c-11.34.33-20.55 10.03-20.55 21.62zm21.189-20.63a20.221 20.221 0 0120.19 20.19v27.58a20.223 20.223 0 01-12.9 18.787 20.23 20.23 0 01-7.9 1.363c-10.8-.32-19.58-9.58-19.58-20.63V63.71c0-11 8.78-20.3 19.58-20.62l.61-.01z" fill="#4D7BA6"/></svg>