<svg width="1920" height="474" viewBox="0 0 1920 474" fill="none" xmlns="http://www.w3.org/2000/svg"><path d="M147.52 171.497l-.269.003H-26.988c-22.927 0-41.512-18.562-41.512-41.459 0-19.263 13.156-35.46 30.985-40.114l.478-.124-.119-.48a58.74 58.74 0 01-1.72-14.15c0-32.404 26.302-58.673 58.749-58.673C43.75 16.5 64.3 30.726 73.49 51.155l.22.49.473-.255c6.919-3.727 14.837-5.842 23.251-5.842 24.924 0 45.506 18.564 48.64 42.602l.057.438.443-.003.223-.002h.191c22.927 0 41.512 18.562 41.512 41.458 0 22.719-18.298 41.171-40.98 41.456zm1752.82-.001l-.3.004h-191.79c-25.27 0-45.75-20.488-45.75-45.762 0-21.264 14.5-39.141 34.15-44.278l.47-.125-.12-.479a65.3 65.3 0 01-1.89-15.615c0-35.755 28.98-64.741 64.72-64.741 26.3 0 48.94 15.697 59.06 38.24l.23.49.47-.255c7.62-4.113 16.35-6.447 25.62-6.447 27.46 0 50.13 20.486 53.59 47.015l.06.439.44-.004.24-.002h.21s0 0 0 0c25.27 0 45.75 20.488 45.75 45.762 0 25.078-20.17 45.444-45.16 45.758zM965.169 85.499l-.088.001h-58.077c-7.45 0-13.504-6.15-13.504-13.755 0-6.397 4.286-11.768 10.081-13.31l.473-.126-.115-.475a19.962 19.962 0 01-.564-4.73c0-10.836 8.626-19.604 19.249-19.604 7.818 0 14.554 4.747 17.567 11.576l.22.499.478-.263a15.719 15.719 0 017.589-1.943c8.131 0 14.858 6.174 15.883 14.185l.056.44.444-.004h.136c7.449 0 13.503 6.15 13.503 13.755 0 7.546-5.961 13.66-13.331 13.754zM303.845 473.498l-.149.002h-97.247c-12.67 0-22.949-10.369-22.949-23.169 0-10.768 7.276-19.818 17.13-22.418l.475-.125-.117-.477a33.258 33.258 0 01-.954-7.932c0-18.163 14.586-32.879 32.569-32.879 13.234 0 24.628 7.969 29.724 19.419l.22.495.476-.259a26.834 26.834 0 0112.871-3.269c13.794 0 25.192 10.385 26.928 23.841l.057.44.443-.004.123-.001h.107c12.669 0 22.948 10.369 22.948 23.169 0 12.701-10.12 23.008-22.655 23.167z" stroke="#fff" stroke-opacity=".1"/></svg>