<svg width="18" height="18" viewBox="0 0 18 18" fill="none" xmlns="http://www.w3.org/2000/svg"><path opacity=".5" d="M16 14.47c-.88-.07-1.75-.22-2.6-.45l-1.19 1.19c1.2.41 2.48.67 3.8.75v-1.49H16zM3.54 2h-1.5c.09 1.32.35 2.59.75 3.8l1.2-1.2c-.24-.84-.39-1.71-.45-2.6z" fill="#fff"/><path d="M17 18c.55 0 1-.45 1-1v-3.49c0-.55-.45-1-1-1-1.24 0-2.45-.2-3.57-.57a.84.84 0 00-.31-.05c-.26 0-.51.1-.71.29l-2.2 2.2a15.149 15.149 0 01-6.59-6.59l2.2-2.2c.28-.28.36-.67.25-1.02A11.36 11.36 0 015.5 1c0-.55-.45-1-1-1H1C.45 0 0 .45 0 1c0 9.39 7.61 17 17 17z" fill="#fff"/><path d="M13.4 14.02c.85.24 1.72.39 2.6.45v1.49c-1.32-.09-2.59-.35-3.8-.75l1.2-1.19zM2.03 2h1.5a13 13 0 00.46 2.59l-1.2 1.2c-.41-1.2-.67-2.47-.76-3.79z" fill="#fff"/></svg>