<svg width="22" height="17" viewBox="0 0 22 17" fill="none" xmlns="http://www.w3.org/2000/svg"><path d="M2.059 5.194c.27.192 1.089.76 2.453 1.706 1.364.945 2.41 1.673 3.136 2.184.08.056.25.177.508.365.26.188.475.34.647.455.171.116.379.245.622.389.243.143.473.251.688.323.216.072.415.107.599.107h.024c.183 0 .383-.036.598-.107.216-.072.445-.18.689-.323.243-.144.45-.274.622-.39.171-.115.387-.266.646-.454.26-.188.429-.31.509-.365l5.6-3.89a5.685 5.685 0 001.46-1.472c.392-.574.588-1.177.588-1.807 0-.527-.19-.978-.57-1.353A1.85 1.85 0 0019.533 0H1.915C1.3 0 .828.207.497.622.166 1.037 0 1.556 0 2.178c0 .503.22 1.048.658 1.634.439.586.906 1.047 1.4 1.382z" fill="#fff"/><path d="M20.25 6.475c-2.616 1.771-4.603 3.147-5.96 4.129-.454.335-.823.597-1.107.784-.283.187-.66.379-1.13.574-.471.196-.91.293-1.317.293h-.024c-.407 0-.846-.097-1.317-.293a6.83 6.83 0 01-1.13-.574 28.353 28.353 0 01-1.108-.784c-1.077-.79-3.06-2.166-5.948-4.13A6.34 6.34 0 010 5.435v9.502c0 .527.187.978.562 1.353.375.375.826.563 1.353.563h17.618c.526 0 .977-.188 1.352-.563.375-.375.563-.826.563-1.353V5.434c-.344.382-.742.73-1.198 1.04z" fill="#fff"/></svg>