<svg width="37" height="43" viewBox="0 0 37 43" fill="none" xmlns="http://www.w3.org/2000/svg"><path d="M21.888 16.828a.7.7 0 00.7-.058.595.595 0 00.258-.643l-.643-3.775 2.746-2.617a.667.667 0 00.199-.643.642.642 0 00-.514-.456l-3.763-.572-1.671-3.39a.654.654 0 00-1.169 0l-1.67 3.39-3.775.572a.642.642 0 00-.514.456.584.584 0 00.198.643l2.746 2.617-.642 3.775a.631.631 0 00.257.643.701.701 0 00.713.058l3.388-1.788 3.156 1.788zM18.3 13.766l-2.618 1.344.515-2.816a.678.678 0 00-.2-.585l-2.044-1.974 2.816-.386c.187 0 .386-.199.514-.327l1.274-2.56 1.309 2.56a.502.502 0 00.514.327l2.816.386-2.08 1.951a.9.9 0 00-.187.584l.515 2.817-2.501-1.344c-.059-.07-.187-.07-.316-.07a.562.562 0 00-.327.093z" fill="#A0C1E0"/><path d="M36.355 40.96h-7.678v-5.902a.607.607 0 00-.643-.631H25.09v-3.272a.609.609 0 00-.643-.631H20.87v-7.222a.292.292 0 01.187-.199 12.96 12.96 0 007.619-7.011 12.433 12.433 0 006.59-11.067V4.22a.607.607 0 00-.642-.631H31.12c0-1.029-.058-2.337-.128-3.015A.665.665 0 0030.383 0H6.533a.678.678 0 00-.69.573c0 .596-.082 1.986-.082 3.015H2.255a.608.608 0 00-.642.63v.9a12.317 12.317 0 006.567 11.08 13.403 13.403 0 007.62 7.011.198.198 0 01.186.187v7.234h-3.564a.606.606 0 00-.643.643v3.26H8.834a.608.608 0 00-.642.643v5.843H.642a.643.643 0 100 1.285h35.713a.608.608 0 00.642-.643.643.643 0 00-.642-.7zm-5.06-36.098h2.816v.257a11.136 11.136 0 01-4.417 8.963 25.886 25.886 0 001.6-9.22zm-28.42.257v-.257H5.69a26.153 26.153 0 001.601 9.161A11.078 11.078 0 012.875 5.12zm6.404 10.307A23.77 23.77 0 016.94 4.908c0-.888 0-2.617.129-3.576h22.787c.059 1.017.129 2.747.129 3.576a23.757 23.757 0 01-2.244 10.518 11.942 11.942 0 01-7.011 6.462 1.508 1.508 0 00-1.169 1.414v7.233h-2.15v-7.233a1.671 1.671 0 00-1.169-1.414 11.979 11.979 0 01-6.964-6.462zm3.844 16.453h10.693v2.618H13.123v-2.618zm14.339 9.08H9.606v-5.247h17.856v5.247z" fill="#A0C1E0"/></svg>