<svg width="40" height="30" viewBox="0 0 40 30" fill="none" xmlns="http://www.w3.org/2000/svg"><path d="M37.189.667H2.81A2.815 2.815 0 000 3.478V27.19A2.815 2.815 0 002.811 30H37.19A2.815 2.815 0 0040 27.19V3.479A2.815 2.815 0 0037.189.666zm1.478 26.522a1.48 1.48 0 01-1.478 1.478H2.81a1.48 1.48 0 01-1.478-1.478V3.479A1.48 1.48 0 012.811 2H37.19a1.48 1.48 0 011.478 1.478V27.19z" fill="#A0C1E0"/><path d="M15.095 19.498l-2.426-1.239v-.258c1.086-.593 1.849-1.569 2.275-2.91a1.984 1.984 0 001.059-1.757v-.667c0-.617-.288-1.19-.768-1.566-.416-2.52-2.174-3.797-5.232-3.797-.145 0-.286.005-.424.016-.576.047-1.42-.003-2.15-.493a2.738 2.738 0 01-.61-.53.795.795 0 00-.934-.248.791.791 0 00-.49.832c.028.249.07.539.134.857.128.65.128.65-.052 1.039-.068.147-.152.326-.251.568a7.445 7.445 0 00-.467 1.765 1.99 1.99 0 00-.756 1.557v.667c0 .748.412 1.415 1.058 1.758.426 1.341 1.19 2.317 2.275 2.91v.25L4.823 19.49a2.852 2.852 0 00-1.487 2.505v.883c0 .535 0 1.788 6.667 1.788 6.666 0 6.666-1.253 6.666-1.788v-.83a2.839 2.839 0 00-1.574-2.551zm.24 3.23c-.415.254-2.107.606-5.332.606-3.226 0-4.918-.352-5.334-.605v-.733c0-.557.304-1.069.768-1.322l2.572-1.267c.4-.196.66-.611.66-1.058v-1.203l-.403-.173c-1.011-.436-1.669-1.267-2.01-2.542l-.095-.356-.351-.11a.673.673 0 01-.474-.631v-.667c0-.241.138-.465.36-.584l.313-.167.037-.352A6.26 6.26 0 016.46 9.85c.088-.217.164-.38.225-.512.226-.485.308-.736.251-1.25.784.448 1.726.639 2.748.56.104-.008.21-.012.318-.012 2.496 0 3.715.904 3.953 2.932l.041.348.31.164a.669.669 0 01.362.586v.667a.671.671 0 01-.474.631l-.351.11-.095.355c-.342 1.275-1 2.107-2.01 2.543l-.403.174v1.207c0 .446.247.848.643 1.05l2.516 1.286c.519.258.84.78.84 1.36v.678zm4.664-12.061h6.666a.666.666 0 100-1.333H20a.666.666 0 100 1.333zm9.331 0h.667a.666.666 0 100-1.333h-.666a.666.666 0 100 1.333zm-8.665 10.001H20a.666.666 0 100 1.333h.666a.666.666 0 100-1.334zm4.003 0h-1.333a.666.666 0 100 1.333h1.333a.666.666 0 100-1.334zm3.333 0h-.666a.666.666 0 100 1.333H28a.666.666 0 100-1.334zm3.999 0h-1.333a.666.666 0 100 1.333H32a.666.666 0 100-1.334zm2.193.192a.697.697 0 00-.193.474.7.7 0 00.193.473.7.7 0 00.474.194.701.701 0 00.473-.194.7.7 0 00.193-.473.7.7 0 00-.193-.473c-.253-.247-.7-.247-.947 0zm.472-7.526H20a.666.666 0 100 1.333h14.666a.666.666 0 100-1.333zm0 4H20a.666.666 0 100 1.333h14.666a.666.666 0 100-1.334z" fill="#A0C1E0"/></svg>