<svg width="560" height="292" viewBox="0 0 560 292" fill="none" xmlns="http://www.w3.org/2000/svg"><path fill-rule="evenodd" clip-rule="evenodd" d="M443.812 57.624l-.464 1.316 1.16.774 1.315-.774-.464-1.625-1.547.31zM333.285 92.711l2.117 1.681.971-1.533.323-1.273-1.174-.732-1.414-.21-.823 2.067zm-4.121 4.979l.675.86 2.357-1.443-.528-1.42-1.477-.057-.823 1.266-.204.795zm52.148-21.91l3.552.464.155 1.78-1.392.387-1.618-1.006-.697-1.625zm9.352-5.874l.619 2.863h1.463l.309-2.553-1.462-1.231-.929.921zm3.234 2.399v3.243l3.63-.774 3.404-1.773-1.161-2.63-2.243-.31-1.695-.387-1.238 1.857-.697.774zm1.168-18.078l1.084 2.314 6.949.078 2.011-3.707-1.315-2.856-1.47 1.625-2.856-.24-.773 1.316h-1.541l-.232 1.547-1.857-.077zm-2.71-11.592l-.458 1.702 1.386.31.542-1.47-1.47-.542zm-3.708 14.99l1.625 2.476 3.01.612.077-3.475-1.005-1.695-3.552-.233-1.85 1.309-2.863-.464-.232 1.934 1.702 1.78-.928 1.076-2.701-2.237-3.25.31-.232 2.623.317 2.709 1.463 1.85.541 2.089 3.011.85 2.785-.231-.232-2.94 2.004.231 1.548-2.546 1.85.387 1.238-1.393-1.238-1.238-2.701-.767-2.16-2.553 1.773-.464zm-13.597 6.491l.464 2.082 1.857 2.167 1.153-.464-1.385-2.554-2.089-1.23zm80.164-4.599l-.935 1.822-5.05 2.842-3.672-3.49-3.671-.365-5.233 3.398-3.58 4.41-1.288 4.495-2.384.739-2.94-1.47-2.849.274-1.47 1.927-1.28-1.104-1.195 1.287-1.471-1.379 2.111-2.11-4.959-.366-2.842 2.476 1.562 5.325-2.849 2.758v-4.13h-1.927l-1.927 1.745-.457-2.117 2.841-2.568-3.031.183-8.996 4.593 1.744 2.11-2.567 2.477 1.006 1.836 1.842-.915.183 2.66 2.202 2.574-3.397.823-1.013 1.378.921 2.202-2.757.464-3.672-1.104-1.104 4.13-6.239-1.098v9.179l-4.41-.731-6.794-6.155 2.483-1.745-4.136-6.148-2.659-1.287-4.037 1.379-4.502-1.745-.647 6.978-8.166 3.49-3.123-2.118.458-1.653-8.349-.091-2.209 2.94-.549 1.927-.548-2.841-1.569-1.38-1.828 1.928-2.547 1.273-.14 1.752 1.188 1.583.022.028.007.042.541 2.828 3.932 5.564.035.049v3.672l2.005 2.413.112.133-.133.106-4.586 3.643-.268 2.111-.007.042-.021.035-1.069 1.611-.816 3.925-.028.155-.155-.021-2.25-.268-3.63 2.962-.014.007-.014.007-1.217.633 2.877 4.403.021.036.007.042.978 12.296.007.077-.049.056-2.532 2.793 1.667 1.287.084.063-.021.106-.682 3.271 1.484 1.611.042.049v2.356l1.744 1.203.106.078-.042.126-.844 2.23-.008.035-.014.021-2.623 3.173-.253 2.272h4.339l.043.042 1.864 1.456 1.99-1.322.134-.092.098.127 1.118 1.393.085.112-.007.014 1.463 2.216.098.141-.147.098-1.66 1.055v1.963l1.835.141 1.534-1.07.162-.112.084.176 1.899 3.636.021.036v.049l-.155 4.326 2.441 1.372.113.063-.029.126-1.097 4.531 1.372 3.038 3.087.929.183.056-.077.176-2.356 5.508-.472 6.858 2.378 2.525 2.567-1.962.042-.035h.05l3.861-.155 1.379-2.448.105-.197.162.155 2.082 2.089 2.715-3.165 4.262-9.159.035-.077.092-.014 2.848-.479.05-.007.042.021 5.535 2.216.071.028.028.071 1.202 3.622 3.313-1.505.085-.042.084.056 2.054 1.421.042.028.014.049 3.728 8.448 4.846 8.976 3.046-1.998.014-.007.014-.007 3.165-1.266.091-.035.078.063 2.419 1.963 1.316-1.168.112-.105.12.105 1.934 1.787 1.779-1.78.05-.056.077.007 4.431.155.056.007.043.035 2.771 2.152 5.451-2.026.091-.028.078.064 1.814 1.512 7.498-3.44.049-.021.057.007 2.166.464 2.349-.879-.295-1.758-.021-.127.112-.056 5.803-3.018-1.449-4.087-.042-.098.077-.071 1.949-2.089-.809-2.019-3.714-2.426-.127-.085.071-.134 1.955-3.77-3.629-2.511-.162-.106.127-.147 1.695-1.977v-8.427l.105-.042 7.118-2.708.282-3.215.014-.148.147-.007 4.22-.281.964-2.61-.148-2.708-.007-.113.106-.049 2.04-.949-1.534-5.431-2.841-1.991-.099-.07.035-.112 1.857-6.591-2.574-6.88-.035-.091.056-.078 1.442-1.871.077-.098.12.035 5.008 1.716 3.2-.689 1.118-1.963.043-.07.077-.007 3.791-.563.675-2.434-6.302-13.083-.028-.05.014-.056.64-3.2.014-.064.05-.042 4.227-2.983-1.59-3.066-.063-.113.098-.091 4.094-3.834.042-.042.056-.007 3.644-.373 2.096-2.343.365-4.079-2.363-2.118-.056-.049v-.07l-.127-2.638-1.512-2.265-.077-.12.105-.098 1.801-1.681-1.941-2.308-.106-.12.12-.112 4.733-4.347.021-.021.028-.014 2.132-.88 1.575-2.307-2.982-6.204h-3.763l-.035-.014-2.94-1.28-.064-.028-.028-.07-1.533-3.968-.042-.091.07-.078 5.972-6.985v-3.44l-7.815-5.859zm9.265-45.744l3.96 4.692.866-.872 1.083-5.41 1.294-2.525-1.435-1.949-3.601.289-2.167 3.243v2.532z" fill="#EEE"/><path fill-rule="evenodd" clip-rule="evenodd" d="M525.598 60.994l-.9-9.94-2.757-1.561 6.52-4.502-.921-3.032-12.119-1.006-1.463 1.928-3.306.274-.366 2.575-2.665-.19v-3.58l3.031-1.007 1.189-2.483-.64-6.514-1.196-.464-1.47.922-.091-2.392-2.842 1.105-1.927-2.202.731-3.58 2.385 2.11 1.378-1.105 2.019 2.209 1.196-2.757-.275-3.306 2.202-1.836 3.854.365 6.429-4.867-1.562-1.836 3.215.464-.092-3.123-3.488.64-1.013-2.202-4.677-.921 1.835-2.293-2.391-1.745 2.208-1.562L514.872 0l-7.8 4.593-.464 3.764-2.11 2.757 5.233 2.11-2.849 1.288-8.447-2.3-9.819 6.52-14.693 7.991-3.946 6.422.366 1.928-2.659.738-3.763 3.398 2.659 3.306 2.384-.739 3.587 2.02-.373 3.587-3.298.365-2.209 1.28-4.684-2.933v5.965l-4.769 3.58-1.843 3.574 7.92 5.944.07.05v3.728l-.042.049-5.943 6.964 1.47 3.798 2.848 1.238h3.904l.049.099 1.498 3.116 2.469.365.084.015.036.077 1.582 2.8 3.313-1.59.063-.035.064.02 3.108 1 2.357-2.11.042-.043.056-.007 3.651-.246 2.701-2.835-.493-2.73-.028-.147.141-.042 2.729-.872.745-2.596.028-.112.113-.007 2.321-.247.739-2.201.028-.092.091-.021 4.277-1.006 1.111-1.977.049-.084.092-.007 6.393-.38.127-.007.049.12 1.477 4.066 4.452-1.358.021-.007h.029l4.867.127 3.925-11.27.063-.19.176.092 2.37 1.245 3.031-.914zm30.047 50.421l1.434 1.428 2.786-2.286-1.217-.282-3.003 1.14zm-11.981 60.284l.225 1.076 1.386.886.668-1.695-.76-1.252-1.519.985zm4.378-2.054l-.218 1.027 1.512.584.809-.894-1.477-1.294-.626.577zm-.933 2.236l-.359 4.242 1.653 2.138 1.519-.71-.316-4.199-1.203-1.119-1.294-.352zm2.363 9.419l-.218 1.562.71 1.561 1.963-.893.274-1.027-2.729-1.203zm2.537 12.408l-.732 1.4 1.098 1.583 1.336-1.273-.851-1.59-.851-.12zm.112 7.865l.732 1.217 1.034-.366.246-1.948-1.344-.31-.668 1.407zm.918 3.165l-1.098 1.161.851 2.314 2.561-.668-.851-2.378-1.463-.429zm-1.712 9.63l-1.28 1.28.063 2.687.063 2.8.057 1.28h1.343l1.097-3.165-.246-3.109-1.097-1.773zm-3.839 10.488l1.344.063.422 1.766-.971 1.519-1.28 1.829-.12 2.012-.365 2.497-.246 1.892-.612-.302-.486-3.292-.119-4.087 1.646-1.702.914-.795-.127-1.4zm-4.835 21.813l.661-.295.26-4.762.823-.95.155-1.245-.872-.556-1.344.633-.738.584.661 2.089-.239 2.702.633 1.8zm5.023-4.797l.45 1.034 1.35-.478-.295-1.428-.739-1.034-.738.717-.028 1.189zm-25.885-139.96l-1.076 3.215 4.079 4.572.57-6.57-2.216-.999-1.357-.218zm26.85 12.008l1.076 1.639 4.072.647 1.639-.858-.999-1.716-3.003-.359-2.785.647z" fill="#EEE"/><path fill-rule="evenodd" clip-rule="evenodd" d="M474.685 150.089l2.455-1.618 1.653-1.378 2.293-.549-.732-4.685 4.038-1.287 3.123-2.75 2.848-.092-2.11 3.032 2.019 1.744 2.94-3.306.731-5.233 2.659-1.013 2.117-2.758-2.208-1.653-1.928 2.392-2.018-1.927-.549-9.461-1.744-5.6.548-4.129 3.398-4.867 1.927-.092.921-2.757 3.946 5.416 2.757-.457.183-2.019-.647-4.136-.696-2.905-2.652-1.499-.07-.035-.014-.077-.507-2.652-1.702-1.59-2.764.254-.127.014-.049-.127-1.639-4.29-2.356-.5-.07-.014-.036-.057-3.784-5.493-2.665 2.792-.05.05-.063.006-3.65.247-2.385 2.138-.077.063-.092-.028-3.129-1.006-3.398 1.64-.14.07-.078-.141-1.624-2.87-2.16-.324 1.4 2.906.042.091-.056.077-1.667 2.434-.028.042-.042.022-2.153.879-4.586 4.22 1.942 2.308.105.12-.119.112-1.815 1.695 1.456 2.181.028.035v.049l.127 2.617 2.377 2.124.063.056-.007.092-.387 4.22-.007.057-.035.042-2.173 2.427-.042.049-.071.007-3.65.38-3.953 3.707 1.597 3.088.07.126-.12.092-4.297 3.025-.612 3.081 6.225 12.907 2.869-1.913.064-.042.084.021 6.499 2.167.091.035.022.098.717 3.609.014.063-.028.049-1.547 2.814 1.167 2.335 2.581-1.899.05-.035h3.474l.05.084 1.638 2.863zm5.018 111.345l-.352 10.72 1.927 3.299-7.533.647-2.475 5.417 6.977 7.16.183 2.666 3.854-3.671 6.612.091 4.776-3.862 2.841-5.691 1.379-15.608 1.927-8.174-1.28-9.56-1.885-.534-.106-.029-.021-.105-.457-2.286-3.137-2.244-3.51 2.638 2.082 2.258 3.327.281.176.014-.021.176-.76 5.184-.014.141h-.148l-2.356.091.359 3.299.007.106-.084.056-3.391 2.258-.035.028h-.042l-5.571.373-1.399 1.829 1.083 2.167.098.197-.211.042-2.82.626z" fill="#EEE"/><path fill-rule="evenodd" clip-rule="evenodd" d="M476.63 249.884l2.441 3.995-.914 2.94 1.491 4.277 2.588-.57-1.034-2.061-.049-.098.063-.085 1.513-1.976.042-.064.077-.007 5.606-.372 3.263-2.174-.365-3.383-.021-.183.183-.007 2.398-.085.71-4.86-3.207-.268-.07-.007-.043-.049-2.257-2.448-.134-.134.155-.112 3.763-2.828.105-.077.099.077 3.291 2.35.057.042.014.063.45 2.251 1.681.478.837-10.832-1.189-3.398-5.331-10.833-1.744-2.11-1.562-7.625-1.062-2.532-.373-.408-3.981-1.646-1.378-1.653 1.195-2.392-2.933-1.189-6.154-1.104-4.776 2.483-1.653 7.252-2.018-2.574-2.293 2.94-1.928-5.599-4.044 2.476-3.397-.549.183-3.214 4.41-11.016 1.104-11.023 1.28-5.325-1.097-4.403 1.463-3.953-.64-4.221 9.27-9.088 2.94.549.275-1.105-.823-1.28 1.294-.858-1.597-2.793h-3.165l-2.701 1.991-.162.12-.091-.183-1.301-2.603-.043-.077.043-.078 1.561-2.835-.689-3.453-6.323-2.111-2.912 1.942-.704 2.539-.035.106-.105.021-3.82.562-1.111 1.949-.042.07-.07.014-3.327.718-.042.014-.05-.014-4.937-1.695-1.309 1.702 2.568 6.844.014.056-.007.05-1.85 6.527 2.792 1.956.049.035.015.056 1.589 5.635.042.141-.133.056-2.061.964.133 2.63.008.035-.015.029-1.012 2.75-.036.098-.112.015-4.185.274-.274 3.179-.014.106-.099.035-7.111 2.708v8.315l-.042.049-1.611 1.878 3.601 2.49.127.092-.07.133-1.956 3.764 3.63 2.37.042.028.021.05.865 2.166.042.099-.07.084-1.955 2.089 1.399 3.946 5.761-2.996.112-.064.092.099 1.899 2.061.077.077-.049.106-2.827 6.127.309 2.961.014.113-.098.056-2.125 1.21.148 2.42h4.832l.049.077 2.167 3.243 2.37-.148 3.869-3.559.619-2.645.035-.127h3.031l.908-1.808.056-.112.119.021 2.054.316.106.015.035.105 1.899 5.853.028.098-.07.07-1.266 1.267-.042.042-.057.007-4.677.752 1.167 2.483.05.106-.078.084-1.864 2.019-.464 2.645-.007.042-.035.036-2.75 3.221 1.174 1.47.085.106-.085.098-1.863 2.49v3.004l4.972 2.483.036.014.028.035 3.995 5.536 2.504-2.37.049-.049.07.007 5.367.091h.056l.042.035 2.378 1.921 7.16-2.42.295-.099-.077.303-.746 3.039z" fill="#EEE"/><path fill-rule="evenodd" clip-rule="evenodd" d="M456.305 254.864l2.75 4.34 2.933 2.575 6.246-3.032.823-2.574 4.684-5.234 2.553-1.168.675-2.701-6.956 2.343-.091.035-.071-.063-2.398-1.942-5.24-.091-2.581 2.448-3.327 5.064zm-49.964-16.312l6.26-3.222 4.776 1.653 5.781-.914 8.448 8.35 10.466 10.839 4.128-1.653 2.575 1.196 1.835-.921 3.489 1.104 1.885-.246 3.313-5.044-4.016-5.571-5.029-2.511-.092-.049v-3.32l.035-.05 1.815-2.427-1.182-1.477-.084-.112.092-.106 2.813-3.285.464-2.645.014-.049.035-.035 1.815-1.977-1.21-2.581-.098-.204.218-.035 4.853-.788 1.154-1.154-1.836-5.648-1.829-.282-.893 1.787-.049.091h-2.976l-.598 2.561-.014.049-.042.035-3.953 3.644-.042.035-.063.007-2.532.155-.092.007-.056-.077-2.166-3.25h-4.973l-.014-.162-.155-2.687-.007-.106.092-.056 2.124-1.21-.31-2.891-.007-.049.021-.042 2.8-6.064-1.731-1.878-11.64 6.05.295 1.779.028.141-.133.042-2.532.95-.05.021-.049-.014-2.159-.457-7.54 3.453-.099.043-.077-.064-1.829-1.519-5.444 2.019-.091.035-.071-.056-2.806-2.188-4.298-.148-1.842 1.843-.12.12-.12-.113-1.941-1.794-1.308 1.161-.113.099-.112-.092-2.448-1.991-3.059 1.217-2.969 1.949 3.756 2.504.148.099-.105.14-1.119 1.569 1.73 1.73 3.137-1.737.148-.085.085.148 1.498 2.652 2.405-.57.197-.049.014.204.352 4.72 2.448 1.4.161.098-.105.148-1.372 1.956 3.897 5.852zm82.126-31.372l-.126-.31 5.416 2.94 1.744 4.587 2.666 3.397 3.207 5.142 2.3 3.764 2.659 2.026.83 2.384.731 2.11 3.306 1.562.457 3.306 3.398 4.312.274-3.763-.457-2.849 2.665-.183 1.006-.457 2.483 1.287-2.019-4.221h-2.94l-3.123-1.378-3.58-2.575-2.293-5.873-1.287-3.764 2.75-1.561 5.142-.275-11.563-7.808-8.173-7.343-3.763-7.07-5.142-3.58-2.391-3.032-1.646.732-.373 1.744 3.031 2.117 1.653 2.476-.921 1.196-1.47-.373-.457 2.118 2.94 2.202 2.94 6.703-.246-.098.372.408z" fill="#EEE"/><path fill-rule="evenodd" clip-rule="evenodd" d="M49.266 166.57l.766 1.457-.133 3.383 2.342 1.252.007.007 1.688 1.083 1.568-1.083.05-.035.056.007 2.37.127 2.49-1.52.267-1.899.029-.162.161.021 2.786.373 1.463-.464.14-.042.064.133 1.097 2.195 2.476.879.548-.492.162-2.758-1.59-1.195-.063-.043v-.084l-.12-1.78-1.005-.949-1.54-1.133-.078-.049.007-.099.176-2.708-3.08-2.384-.057-.043-.007-.07-.281-1.815-1.168-.555-.099-.05v-1.252l-.47-.83-1.745-.105-.31.724-.035.085-.091.014-.718.119-.098.014-.063-.077-.479-.591h-.745l-1.147 1.034v2.005l-.028.049-.675.936.577.436.063.042.007.084.056.95.014.19-.19-.007-1.265-.056-.507.865.345 1.723.014.092-.064.063-3.938 3.988z" fill="#E52520"/><path fill-rule="evenodd" clip-rule="evenodd" d="M43.29 148.021l-1.33 1.646-.64 1.006.275 1.379 1.378.64-.183 2.118 3.489 2.201.091 4.038 2.736 5.205 3.806-3.848-.345-1.695-.007-.063.028-.056.598-1.013.05-.092.105.007 1.174.05-.042-.683-.647-.492-.134-.099.099-.133.738-1.027v-1.907l-2.532-2.588-2.504-.528-.035-.007-.028-.014-1.78-1.196-.049-.035-.02-.056-.444-1.505-.907-.155-.9.506-.099.064-.091-.078-1.85-1.59z" fill="#E52520"/><path fill-rule="evenodd" clip-rule="evenodd" d="M45.685 139.095l-1.52.654-.738 1.47-1.097.274-.092 1.836 1.562.922-.38 3.433 1.843 1.589.85-.478.05-.028.063.007 1.07.183.105.014.028.105.457 1.548 1.702 1.139 2.526.528.049.007.042.042 2.497 2.561 1.125-1.02.05-.05h1.033l.057.064.47.584.521-.092.289-.654-1.133-1.533-.035-.043v-.049l-.112-1.491-1.196-.38-.07-.021-.036-.07-.351-.774-.021-.035v-1.288l-.556-.731-.035-.042v-2.744l-4.016-5.247-5.001-.19zm5.687-12.268l-2.532-.211-1.836-1.745.19-1.653-1.744-.365-1.013 2.483-3.671 3.116.274 2.026 1.927-.092 1.47 1.189.549 2.575 1.653-.183 1.927.365v1.288l-2.392 3.151 4.544.169 5.655-4.143-.443-.732-.028-.042v-1.034l.05-.049.674-.669.015-.014.02-.014.964-.57-.112-.759-1.147-.085-.619.493-.091.07-.099-.056-1.013-.577-.042-.028-.02-.042-.627-1.203-.02-.035v-.043l-.05-1.104v-.049l.02-.042.592-1.013-2.715-.176h-.05l-.042-.035-.218-.162z" fill="#E52520"/><path fill-rule="evenodd" clip-rule="evenodd" d="M59.356 111.281l-.415.739-3.031 1.744-1.554 2.476-1.653 3.398-.183 2.757.457 1.653-1.196 1.47-.07 1.133.042.035 2.898.19 1.16-.514.036-.014h.042l2.286.043 1.252-1.154.056-.049h.07l1.681.098.12.007.035.12.71 2.434.627-.373.056-.028.056.007 1.252.197.077.007.036.063.619.879 3.277-.323 1.956-1.259 2.173-3.116.084-.753-1.49-1.822-.036-.035-.007-.049-.225-1.653-3.679-.655-.035-.007-.035-.021-1.78-1.301-.035-.028-.014-.028-2.363-4.432v-.007l-.007-.007-.746-1.773-.703-.372-1.428.365-.035.007h-.035l-.303-.049zm-8.34 27.87l3.995 5.22.035.049v2.736l.556.732.035.042v1.337l.31.668 1.209.387 1.857.091.577-1.013.014-.035.02-.014 3.51-2.849.366-2.877-1.519-1.386-.028-.021-.014-.035-.774-1.681-.014-.035v-.042l.091-2.927-4.62-2.455-5.606 4.108z" fill="#E52520"/><path fill-rule="evenodd" clip-rule="evenodd" d="M63.274 146.832l-3.404 2.757-.612 1.084-.057.091-.098-.007-1.787-.084.099 1.364 1.111 1.506 1.885.112.092.007.042.078.534.956.021.035v1.133l1.154.549.084.035.014.091.282 1.836 3.017 2.343 1.463-.676.387-.907-.232-1.47-.422-.894-.035-.077.042-.077.626-1.105.028-.049.05-.021 2.574-1.196 1.519-1.379.042-1.681-.359-1.125-1.357-1.076-.035-.029-.021-.042-.444-1.203-1.287-.126-2.032.942-.043.021-.042-.007-1.449-.14-.07-.007-.042-.057-1.238-1.505z" fill="#E52520"/><path fill-rule="evenodd" clip-rule="evenodd" d="M71.993 152.685l-.006.267-.007.071-.05.049-1.59 1.449-.02.014-.022.014-2.553 1.175-.555.985.4.837.007.021.008.021.239 1.54.007.05-.021.049-.43 1.006-.028.063-.063.028-1.52.704-.168 2.602 1.47 1.077.007.007.014.007 1.07 1.013.049.049v.063l.112 1.766 1.547 1.16 2.251-.394 4.516-2.328.57-.788.049-3.749v-.021l.436-2.554.007-.049.028-.035 1.977-2.342-1.583-1.752-.943.591-.02.014-.022.007-.816.239-.07.021-.063-.035-1.252-.724-.043-.021-.02-.043-1.112-2.032-1.787-.092zm-10.406-15.187l-.09 2.898.738 1.611 1.561 1.428.07.056-.014.092-.38 2.954 1.26 1.526 1.329.134 2.026-.943.042-.021.049.007 1.28.127.12-.753.007-.042.028-.035.914-1.252v-.007l.007-.007 1.836-1.97v-1.308l.05-.049 1.096-1.098-.225-2.244-1.322-.823-.042-.021-.021-.049-.577-1.196-2.8.134-.674.809-.092.112-.127-.07-2.433-1.484-.683-.211-2.932 1.695z" fill="#E52520"/><path fill-rule="evenodd" clip-rule="evenodd" d="M72.616 143.533l-1.822 1.963-.886 1.21-.127.83.443 1.217 1.365 1.076.035.028.021.049.38 1.21.014.028v.029l-.035 1.174 1.892.092.098.007.043.084 1.132 2.075 1.147.661.724-.218 1.04-.654.12-.077.099.105 1.751 1.942 1.175.408 1.062-.042 3.517-3.138.007-.007.014-.007 1.864-1.322-.436-1.175-.718-1.962-3.6-6.064-2.202-.091-.767.675-.099.084-.105-.07-.865-.577-.007-.007-.851-.598-.436.352-.028.028-.036.007-1.54.387-.056.014-.057-.028-.858-.387-.59.549-.05.042-.056.007-1.716.091zm-1.269-7.364l.52-.654.838-1.203v-2.835l-1.309-.717-.035-.021-.028-.035-1.013-1.59-.014-.035-.007-.035-.253-1.618-1.8 1.16-.029.021-.042.007-3.418.338-.099.007-.056-.084-.633-.901-1.126-.168-.76.45-.189.105-.063-.211-.739-2.525-1.491-.084-1.245 1.146-.05.049h-.07l-2.32-.049-1.119.493-.668 1.16.042 1.02.584 1.126.872.499.584-.464.05-.042.062.007 1.35.098.142.007.014.141.147 1.006.014.119-.098.057-1.041.612-.605.611v.795l.478.781 4.692 2.49 2.996-1.737.063-.035.07.021.774.239.022.007.014.014 2.328 1.414.633-.753.049-.056.07-.007 2.912-.141z" fill="#E52520"/><path fill-rule="evenodd" clip-rule="evenodd" d="M70.356 127.186l.274 1.772.97 1.52 1.358.753.084.049v3.137l-.028.042-.865 1.252-.007.014-.513.633.562 1.161 1.35.837.071.049.007.085.246 2.406.007.077-.056.056-1.111 1.112v1.048l1.54-.085.633-.584.077-.077.106.042.907.415 1.45-.365.499-.408.098-.085.106.078.963.668.753.506.724-.633.05-.049.07.007 2.258.091.85-1.301.584-1.653-.541-.499-.014-.014-.007-.007-1.013-1.302-.014-.021-.014-.028-.816-2.504-.021-.057.02-.049.578-1.779.014-.036.02-.028 1.879-2.166.007-.007.007-.007 1.16-1.07.26-1.308-1.484-1.751-3.53.049h-.05l-.042-.028-3.896-2.505-.085-.056.007-.098.085-1.477-.465-.233-.393.394-.036.043-.056.007-3.334.464-.035.302-.007.042-.021.036-2.18 3.123z" fill="#E52520"/><path fill-rule="evenodd" clip-rule="evenodd" d="M85.632 130.64l-.936.858-1.843 2.132-.548 1.695.787 2.427.985 1.266.62.563.076.077-.035.106-.626 1.779-.007.021-.007.021-.858 1.302 3.517 5.93 2.448-1.471.042-.021h.042l3.109-.105 3.418-2.061-.71-2.005-3.348-4.291-1.66-.724-.028-.014-.028-.022-1.273-1.378-.092-.106.084-.112.929-1.245.394-1.569-.774-.774-1.68 1.379-.127.105-.106-.119-1.597-1.695-.035-.043-.007-.063-.126-1.843z" fill="#E52520"/><path fill-rule="evenodd" clip-rule="evenodd" d="M90.165 133.292l.225.225.07.07-.02.092-.422 1.695-.015.035-.02.028-.866 1.161 1.147 1.245 1.667.725.042.021.02.035 3.391 4.34.021.028.007.021.725 2.019 1.104-.218.802-1.154.042-.07h.084l2.047-.162.078-.007.056.056.802.753 1.287-.731.373-4.467-2.026-1.112-.084-.042v-.098l-.106-1.836-.935-.837-1.492.499-.07.021-.063-.035-4.938-2.624-2.933.324z" fill="#E52520"/><path fill-rule="evenodd" clip-rule="evenodd" d="M95.188 133.686l2.947 1.569 1.512-.507.098-.028.07.063 1.063.957.049.042.007.07.098 1.815 2.04 1.119.099.056-.014.113-.373 4.473 6.077.057.745-.5.043-.028h.056l1.997.049.12.007.042.113.549 1.562 1.618.703.028.014.021.021 1.378 1.4 2.244-2.286.056-.049h.071l5.451.105.098-3.433v-.063l.042-.049 1.062-1.154-1.195-1.196-2.877.725-.063.014-.064-.035-4.346-2.547-.043-.021-.021-.042-2.623-4.832-3.953-2.392-6.049-.317-2.068 1.449-.042.029-.049.007-2.35.098-.696 1.09-.021.036-.035.021-2.8 1.702zm-9.074-5.066l2.595-1.174-.359-1.217-.007-.042.007-.036.795-4.403.028-.148.155.007 2.243.155 2.842-2.764-.373-3.285-2.778.014-.014.183-.253-.219-3.06-2.729-1.836.106-.063.007-.056-.042-2.195-1.794-.042-.035-.014-.057-.387-1.61-1.632-1.168-.604.464-.275 1.491-.028.155-.155-.014-4.037-.345h-.056l-.042-.042-1.358-1.189-3.939-1.027-.035-.007-.021-.021-2.082-1.505-.007-.007-.014-.007-1.097-1.105-1.062 1.063-.626 2.602-.007.028-.014.029-1.168 1.8-.035.064-.07.014-2.744.527.69 1.625 2.335 4.39 1.716 1.252 3.763.668.127.021.014.127.232 1.73 1.512 1.843.05.056-.008.071-.028.211 3.193-.444.436-.443.092-.084.112.056.669.338.105.049-.007.113-.091 1.491 3.77 2.42 3.559-.05h.084l.05.064 1.505 1.779z" fill="#E52520"/><path fill-rule="evenodd" clip-rule="evenodd" d="M102.928 129.064l-2.215-2.124-.078-.071.029-.098.858-3.109-1.653-2.026-1.428.077h-.056l-.05-.028-3.72-2.406-2.863 2.786-.056.049-.078-.007-2.166-.148-.767 4.207.394 1.322.042.148-.14.056-2.764 1.252-.268 1.337.14 2.117 1.436 1.541 1.68-1.386.12-.099.113.113.415.415 3.256-.359.057-.007.042.021 1.625.866 2.947-1.787.717-1.14.05-.07.084-.007 2.391-.099 1.906-1.336z" fill="#E52520"/><path fill-rule="evenodd" clip-rule="evenodd" d="M98.794 194.778l-.099 2.082 1.105 2.666 1.287-.274.914-.83 1.927.914-.091 1.288-.549 1.195.64.732 1.836.647.739 2.568.731 3.214-.823 2.019.823 1.653 2.117-1.28.915.274.64 1.372.464 2.392 1.371 1.005 1.66-1.097 1.555.092 2.94 1.28-.092 1.378.64 1.105 1.47.274 1.196-1.287 1.287 1.287 1.653 1.013-.373 2.568.373 1.47 1.653 1.836 1.372.457 1.378-.823 1.105.366.822 1.653 3.398 1.104 1.47-1.104 1.47-2.111-2.596-5.683-.239-.162-.042-.035-.021-.056-.57-1.703-.035-.112.098-.071 1.407-1.104.345-1.02-.704-1.512-3.636-1.119-1.695.45-.879 2.069-.049.112-.12-.014-2.202-.211-.063-.007-.042-.042-1.998-2.005-3.699-.844-.078-.014-.042-.071-.802-1.554-.056-.113.084-.084 1.442-1.541-.907-.956-.049-.056.007-.071.049-.964.007-.119.12-.035 1.329-.394.141-2.265-1.906.098-.922.619-.232.148-.035-.274-.324-2.68-.014-.134.127-.042.858-.338.098-1.59-.865-.963-.042-.05v-.07l.106-3.742-1.041-1.456-.028-.042v-5.058l-1.006-2.216-.021-.056.014-.049.464-2.005-1.329-1.491-.057.232v.007l-.682 2.265-.007.014-.007.014-.528.999-.021.049-.042.021-3.903 2.188-.978 1.801-.035.056-.064.021-2.679.844h-.029l-1.371.204-2.75 2.392-.042.035-.057.007-3.974.309-.105.141z" fill="#EEE"/><path fill-rule="evenodd" clip-rule="evenodd" d="M79.5 193.174l1.752 1.667-.183 1.836-.457 1.47 1.005 1.836 2.026-.921 1.006-2.019 1.196-1.28 2.848.548 1.555-1.287 1.104-.091.83.64 2.841-.183 2.11-.549 1.421-.316.085-.113.049-1.245-.148-1.055-1.4-2.012-.035-.056.007-.056.204-2.462-1.582-1.998-.028-.028-.007-.035-.577-2.266-.007-.014v-.014l-.099-1.308-1.308-.436-.02-.007h-.008l-3.897-2.11-.084-.043v-.098l-.05-2.124-3.811-.662-.028-.007-.029-.014-4.051-2.363-.084-.05v-1.42l-.563-.992-1.962-.204-.085-.007-.042-.071-2.884-4.537-3.833 1.977-.021.014-.028.007-2.216.38-.176 2.785v.071l-.056.049-.612.549.176 2.215 1.153 1.506 1.724.358.049.015.035.035 3.102 3.003.049.05v2.391l-.042.049-1.372 1.555-.077 1.463 1.104.078 1.28-.549.225-.099.007.254.092 2.483.78 1.125 1.808.366.14.028v.134l.1 4.164z" fill="#E52520"/><path fill-rule="evenodd" clip-rule="evenodd" d="M95.363 181.849l.092 1.288.57 2.208 1.603 2.019.042.056v.071l-.21 2.462 1.385 2.005.028.028v.042l.162 1.104v.028l-.042 1.126 3.805-.296 2.743-2.384.035-.035.049-.007 1.407-.204 2.602-.816.971-1.787.021-.042.042-.021 3.904-2.188.492-.936.676-2.243.246-1.027-1.941-2.814-.83-.739-.894.612-.028.014-.035.007-.788.162-.112.021-.064-.091-1.582-2.272-.478.351-1.984 2.097-.021.021-.021.007-1.154.689-.063.035-.07-.021-1.47-.366-.043-.014-.028-.028-2.25-1.99-1.527-1.112-1.406.148-2.343.309-.928 1.316-.042.577.745.372.113.057-.021.119-.267 1.527-.015.091-.084.042-.992.422z" fill="#E52520"/><path fill-rule="evenodd" clip-rule="evenodd" d="M89.984 176.974l.05 2.082 3.79 2.054 1.344.444.964-.408.225-1.309-.732-.366-.098-.049.007-.112.05-.739.006-.049.028-.035 1-1.421.041-.064.078-.007 2.42-.316 1.469-.155.071-.014.049.042 1.582 1.161.007.007 2.23 1.969 1.372.345 1.076-.64 1.983-2.082.007-.014.014-.007.486-.366-1.463-1.808-.092-.112.092-.113.64-.731-.141-1.569-2.961-.204-.078-.007-.049-.063-1.688-2.406-2.124-.099-.105-.007-.043-.098-.78-1.927-2.322-2.765-.316.387-.415 2.061-.007.035-.021.028-.52.788-.07.113-.128-.05-3.566-1.231v3.771l-.042.049-.76.858.683 1.316.035.063-.028.07-.317.894-.014.035-.028.035-2.89 2.736z" fill="#E52520"/><path fill-rule="evenodd" clip-rule="evenodd" d="M82.239 157.067l-1.027.049h-.035l-.029-.014-1.139-.394-1.962 2.328-.43 2.497-.042 3.785v.056l-.035.042-.626.866-.02.035-.036.021-.436.225 2.82 4.439 1.963.204.091.007.042.077.633 1.104.022.043v1.315l3.938 2.3 3.834.668 2.848-2.701.282-.788-.704-1.357-.056-.106.077-.084.802-.901v-3.721l-1.364-.091-.106-.007-.042-.092-.957-2.075-2.201-.394-.732.634-.154.126-.099-.169-1.371-2.265-.022-.035v-.035l-.197-2.525h-2.434l-.041-.12-1.055-2.947z" fill="#E52520"/><path fill-rule="evenodd" clip-rule="evenodd" d="M87.88 152.544l-1.85 1.309-3.468 3.095 1.013 2.842h2.511l.007.154.211 2.645 1.238 2.054.64-.548.064-.057.077.014 2.363.422.092.015.035.084.956 2.061 1.245.091v-.063l.226.085 3.664 1.266.436-.647.408-2.076.007-.035.028-.035.471-.57.76-1.266.042-.907-1.013-.577-.07-.042-.014-.085-.148-1.069-.619-.352-.337.542-.05.077h-.09l-2.47.106-.274.682-.05.127-.133-.021-1.266-.211-.084-.014-.035-.071-1.316-2.476-.014-.028-.007-.035-.359-3.623-2.827-2.863zm11.52 9.926l-.05.97v.042l-.02.036-.732 1.21 2.398 2.855.014.022.014.028.331.83 1.772-.514h.014l.014-.007 2.343-.295.246-1.815.007-.085.077-.042 1.21-.682.021-.014.021-.007 2.413-.598.246-2.019-.661-3.552-4.586-1.484-2.631.745-.253 2.723-.007.077-.063.049-2.138 1.527z" fill="#E52520"/><path fill-rule="evenodd" clip-rule="evenodd" d="M86.902 149.119l.676 1.843.464 1.266 2.947 2.982.042.042.007.064.366 3.643 1.259 2.371 1.048.176.26-.661.042-.106h.113l2.483-.105.373-.605.09-.141.142.084.837.472.077.042.014.084.14 1.07.943.541 2.054-1.47.26-2.764.007-.12.113-.028 2.666-.753.126-3.988.007-.155.155-.007 2.412-.106 1.295-1.041.098-.07.099.063 2.595 1.625 2.054-2.87.098-.14.141.105 2.434 1.759 1.695-.746.745-.879-1.442-1.885-2.975-3.018-1.653-.725-.07-.028-.021-.07-.542-1.519-1.821-.05-.746.493-.042.028h-.057l-6.266-.049-1.428.816-.113.063-.091-.085-.844-.787-1.892.14-.795 1.147-.042.056-.064.014-1.287.253-3.552 2.146-.035.021h-.05l-3.108.105-2.44 1.457z" fill="#E52520"/><path fill-rule="evenodd" clip-rule="evenodd" d="M111.005 153.705l-2.567-1.611-1.245.992-.042.035-.056.007-2.307.099-.12 3.819 4.607 1.492.098.028.022.098.682 3.686.007.028v.021l-.232 1.871 1.245-.492.014-.007h.021l3.861-.535.035-.007.036.014 2.736.859.056.014.035.056.858 1.428 1.393-1.301-.099-3.053-.619-1.499-1.87-2.082-4.818-.844-.043-.007-.035-.028-1.125-.914-.049-.036-.015-.056-.464-2.075z" fill="#E52520"/><path fill-rule="evenodd" clip-rule="evenodd" d="M120.152 164.756l-1.322 1.238-.155.141-.105-.176-.936-1.554-2.63-.823-3.798.527-1.4.549v.021l-.113.021-2.504.633-1.118.626-.246 1.864-.021.127-.127.021-2.462.309-1.723.5.282.696 2.096.099.084.007.049.063 1.688 2.406 3.025.204.147.014.014.148.155 1.786.007.071-.049.056-.591.682 1.386 1.709.014-.007.098.141 1.618 2.328.647-.126.971-.668.105-.071.106.085.942.844.014.014.014.014 1.998 2.891.042.063-.014.078-.112.464 1.54 1.737.063.064-.021.084-.471 2.033.949 2.103h.422l.598-1.35.753-1.66.042-.106.12.007 1.287.056h.042l.035.021 1.688 1.042.401-.563-.302-1.857-1.189-1.196-.063-.056.014-.085.267-1.878.021-.162.169.014 3.123.373 2.546-.816.331-2.082-.901-.134-.07-.007-.035-.049-.591-.696-.12-.141.148-.112 1.337-.971.07-.457-1.168-.134-.119-.021-.021-.113-.162-.752-.014-.064.028-.056.675-1.21-.429-.323-2.265 1.231-.056.028-.056-.007-2.68-.542-.07-.014-.043-.063-1.125-1.822-.014-.021v-.014l-.703-2.195v-.028l-.007-.028-.05-5.023z" fill="#E52520"/><path fill-rule="evenodd" clip-rule="evenodd" d="M120.906 170.883l.324 1.02 1.076 1.744 2.546.507 2.3-1.252.099-.057.084.064.64.485.12.091-.071.127-.717 1.287.119.563 1.217.148.183.021-.028.176-.113.696-.007.071-.056.042-1.245.907.429.507.992.147h1.583l1.61-1.456.056-3.672v-.183l.176.015 1.477.098 1.527-1.681.956-2.49.007-.028.028-.029 1.477-1.582 1.71-4.404-.866-.675-.014-.007-.007-.014-1.012-1.161-1.351.254-.084.014-.064-.057-1.772-1.674-2.764-.098-.05.956v.014l-.161 1.337-.007.07-.05.042-1.983 1.661-.084.07-.099-.049-1.575-.732-1.224-.098-1.252 4.53-.028.105-.113.014-2.687.415-1.252 3.201z" fill="#EEE"/><path fill-rule="evenodd" clip-rule="evenodd" d="M132.225 176.967l-1.667 1.513-.049.042h-1.583l-.351 2.216-.015.105-.098.028-2.68.858-.035.014-.035-.007-2.996-.358-.233 1.632 1.168 1.167.042.035.007.064.324 1.976.007.071-.035.056-.542.753-.091.126-.134-.084-1.787-1.097-1.125-.05-.703 1.555-.64 1.449-.05.098h-.576v4.812l1.034 1.456.035.049v.056l-.106 3.736.865.963.05.057-.007.07-.106 1.765-.007.113-.105.042-.837.324.274 2.272.731-.493.036-.021h.049l2.145-.112.19-.007-.014.19-.162 2.574-.007.113-.112.042-1.33.387-.042.774.964 1.02.112.112-.112.12-1.47 1.575.717 1.372 3.671.844.05.007.028.035 1.997 1.998 2.005.19.865-2.026.035-.077.078-.021 1.716-.45.246-1.548.218-1.611.014-.119.113-.022 2.194-.513.246-1.759.007-.028.021-.035 1.815-3.102.028-.042.042-.021 3.053-1.717.077-.042.085.042 1.512.781h.746l.548-1.962.028-.092.092-.028 1.519-.471.844-.669-1.175-1.223-.689.323-1.125.591-.063.028-.071-.021-4.874-1.604-.028-.014-.021-.021-1.126-.907-.035-.029-.014-.035-1.287-2.891-.028-.063.021-.063.591-1.717.021-.056.056-.035 2.3-1.393.049-.028.057.007 1.28.105.077.007.049.064 1.02 1.336.028.043v.056l.057 2.223.921.745 1.196-.548.042-.022.042.007 1.125.106.05.007.035.028.752.535.007.007.008.007 1.73 1.681.809-.45.569-1.147-1.055-1.414-.028-.035-.007-.042-.162-1.126-.007-.056.028-.049 1.112-2.061.239-1.674-.907-.141h-.022l-.021-.007-3.158-1.4-.021-.007-.021-.014-1.336-1.069-.042-.035-.015-.049-.485-1.506-1.294.338-.113.028-.063-.091-.591-.809-.028-.036-.007-.035-.211-1.4-.19-.844-1.449-.351-.119-.028-.014-.127-.148-1.885-3.383-.155-.162-.007v-2.666l-1.477.049zm10.421-29.058l-2.264 1.034-.064.028-.063-.021-6.436-2.483-2.166 2.434-.106.12-.126-.099-1.027-.816-.063-.056v-3.932l-.528-1.259-.042-.099.07-.084 5.149-5.754-.211-2.49-1.498-1.815-2.026.323-2.919 1.907-.049.035-.049-.007-2.61-.106-.366.915 1.85 1.737.127.12-.127.126-2.265 2.343h-.007l-1.118 1.224-.106 3.538v.169h-.168l-5.543-.106-2.201 2.237 1.385 1.407v.007l.014.007 1.534 2.005.084.105-.084.106-.858 1.02-.029.028-.035.014-1.821.809-.092.035-.077-.056-2.378-1.724-1.997 2.8.45 2.012 1.041.844 4.832.851.063.007.036.049 1.927 2.139.021.021.014.028.64 1.555.014.028v.035l.106 3.158.007.078h-.007l.056 5.31.197.612 1.132-2.898.035-.091.099-.014 2.68-.408 1.252-4.558.042-.134.133.007 1.4.113h.028l.028.014 1.506.703 1.849-1.547.155-1.267.049-1.118.007-.169.169.007 3.004.106h.063l.049.049 1.758 1.653 1.358-.253.098-.021.064.077 1.055 1.217.83.647 1.414-1.59 1.097-1.484-1.252-1.097-.057-.05v-1.983l.106-.042 4.755-2.005-.162-2.561-2.835-3.756zm106.152-51.083l1.28.14.232-.85-.851-.95-1.041.33.38 1.33zm4.073 6.584l1.512.57 1.569-.289-.668-2.314-1.892 1.041-.521.992z" fill="#EEE"/><path fill-rule="evenodd" clip-rule="evenodd" d="M256.447 104.564l-1.85.113-.921 3.306-3.031-2.758-.823 2.849 3.214 3.489.183 3.025-5.88-5.234-.183-3.306 2.483-3.025.365-4.867-1.012.457-1.189 3.306-1.843 1.653-1.927.549-1.836 2.757.092 7.253-4.495 7.069.274 4.319h4.593l3.763 4.495v4.319l-2.665 3.214.738 1.471 2.11 1.188-3.946.922-1.104-4.136 2.94-5.142-1.287-3.855-4.502-.64-2.475 2.384-.275 5.417-4.135 4.227-3.763 1.379-2.568 2.751-8.63-5.325v-2.568l5.782 2.659 3.031-1.196 4.867-3.116 3.306-6.612-.555-3.581 5.605-13.315.64-2.294-.64-3.031 3.672-3.489.731-4.868-2.848-3.763 2.926-.38-.429-3.545-2.898-.218-.218 2.581.619 1.562-1.836-.739-2.75 2.117-3.306 4.221-2.574 2.483-3.855.915-2.018 1.927 2.018 2.666-2.201 3.946-3.032.922-.091 1.371 2.666 2.758-.922 2.567.457 1.653 1.013 1.47-3.397 3.124-1.104-1.745-.915-3.946-3.587-5.754-2.053 1.709 1.202 2.146.049.084-.049.084-2.511 4.467.971 3.194.021.07-.042.07-1.562 2.406-.028.049-.056.021-2.511.838-1.667 1.948-.049.056h-.071l-6.323.282-3.214 2.659-.042.035h-.064l-2.068.035-.182 5.374-.007.049-.029.043-2.468 3.482 1.596 3.383 6.091.457.05.007.042.028 2.905 2.251.063.05.007.084.091 2.926 1.027.943 6.971.373h.077l.042.063 2.16 2.715.035.049v.057l.183 4.445 1.188 1.548.035.049v.063l-.084 2.913h4.67l.05.049 4.199 3.826 5.781 2.519.049.021.029.049 2.138 3.524 3.777 2.3 3.833.366 3.13-2.3.113-.084.105.091 2.856 2.673 2.933-.091h.091l.049.077 2.209 3.207 1.132.092.064.007.049.042 2.11 2.118 4.375-5.558.274-3.58.007-.049.021-.042 2.898-3.996-.534-3.215-3.299-2.476-.084-.063.014-.105.83-4.678-2.195-3.018-.042-.049.007-.07.696-6.5-2.757-3.58-.056-.071.028-.084 1.097-3.292-1.09-2.596-.077-.183.19-.049 3.551-.957 1.506-3.819-.788-4.495-3.714-.929-.063-.014-.035-.049-3.412-4.502-.049-.07.021-.078.683-2.729.021-.077.077-.035 5.106-2.287.514-2.046-2.159-4.587-.022-.042.007-.056.549-3.004.021-.119.12-.022 2.229-.372-2.089-4.432-.007-.028-.007-.028-.028-.366zM179.939 213.89l2.581-.042 2.11 3.581 1.703.267.056-.056.563-1.499.014-.035.028-.028 3.017-2.828.464-2.145.007-.049.036-.029 1.814-2.004.064-.078.091.021 2.279.458.584-.929.365-1.639-.626-1.695-1.927-.739-.084-.028-.021-.084-.289-1.055-.021-.085.057-.07.921-1.104.281-2.814.007-.056.042-.05 3.25-3.151.12-.113.119.113 1.815 1.822.098.098-.077.12-.999 1.407 1.266.232.042.007.029.021 3.284 2.349 2.511-.372.056-.007.057.028 2.349 1.315 2.293.092 3.095-2.125-5.536-4.15-.035-.028-.021-.035-2.673-5.255v-.007l-1.969-4.41-1.548-.366h-.007l-.014-.007-3.249-1.337-.028-.007-.021-.028-1.632-1.54-.478 1.287-.043.12-.126-.007-2.589-.092-.619.704-.021.021-.028.014-1.625.858-.049.028-.063-.007-1.259-.274-.795.619-.049.042h-1.716l-.036-.014-2.046-.894-.887 1.675-.035.07-.084.014-2.905.57-1.871 3.235-.049.085h-.099l-5.183-.176-1.407 2.99.084 2.912v.126l-.126.043-1.379.379-.471 2.308 1.174 2.722.007.014.007.014.479 1.801 2.18.668.035.007.028.028 2.019 1.829.056.049v.071l.064 1.885 2.968 2.596.049.049.007.063.19 1.702v.014z" fill="#EEE"/><path fill-rule="evenodd" clip-rule="evenodd" d="M155.41 210.717l5.17 1.203 2.94 1.836 1.744-1.378 2.567 1.378 8.631 1.653 3.137-1.435.007-.07-.183-1.625-2.975-2.61-.057-.049-.007-.07-.056-1.885-1.941-1.752-2.23-.689-.091-.028-.028-.085-.5-1.885-1.196-2.764-.021-.05.014-.049.479-2.335-2.455-1.161-1.822.907-.119.057-.092-.106-1.477-1.913-3.179-1.104-3.622 1.104.197 1.02v.035l-.064 3.278v.084l-.07.05-4.916 3.679-.113 1.772 3.693 2.216.14.084-.077.148-1.428 2.539z" fill="#EEE"/><path fill-rule="evenodd" clip-rule="evenodd" d="M135.108 219.729l1.048-1.379 3.489-.281.274-2.476 1.653-.922 1.744.092 2.11 1.653 1.288-1.189-1.562-2.575-.731-2.567 1.744-1.836 1.561-.464 2.385 2.574 4.951.31v-.014l.007-.029.015-.028 1.371-2.448-3.643-2.18-.092-.056.007-.099.127-1.963.007-.077.063-.042 4.917-3.679.063-3.179-.429-2.258-1.315-1.26-.711.437-.063.035-.07-.014-1.259-.317-.043-.014-.028-.021-5.233-4.488-.907.232-.253 1.759-.007.028-.014.028-1.098 2.04.148 1.027 1.097 1.47.064.078-.043.098-.647 1.287-.021.042-.049.029-.964.534-.112.064-.085-.092-1.814-1.758-.704-.5-1.034-.098-1.244.569-.092.043-.084-.064-1.069-.858-.064-.049v-.078l-.056-2.25-.935-1.231-1.161-.099-2.201 1.33-.549 1.596 1.245 2.793 1.069.865 4.776 1.576 1.062-.556.007-.007.802-.373.112-.049.085.084 1.392 1.449.127.134-.148.12-1.013.802-.028.021-.028.007-1.463.457-.57 1.998-.035.126h-1.076l-.042-.021-1.47-.76-2.933 1.646-1.78 3.039-.267 1.843-.014.113-.113.028-2.187.506-.204 1.492v.007l-.239 1.512 3.615 1.104.078.029.028.07.759 1.639.028.056-.021.063-.38 1.14-.021.049-.035.028-1.357 1.063.492 1.484z" fill="#EEE"/><path fill-rule="evenodd" clip-rule="evenodd" d="M171.744 153.192l-.894 1.54-.647 1.471-.007.021-.007.014-2.954 3.904-.007.007-.007.014-4.424 4.333-.028.021-.021.014-3.728 1.695-.078 1.667 1.196 2.308.049.098-.07.085-1.618 1.871-.253 2.462-.007.049-.028.042-1.041 1.301-.049.064h-.078l-3.516.169-.493 2.215-.014.071-.056.035-1.477.957-.12.077-.098-.113-1.414-1.561-1.962 3.102-.043.07-.084.007-3.228.345-2.765 3.271.493 1.526 1.28 1.02 3.123 1.379 1.013.148 1.069-.268.091-.021.064.056 5.268 4.516 1.153.289.76-.471.112-.064.099.092 1.449 1.385.035.036.014.056.183.978 3.636-1.112.049-.014.057.021 3.277 1.133.05.014.035.042 1.428 1.843 1.765-.879.077-.042.071.035 2.595 1.238 1.287-.359-.084-2.821v-.042l.014-.035 1.477-3.123.049-.099h.113l5.191.169 1.8-3.109-1.329-1.998-.028-.049v-.063l.176-1.907v-.007l.506-3.453-3.552-2.28-.049-.035-.021-.049-.605-1.562-.035-.091.063-.077 2.033-2.455-.422-2.09-.697-3.735-.007-.07.042-.056 1.696-2.385-.078-2.771-1.962-4.692-3.341-1.97-.063-.035-.015-.077-.506-2.294-.928-.942z" fill="#EEE"/><path fill-rule="evenodd" clip-rule="evenodd" d="M194.602 133.13l-1.99.028-2.863 2.539-.042.043h-.064l-2.588.133-.098.007-.05-.084-.851-1.33-4.171 3.721-.668 2.399-.014.049-.035.036-4.41 3.932-4.832 8.286 1.02 1.041.035.035.014.05.499 2.265 3.32 1.962.049.028.021.049 1.998 4.777.014.028v.035l.084 2.863.008.056-.036.042-1.695 2.371.683 3.658.436 2.173.014.078-.057.063-2.018 2.441.555 1.414 3.595 2.314.091.056-.014.113-.521 3.559-.168 1.836 1.294 1.935 2.792-.542.915-1.745.077-.14.141.063 2.166.943h1.526l.816-.633.063-.05.078.014 1.273.275 1.54-.816.654-.739.05-.063.084.007 2.546.091.535-1.414.091-.239.183.176 1.794 1.695 3.2 1.323 1.611.373.084.021.035.077 2.005 4.481 2.651 5.219 5.606 4.207 3.088-1.766.359-1.892.014-.07.063-.043 1.878-1.216.049-.036.064.007 2.201.268 1.927-6.148.014-.049.042-.036 2.723-2.061.063-.056.084.028 2.905.844.028.007.021.014 3.897 2.596 5.95.099h.057l.042.028 4.129 3.031 4.965-2.856.092-.049.091.064 2.574 1.835 2.912-.365 3.187-1.372.576-1.484-3.622-2.082-.084-.05v-4.621l-2.153-2.153-1.16-.091-.078-.007-.049-.07-2.194-3.201-2.905.092h-.071l-.056-.05-2.799-2.623-3.074 2.265-.056.035-.063-.007-3.939-.373h-.035l-.036-.021-3.84-2.35-.042-.021-.021-.035-2.124-3.517-5.768-2.504-.021-.014-.021-.021-4.171-3.799h-4.888v-.176l.091-3.032-1.182-1.547-.028-.042-.007-.057-.183-4.445-2.075-2.61-6.956-.373h-.056l-.049-.042-1.126-1.034-.049-.049-.007-.07-.091-2.92-2.8-2.173-6.133-.465-.098-.007-.043-.084-1.688-3.566-.042-.092.056-.084 2.497-3.517.183-5.304z" fill="#EEE"/><path fill-rule="evenodd" clip-rule="evenodd" d="M74.92 94.18l-.83.662-.5 1.308.106 4.312v.127l-.12.035-3.185 1.027-.197 1.484-.014.134-.141.014-1.048.098-.281 1.049-.014.049-.036.028-.457.464 1.083 1.09 2.047 1.478 3.946 1.034.042.007.028.028 1.344 1.175 3.826.33.26-1.407.014-.063.056-.042.746-.577.099-.077.105.07 1.787 1.273.056.035.014.064.387 1.618 2.103 1.716 1.836-.113h.07l.05.05 2.869 2.553.133-1.315-.492-1.604-1.301-1.421-.092-.092.07-.112 1.239-1.92-.218-2.104-1.147-2.23-.028-.049.014-.056.31-1.562-1.084-.147-.12-.014-.027-.113-.253-1.034-1.949-.049-.098-.007-.05-.085-.576-1.041-.042-.077.042-.085.492-.935-.098-1.231-1.505-.5-.45.591-.057.078-.098-.007-1.041-.12h-.05l-.042-.042-1.04-.929-1.654.225-.112.014-.056-.105-.957-1.681-1.09-.52-1.885.942-.176.091-.063-.197-.5-1.59z" fill="#E52520"/><path fill-rule="evenodd" clip-rule="evenodd" d="M94.755 118.963l3.72 2.406 1.464-.077.084-.007.056.07 1.759 2.159.056.064-.021.084-.851 3.102 2.251 2.153 6.084.309.042.007.035.021 4.023 2.441.042.021.021.042 2.631 4.833 4.241 2.483 2.898-.724.099-.022.063.064 1.259 1.259 2.026-2.096-1.801-1.703-.084-.077.042-.113.457-1.132.042-.113.12.007 2.673.113 2.827-1.85v-1.963l-1.948-.977-.141-.064.056-.147.619-1.653-1.807-.598-1.196.534-.162.078-.063-.169-1.435-3.644-3.524-.105-.07-.007-.049-.057-2.258-2.588-2.138-1.351-.014-.007-.007-.014-2.047-1.927v-.007l-.007-.007-6.021-6.817-.049-.056.007-.077.457-3.405.007-.056.028-.035 2.216-2.533-1.456-.485-.12-.042v-2.448l-1.807.021-1.224 1.168-.05.049h-.07l-2.539-.113-.07-.007-.05-.049-1.188-1.252-1.14-.021-1.681.556-2.708 2.04-1.772 3.721-.056.105-.113-.007-2.954-.225-1.646.879-1.175 1.815 1.238 1.351.029.028.006.035.521 1.681.014.035-.007.029-.155 1.491 2.898-.021h.155l.014.154.394 3.44z" fill="#E52520"/><path fill-rule="evenodd" clip-rule="evenodd" d="M74.4 85.74l-1.78.204-2.842 2.202-1.653 2.293-3.214-.183-1.927 3.215-2.3.274-.091 2.483-3.398 2.202.183 3.215 1.379 1.744-1.562 1.928.373 1.561 2.202.549.457 2.3-.696 1.238.147.021 1.456-.38.063-.014.057.028.766.408 2.814-.541 1.111-1.717.633-2.623.007-.05.035-.028 1.766-1.772.31-1.119.034-.119.113-.008 1.034-.091.19-1.456.014-.113.105-.028 3.165-1.02-.105-4.22v-.035l.014-.028.528-1.38.014-.042.035-.028 1.02-.816 1.027-3.165-1.344-2.16-.02-.035v-.042l-.12-2.652z" fill="#EEE"/><path fill-rule="evenodd" clip-rule="evenodd" d="M91.816 81.239l-3.032.112-3.77 1.379-.182 3.032.365 1.379-1.097.914-.83-2.11-1.463-.092-2.3-2.209-2.842 1.843-1.927.219.12 2.623 1.357 2.188.042.07-.028.07-1.04 3.236.499 1.59 1.786-.893.07-.035.078.035 1.21.576.05.022.027.049.922 1.632 1.617-.218.078-.007.056.056 1.055.943.893.098.457-.612.078-.098.112.035 1.73.577.113.035.007.112.113 1.393.007.05-.021.041-.479.901.486.879 1.976.049.134.007.028.127.26 1.041 1.154.162.183.021-.036.176-.33 1.681 1.125 2.202.014.028v.028l.204 1.949 1.513-.809.042-.021.049.007 2.884.218 1.737-3.651.021-.035.035-.028 2.764-2.083.029-.014.02-.014 1.731-.577.028-.007h.028l2.42.057 1.266-1.013-2.335-3.053-1.498-.281-.099-.014-.035-.106-.711-2.35-.928.092-.162 1.42-.02.19-.184-.041-.752-.176-.07-.014-.043-.064-.563-.984-.738.218-.106 1.674-.014.197-.197-.043-1.04-.232-.078-.014-.035-.077-.59-1.231-2.892.056h-.091l-.056-.077-1.161-1.716h-2.813l-.057-.064-.745-.921-.092-.113.092-.105 4.691-5.677-.274-5.81zm40.451-11.432l.767-4.706 1.104 1.562-.457 3.306 1.371 2.934.373 4.867 1.927 2.94.457 3.032 7.161 4.312 4.41-.823 3.305-4.502.915-4.776-1.47-5.69.183-8.266-.915-3.032-2.3-3.672-.365-2.841 1.012-.648 1.379 1.928 1.372-.914-1.281-2.484-4.867-3.306-6.977-.64-1.379 1.013-3.488 2.019.091 2.75-2.384 3.862-4.685.092-1.561 1.962 3.425 4.565.049.064-.014.07-.541 2.715 2.834 1.414.043.021.028.05.478.822z" fill="#EEE"/><path fill-rule="evenodd" clip-rule="evenodd" d="M123.709 88.92l-.218-1.505.274-1.288-1.195-1.653 1.104-2.019 3.397-4.227 2.842-.915 1.653-2.849.626-4.129-.669-1.132-2.912-1.456-.112-.064.021-.126.556-2.765-3.327-4.431-3.911 4.924-2.019-.092-2.574 1.745-1.836-.092-.731 1.836-.83 1.562-1.47 1.097.83 1.562-1.013 1.013-3.397-.549-.915 3.208-.647 4.867-2.018.83-8.996-1.195-4.066.147.127 2.624 2.201-.436.029-.007.028.007 2.883.401.07.014.043.056 1.153 1.618.036.05v.056l-.057 2.026v.063l-.042.042-.992 1.16.106 2.252.007.014-.007.014-.288 1.97-.008.07-.056.042-1.463 1.125-.415 1.098.563 1.188.767.176.098-1.596.007-.12.12-.035.977-.288.127-.036.07.113.598 1.034.493.12.147-1.372.021-.14.134-.015 1.217-.112.133-.015.043.134.724 2.385 1.456.274.063.007.036.056 2.292 2.99.345-.943-.232-2.856v-.049l.021-.042 1.041-2.026.007-.021.021-.014 3.749-4.052.07-.07.092.02 2.194.522.078.02.035.064.689 1.273.028.05-.007.056-.344 2.201-.014.057-.036.042-1.617 1.554-2.736 3.088-.739 2.631 1.822-.021h.176v2.546l1.477.493 1.062-1.168.049-.056h1.414l.541-2.476.007-.042.036-.036 2.525-2.63-.619-1.027-.795-1.365-.035-.063.021-.07.562-2.04.015-.043.035-.035 2.454-2.462.218-1.308.036-.183.183.05 1.688.45 1.041.21 1.301-1.406.021-.022.028-.014.204-.098zm38.668 18.599l-3.39 4.368 1.182 1.829.056.092-.049.084-.76 1.421.549 2.321.028.12-.106.07-2.159 1.245-.091.057-.085-.057-2.792-1.793-2.673.112-.141.007-.035-.141-.436-1.983-6.738-5.184-.746 1.118 1.878 3.088.035.056-.021.064-.562 2.616-.014.05-.036.035-1.61 1.611.731 1.245.021.035v.042l.113 1.358.014.175-.176.015-2.645.105-2.074 2.736-.106 1.646 2.497 1.041 1.055-1.266.028-.042.049-.014 2.385-.795.14-.049.064.134 1.477 2.954.063.127-.105.084-5.508 4.375-.112 2.427v.077l-.064.05-1.927 1.477-.077.056-.092-.035-2.405-.985-1.73 1.407-5.121 5.719.507 1.196.014.035v3.834l.83.668 2.138-2.406.077-.084.113.042 6.471 2.497 2.258-1.034 1.273-3.137.049-.12.126.014 4.291.408.063.007.049.049 3.18 3.588 3.488 1.808 4.889.534 1.927-1.062.098-.056.092.077 5.275 4.326 3.25.458 5.866-10.052.014-.029.021-.014 4.389-3.918.668-2.405.014-.05.035-.035 4.361-3.883.155-.133.105.168.9 1.414 2.427-.126 2.87-2.54.049-.042h.063l4.403-.07 3.215-2.652.042-.042h.056l6.302-.282 1.653-1.927.028-.035.05-.014 2.489-.83 1.485-2.293-.971-3.187-.021-.07.035-.064 1.161-2.054-1.21-.225-.788 1.189-.056.07h-1.583l-1.934 1.801-.063.063-.092-.021-2.307-.548-1.772 2.047-.05.056-.07.007-5.24.422-.063.007-.049-.035-22.747-16.249-2.188.682-.028.014-.035-.007-9.826-1.055zm-34.732-24.966l.71.781.956-.64-.274-1.118-.731-.556-.57.78-.091.754zm68.292 2.561l1.181-.858v-1.927l-1.399-.324.218 3.109z" fill="#EEE"/><path fill-rule="evenodd" clip-rule="evenodd" d="M214.84 112.668l-1.745-3.222-4.592-4.952h-3.489l-.457 2.019-.092 3.025-2.483 1.47-1.378-.275-.915 1.379-1.744-1.379 2.019-1.836v-2.018l-6.52-.092-3.215-2.384-4.958.457-1.745-2.392 2.94-.274 1.562-3.032-3.946-.914-1.836 2.201-.921-1.653-10.101-2.476-1.28 1.288-1.47-1.38-5.324 3.124-2.757-2.666.83-2.385-.83-2.391 3.305-1.098 3.032 2.11 1.47-2.384-.099-4.319-4.037-4.41-1.196 4.319-5.507 3.58-.457 2.758-2.631 2.377 1.034 5.501 2.884 4.333 2.652.338.077.007.042.063 1.428 2.096 9.812 1.048 2.23-.696.084-.028.07.049 22.761 16.263 5.114-.415 1.793-2.075.071-.077.098.028 2.321.541 1.913-1.779.049-.043h1.534l.802-1.202.063-.092.112.021 1.435.261 1.168-2.076-1.224-2.187-.07-.12.105-.091 2.209-1.843z" fill="#EEE"/><path fill-rule="evenodd" clip-rule="evenodd" d="M206.768 103.15l-2.04.218-1.611-2.687.429-2.47 2.575-.64.752 2.786-.105 2.793zm-31.51-12.648l1.582 2.076 3.721.098.429-1.386-.232-2.075-1.976-2.145-2.835.992-.689 2.44zm27.657 2.772l.858-8.16.64-3.109 2.687-2.898 3.221-1.076 1.287-1.822-.752-2.258 2.363 1.506 2.145-.218.535-1.611 1.399.112.106-1.61 1.716.64.324-1.611 1.287 1.4.963-1.288.324-1.934 1.829 1.287 1.174-1.07 2.476.535 2.033-2.363 15.671-.324 3.763-2.04.429-2.785-1.611-1.934-3.756.963-.647 1.4-6.443-.542-2.785-2.356-2.469 1.393-2.469-1.077-3.115 2.04h-2.575l-1.287 1.077-1.716-1.83-.865 3.764-1.927.106-.219 1.498-4.825 1.505-1.723-.752-1.069 1.287 1.393 1.4-1.934 1.821-3.109-1.287-.429 2.364-2.258-.106-.106 1.822-3.116 1.61-1.927-.646-2.152 1.61-.106 2.364 2.04 2.04.106 3.116-1.928 1.927 1.499 3.328 1.723.218.105 1.505 1.935.43 1.287.64zm-48.934 1.836l-2.765 2.497-1.287-2.391 1.836-.366-2.293-4.312-3.489.549-3.488-1.196-4.319.647-2.384 5.965-1.745-1.013-2.482-5.782.372-4.502-4.044.464-1.097 3.855 1.744 2.11-1.653 2.202-2.666-1.47-.457-3.095-.084.035-1.337 1.456-.063.07-.098-.02-1.133-.226h-.014l-1.519-.408-.197 1.175-.007.056-.042.035-2.469 2.47-.535 1.934.76 1.301.682 1.133.064.112-.092.092-2.574 2.687-.556 2.567-.028.134h-1.54l-1.083 1.196-.007.007-2.343 2.673-.436 3.278 5.958 6.753 2.025 1.913 2.146 1.35.021.015.014.021 2.222 2.553 3.559.113.113.007.042.105 1.414 3.574 1.083-.493.063-.028.064.028 2.039.675.169.057-.063.169-.626 1.674 1.906.949.099.05v2.061l1.955-.31.098-.014.064.077 1.589 1.928.035.042v.056l.204 2.286 1.562-1.273.077-.063.099.042 2.405.985 1.794-1.372.105-2.42.007-.077.057-.049 5.458-4.34-1.351-2.694-2.194.731-1.105 1.323-.084.098-.112-.049-2.73-1.133-.112-.049.014-.12.113-1.814v-.057l.035-.042 2.152-2.835.049-.063.085-.007 2.546-.106-.099-1.146-.773-1.33-.071-.112.099-.092 1.667-1.674.541-2.49-1.892-3.123-.056-.091.056-.092.908-1.365.105-.147.141.105 6.928 5.339.049.042.014.057.422 1.906 2.582-.106.056-.007.042.029 2.757 1.765 1.956-1.132-.542-2.265-.014-.064.028-.056.753-1.386-1.196-1.85-.07-.098.077-.099 3.446-4.438-1.364-1.991-2.652-.338-.077-.007-.042-.063-2.954-4.431-.015-.029-.007-.035-.998-5.332zm91.812-62.668l1.139 1.07 1.569-1.352-.781-1.139-1.139.281-.788 1.14zm2.5.928l.851.71 1.498-.78.429-1.787-1.139-.281-1.639 2.138zm4.059-.217l1.498 1.357 2.989-1.498-.57-1.71-2.068-.85-1.779 1.49-.07 1.21zm3.207-3.201l1.28.64.858-.999-1.069-.999-1.069 1.358zm5.629-3.567l.429 1.358 1.28-.5-.5-1.638-1.209.78zm-4.278-3.347l.71.647.928-.717-1.35-1.28-.718.57.43.78zm-3.851.857l.218 1.07 1.42.921.859-1.28-.788-1.569-1.709.858zm-2.775 1.14l2.707 2.42-.358 2.068-2.701-.929-1.78-2.061 2.132-1.498zm7.556 7.766l.352 1.569 2.996-.07 1.21-1.998-.999-1.64-1.28 1.85-1.927-.492-.352.781zm-8.195 3.559l.787 1.14.711-.922-.711-1.21-.787.992zm-7.407-7.837l1.21 2.068 1.428-1.357-.718-1.71-1.92 1zm3.489-.639l.288 1.21.781-.57-.64-1.35-.429.71zm-1.282-6.768l.922 1.28.858-.85-1.428-1.288-.352.858zm-8.406-2.566l.422 1.709 1.287.998 1.85-.14 1.139.928.711-.858-1.421-1.28-1.28.387-2.708-1.745zm.352 4.346l-.141 1.499 1.35 1.35 1.358 1.71.429-.781-.359-1.64 1.85-.428 2.356.787 1.491-1.498-1.35-1.569-1.139-.428-1.21.928-1.639.211-.999.43-1.997-.57zm2.925 5.627l-.289 1 1.069.64.071-1.351-.851-.289zM28.074 73.085l6.21 13.428 3.862-2.011.338-7.386-1.85-2.856-.837 3.355-1.85-1.174-1.505-4.369-1.85 1.182-2.518-.169z" fill="#EEE"/><path fill-rule="evenodd" clip-rule="evenodd" d="M49.893 171.79l-.035.922-2.85-.092-1.096 1.653-1.47.183-1.745 3.123-2.94 1.105-2.11-3.124-4.959-.647-2.293 2.392 4.96 2.933-1.47 1.013-2.575-1.562-1.47 1.161.879 1.738h1.885l.056.063 2.167 2.68.07.084-.05.099-1.61 3.095 2.103 2.588.063.085-.049.098-.492.992-.12 2.061 1.231 1.513 1.147-1.309.077-.091.105.042 1.907.717.696-1.153.077-.127.134.057 1.533.633.106.042v2.434l1.807.844.099.049v2.356l.942 1.52 2.23-.232.718-1.323.049-.091h3.728l2.194-2.434-.113-1.196-2.025-.239-.148-.014-.007-.141-.127-1.737-1.885-2.638-.042-.07.021-.078 1-3.622-1.232-1.85-.105-.148.161-.092 2.68-1.533.113-.063.091.091.964.964 1.87-.113 1.077-2.166-.373-3.651-.014-.099.085-.056 2.848-1.857-.485-4.474-2.216-.112-1.61 1.111-.092.064-.098-.057-1.787-1.146-2.18-1.168z" fill="#E52520"/><path fill-rule="evenodd" clip-rule="evenodd" d="M69.063 198.984l3.102-1.02.457-2.391 2.666-1.47 2.841-.732 1.027-.31-.091-3.904-1.745-.351-.07-.014-.035-.057-.851-1.224-.028-.042v-.049l-.085-2.286-1.083.464-.042.021-.042-.007-1.316-.091-.168-.014.014-.169.091-1.688.007-.064.035-.042 1.365-1.547v-2.118l-3.01-2.926-1.738-.366-.063-.014-.035-.049-1.224-1.597-.028-.035-.007-.049-.176-2.244-2.525-.901-.064-.021-.035-.063-1.062-2.124-1.364.429-.036.007-.035-.007-2.651-.352-.26 1.808-.008.077-.07.043-2.511 1.533.5 4.614.006.099-.084.063-2.849 1.85.373 3.595.007.049-.02.049-1.147 2.293-.05.092-.098.007-2.04.126h-.077l-.05-.056-.928-.921-2.405 1.371 1.167 1.759.05.063-.022.078-.998 3.622 1.821 2.547 4.509.492.464-1.28.042-.12.134.007 1.526.127.127.014.028.127.485 2.3 1.73.232 1.534-.971.063-.035.063.014 5.451 1.126.078.014.035.07 1.428 2.539z" fill="#E52520"/><path fill-rule="evenodd" clip-rule="evenodd" d="M55.689 219.961l2.884 1.048 7.715-.183-.647-3.032 1.928-.366 1.47-8.265-1.288-1.745-1.927-.457.275-1.561 2.391-2.202-2.131-2.954 1.027-.535 1.35-.598-1.364-2.434-5.304-1.09-1.413.886.97 2.547.021.049-.014.049-1.005 4.783 1.244 2.244.036.064-.021.07-1.26 3.658.5 2.244.05.232-.24-.021-2.244-.254-1.188.521-.134.056-.077-.119-.816-1.217-.725.872 1.182 2.814.05.119-.1.078-1.596 1.315-.014.014-.014.007-1.428.753 1.857 2.61z" fill="#EEE"/><path fill-rule="evenodd" clip-rule="evenodd" d="M49.654 221.135l2.87.057 2.736-1.259-1.808-2.54-.113-.162.17-.091 1.582-.837 1.484-1.224-1.168-2.793-.042-.098.063-.077.943-1.126.148-.176.126.19.858 1.287 1.097-.478.043-.021.042.007 2.06.232-.456-2.068-.014-.042.02-.049 1.245-3.623-1.237-2.23-.028-.056.014-.063 1.005-4.798-.963-2.532-1.808-.246-.127-.014-.02-.12-.486-2.3-1.273-.106-.464 1.281-.05.126-.133-.014-4.516-.485.106 1.435 2.026.239.14.021.014.134.127 1.406.007.071-.05.056-2.3 2.553-.049.057h-3.671l-.718 1.315-.042.078-.091.007-2.42.253-.112.014-.056-.092-1.02-1.66-.021-.042v-2.237l-1.815-.844-.099-.042v-2.42l-1.287-.534-.69 1.146-.077.12-.133-.05-1.927-.724-1.105 1.273 1.252 1.527 1.302-.233.105-.021.063.092.859 1.224 1.73.492.084.021.028.085.76 2.026 1.78 3.045.028.057-.008.063-.506 2.997 1.885 3.397.014.021.007.021.64 2.68v.043l-.12 2.729 2.877 2.884.022.021.02.035.64 1.709z" fill="#EEE"/><path fill-rule="evenodd" clip-rule="evenodd" d="M31.915 230.68l-.977.978.182 2.758 2.575 3.671-.183 3.855-.464 1.836 2.3 2.849 1.097-.457.647-1.105 1.372.732 1.47.464 1.744-1.104v-4.868l1.196-6.886 4.41-4.221.365-4.41-.457-1.928 2.131-1.611-.626-1.646-2.799-2.806-1.034.802-.042.035h-.064l-3.003-.127-1.625 1.28.577 1.154.07.141-.133.077-1.449.901 1.843 2.623 1.97.373.105.021.028.106.64 2.419.035.148-.134.056-1.533.634-.035.021-.042-.007-1.548-.12-1.983 3.855-.099.19-.169-.141-1.526-1.294-.914 1.027-.056.063-.085-.007-3.777-.331z" fill="#EEE"/><path fill-rule="evenodd" clip-rule="evenodd" d="M31.117 227.241l.654 1.758.268 1.344 3.6.317.964-1.084.113-.126.127.112 1.49 1.266 1.949-3.763.05-.105.112.014 1.617.119 1.358-.563-.577-2.173-1.934-.366-.07-.007-.035-.063-2.631-3.757-2.047-.119-.978.436 1.112 4.192.035.141-.127.056-5.05 2.371z" fill="#EEE"/><path fill-rule="evenodd" clip-rule="evenodd" d="M29.895 225.475l.042.767.963.717 4.994-2.335-1.062-4.002-.9.393-.858 2.737-.021.049-.043.028-1.273 1.02-.02.021-.029.007-1.793.598z" fill="#EEE"/><path fill-rule="evenodd" clip-rule="evenodd" d="M26.035 219.693l.134 3.151 3.678 1.745.028.534 1.674-.555 1.21-.971.872-2.75.022-.078.077-.028 2.047-.914-1.611-1.295-.598 1.041-.063.113-.127-.035-4.157-1.006-3.116.999-.07.049z" fill="#EEE"/><path fill-rule="evenodd" clip-rule="evenodd" d="M23.316 213.362l1.935 2.139.091 2.933.584.915.014-.014.028-.008 3.186-1.019.05-.015.042.007 4.086.992 1.301-2.244-.576-1.85h-1.983l-.05-.049-3.777-3.397-2.687-.127-2.244 1.737z" fill="#EEE"/><path fill-rule="evenodd" clip-rule="evenodd" d="M18.586 204.562l2.25 3.777v2.293l2.244 2.483 2.322-1.793.049-.042h.063l2.617.119-.12-2.743v-.099l.077-.049 1.4-.936-2.005-3.777-.675 1.358-.056.105-.12-.014-2.42-.253-.076-.007-.043-.063-1.33-1.808-4.177 1.449z" fill="#EEE"/><path fill-rule="evenodd" clip-rule="evenodd" d="M14.318 180.428l.183 3.214-1.013 1.196.457 1.379 1.47 1.104-.09 2.293.822 3.672-.274 3.398-.64 5.599.738 1.013 1.47-.647.964 1.618 4.368-1.513.12-.042.077.099 1.357 1.849 2.23.233 1.603-3.208.029-.056.056-.021 1.716-.69-.647-.97-.056-.085.049-.091.956-1.794-1.048-.929-.133-.119.126-.127 1.231-1.231.12-1.083.007-.098.091-.043 1.4-.64.14-.063.078.134.921 1.61 1.19-.97.119-2.097v-.035l.014-.035.464-.921-2.096-2.596-.07-.084.049-.099 1.61-3.088-2.046-2.525h-1.934l-.05-.092-1.111-2.201-3.362-3.053-.457 4.41-1.836-.921-3.489.183-1.287 1.653-2.574-4.312-2.012 1.822zm3.454 20.202l-.127-2.167-.007-.161-.007-.162.162-.014.162-.014 2.243-.225v-1.52l.07-.049.071-.049 2.532-1.871-1.61-1.006-.022-.014-.02-.014-.022-.022-.021-.021-2.04-2.419-.049-.057-.05-.056.008-.077.007-.078.253-1.913.028-.211.028-.204.197.07.197.071 1.787.64.056.021.056.021.035.049.029.049 1.427 2.265h2.307l.007.162.008.162.12 2.019L27 195.017l.063.056.063.056-.007.085v.084l-.126 2.807v.112l-.028.042-.035.043-2.04 2.68-.253.33-.254.331-.056-.415-.05-.415-.288-2.322-3.2 3.532-.084.091-.085.092-.12-.085-.112-.056-2.42-1.147-.09-.042-.092-.042-.007-.099-.007-.105z" fill="#EEE"/><path fill-rule="evenodd" clip-rule="evenodd" d="M34.544 194.735l-1.273 1.034-.154.127-.099-.169-.95-1.653-1.167.535-.12 1.048-.006.063-.043.042-1.146 1.147 1.013.9.098.085-.063.119-.97 1.822.71 1.069.12.176-.198.078-1.857.738-.76 1.52 2.195 4.136.07.133-.126.085-1.456.964.12 2.771 3.727 3.348h2.103l.035.12.64 2.04.022.07-.042.071-.627 1.083 1.822 1.463 2.11.127.085.007.049.07.598.858 1.336-.823-.57-1.139-.063-.127.113-.084 1.78-1.4.048-.043.064.008 3.003.119 1.034-.802.12-2.708-.626-2.631-1.9-3.418-.028-.057.007-.056.5-3.004-1.752-3.003-.007-.014-.007-.014-.731-1.956-1.702-.492-.064-.014-.035-.05-.83-1.188-1.294.239-.098.014-.064-.077-2.694-3.307zm-16.56 3.707l.127 2.174 2.427 1.147 3.446-3.806.246-.274.05.366.337 2.694 2.04-2.68.126-2.807-1.47-1.224-.063-.049v-.078l-.127-2.089h-2.166l-.05-.084-1.476-2.343-1.787-.633-.26 1.907 2.047 2.426 1.822 1.14.218.134-.204.147-2.73 2.019v1.66l-.154.014-2.399.239zm286.662 67.17l7.786 3.138 7.16 1.66 1.47 5.69 5.233 2.751 3.672-.092 5.233-3.116 4.037 1.28 4.227-.274 1.097 1.927 2.434.106.795-2.947.021-.071.063-.035 2.335-1.217-2.504-2.729-.119-.134.141-.112 2.433-1.97-.921-2.778-.078-.225h4.875l2.834-2.371.064-.042.07.007 2.546.345 4.755-6.296.049-.063.077-.007 3.039-.233.921-1.491.028-.049.05-.021 2.609-1.062 1.984-2.455.225-2.617-2.082-1.386-.071-.049v-2.708l.064-.049 4.536-3.461 1.548-3.574.028-.07.07-.021 3.974-1.4-.232-3.172-2.434-2.209-2.722-.471-.098-.022-.035-.091-2.272-6.823-1.414-1.294-.105-.099.084-.12 1.407-1.997-.197-1.956-1.667 1.878-.063.071-.092-.014-1.407-.218-.808 3.095-.022.098-.098.028-7.582 2.04-.113.035-.07-.098-1.273-1.731h-1.759l-.035-.021-1.639-.879-.893 2.117-.028.071-.077.028-3.609 1.203-.056.014-.056-.014-1.864-.662-.436 2.097-.028.119-.12.014-3.671.465.316 1.807 2.237 1.886.133.105-.112.134-1.885 2.244-.352 3.397 1.217 2.863.197-.57.746-4.67v-.029l.021-.028 1.216-2.159.057-.099.112.014 1.59.19.134.014.014.127.288 1.78v.056l-.753 4.199.282 4.087.647 2.237.021.049-.021.057-.844 2.159-.014.035-.028.029-1.295 1.195-.422.76.451 1.428.021.056-.028.057-.563 1.406-.028.085-.085.021-1.378.345-.085 1.561-.007.042-.021.036-1.786 2.905-.029.056-.063.021-2.666.823-1.744 2.392-.063.084-.092-.007-2.004-.176-.528 3.032-.014.049-.028.035-1.498 1.689-.028.028-.035.014-4.804 2.124-.633 2.174-.021.084-.085.028-3.095 1.034-.176.057-.042-.176-.443-1.773-3.27-.633-.127-.028-.014-.12-.274-2.391-2.258-2.898h-3.074l-.049-.036-6.281-4.973-.014-.014-.014-.021-1.963-2.673-3.144 2.244-.049.035h-.056l-1.794-.042.092.394.021.091-.071.071-.963.963.352 1.407.021.085-.057.063-1.329 1.512 1.189 2.3z" fill="#EEE"/><path fill-rule="evenodd" clip-rule="evenodd" d="M260.226 278.893l11.817-4.445 4.22-.275.731 1.098 6.338 1.378.457 2.849 2.391 1.189 6.703.739 2.659.365 1.379 1.288 2.11-.739 1.927-1.653 1.378-3.391-2.293-2.757.275-4.22 1.47-.465.091-1.927 1.927-.092.542-2.068-1.245-2.405-.049-.106.077-.084 1.344-1.527-.352-1.414-.021-.091.063-.07.964-.964-.225-.985-2.764.176-.057.007-.049-.035-6.914-4.826-.415 1.907-.028.126-.127.007-8.405.746-.534 2.223-.022.098-.098.028-1.639.429.169 1.541.007.105-.084.057-2.272 1.456-.092 1.505-.007.127-.119.028-1.555.366-2.785 2.314-.056.049-.071-.007-6.471-.844-.042-.007-.035-.021-3.974-2.8-1.829-.14-1.181 3.116-.042.105-.106.007-4.6.296.288 3.172 2.758 4.896.07.134-.127.091-1.913 1.323.443 3.017z" fill="#EEE"/><path fill-rule="evenodd" clip-rule="evenodd" d="M234.715 269.544l.323 3.159 2.94 1.653.092 3.123 2.94.64 1.196 1.47 3.305-1.744.64 2.293 2.111 3.123 3.305.366 1.006-2.202 4.41-.183 2.919-2.173-.478-3.25-.014-.106.091-.063 1.871-1.294-2.694-4.791-.021-.028v-.035l-.281-3.081-2.37 1.815-.134.106-.106-.134-2.152-2.772-.049-.063.021-.077.753-3.306-1.21-1.379-3.672-.106v.05l-.133.028-2.307.464-.078.014-.063-.049-1.906-1.498-.127 1.533-.007.042-.021.035-1.85 2.772-.056.084-.098-.007-3.348-.302-2.687.893-1.083 1.491 1.666.837.071.036.021.077.464 1.998.042.183-.19.021-3.052.337zm19.856-7.801l2.032-.731 1.499-.746 2.525-2.525-.577-1.59-.021-.049.014-.049.45-1.808-.605-2.42-.021-.084.049-.064 1.674-2.131.858-2.582-2.461-.872-.085-.028-.028-.084-.464-1.541-.028-.084.049-.071 1.941-2.539-1.041-2.525-.021-.049.014-.05.464-1.997.022-.085.077-.035 2.588-1.217 1.28-1.273-2.715-5.276-.028-.056.014-.063.394-1.829-2.926 1.252-.07.028-.07-.028-3.806-1.674-4.353.598-1.653 1.948-.05.063h-.077l-4.473-.021-.092 12.05 1.625-.211.169-.021.021.169.302 2.405 2.272 2.42.028.028.014.028.753 2.104 2.11 1.505.148.105-.12.141-1.596 1.885 1.287 1.428.063.071-.021.091-.612 2.462-.014.063-.056.035-1.618 1.035-.134 2.884 3.735.112h.078l.049.056 1.238 1.442z" fill="#EEE"/><path fill-rule="evenodd" clip-rule="evenodd" d="M211.512 242.231l4.431 21.292 2.384-.372 1.66-2.385 1.555.64.464 2.483 5.05 2.758 3.946-1.471 2.11.915 1.512 3.123 2.912-.338-.401-1.737-1.779-.886-.176-.092.112-.162 1.238-1.695.028-.042.057-.021 2.771-.922.028-.014.035.007 3.285.296 1.765-2.645.155-1.808.028-.316.246.197 2.096 1.646 2.096-.422.148-3.096.007-.091.077-.049 1.632-1.041.577-2.307-1.322-1.471-.099-.112.092-.113 1.575-1.864-2.004-1.428-.043-.028-.021-.056-.752-2.117-2.286-2.441-.042-.043-.007-.049-.282-2.293-1.596.204-2.061 1.871-.056.049-.071-.007-3.946-.372-1.188.914-.106.077-.105-.077-1.217-.957-3.426 3.335-.119.112-.12-.112-2.672-2.582-.043-.035-.007-.049-.471-1.97-2.194-2.926-9.053 3.109-.063.021-.056-.028-1.92-.823-.88.619-.091.063-.099-.056-1.434-.908-1.864 1.098z" fill="#EEE"/><path fill-rule="evenodd" clip-rule="evenodd" d="M204.578 233.206l4.748.106-1.927 2.018 3.981 6.577 1.906-1.118.091-.049.085.049 1.434.9.859-.605.077-.056.091.035 1.942.837 9.108-3.13.113-.042.077.098 2.293 3.06.021.028.007.036.464 1.955 2.525 2.427 3.412-3.32.105-.106.12.092 1.231.97 1.139-.872.049-.042.071.007 3.931.373 1.991-1.808.098-12.169h-1.582l-2.244 1.871-.141.112-.105-.14-.957-1.245-.035-.05v-.063l.275-4.6-6.598-.183-.105-.007-.043-.085-1.195-2.201-3.426.098h-.133l-.036-.126-.661-2.455-2.152-2.8-11.556-5.508v3.841l-.085.049-2.18 1.273.633 2.455.063.225-.239-.014-2.827-.19-2.195.922-1.287 2.293.281 6.633.007.043-.021.035-1.498 3.566z" fill="#EEE"/><path fill-rule="evenodd" clip-rule="evenodd" d="M186.701 217.78l1.329.379.092 2.392-.823.915.548 1.653-1.835 2.117.365 1.554 3.946.922.183 2.11 1.934.092 1.463.365 1.47 1.653-2.11 1.745v1.47l2.11-.64 1.836 1.006 1.653-.366 1.379-1.189 3.953-.724 1.561-3.693-.288-6.647v-.05l.021-.042 1.336-2.385.028-.056.057-.021 2.293-.957.035-.014.042.007 2.63.169-.611-2.349-.036-.12.113-.07 2.208-1.287v-9.286l-1.575-1.674-.106-.105.099-.12 1.674-2.047-.155-1.266-3.109 2.131-.042.036-.056-.007-2.392-.092-.042-.007-.035-.014-2.335-1.308-2.518.372-.07.007-.057-.042-3.313-2.363-1.491-.282-.26-.049.155-.218 1.062-1.505-1.597-1.59-3.081 2.99-.281 2.806v.049l-.035.036-.9 1.083.239.879 1.927.732.07.028.028.077.669 1.815.021.042-.014.05-.38 1.723-.007.028-.014.021-.668 1.055-.064.099-.119-.028-2.293-.458-1.716 1.9-.472 2.152-.007.056-.042.036-3.024 2.841-.556 1.478z" fill="#EEE"/><path fill-rule="evenodd" clip-rule="evenodd" d="M250.791 193.54l-2.483-1.78-4.973 2.856-.091.057-.092-.071-4.177-3.06-5.944-.091-.049-.007-.042-.021-3.918-2.617-2.799-.809-2.603 1.977-1.955 6.232-.042.134-.141-.014-2.279-.275-1.765 1.14-.359 1.899-.014.077-.07.043-3.152 1.8.176 1.513.007.07-.042.056-1.625 1.984 1.52 1.611.049.049v5.402l11.739 5.593.042.014.021.035 2.202 2.87.014.021.014.035.633 2.35 3.397-.092h.106l.049.092 1.196 2.208 6.682.19h.175l-.014.176-.281 4.713.809 1.048 2.159-1.794.049-.042h2.04v.007l4.396.021 1.646-1.941.042-.056.063-.007 4.467-.612.042-.007.049.021 3.777 1.66 3.067-1.316.148-3.123.007-.077.063-.05 3.186-2.433.401-1.478-2.764-.872-.042-.014-.028-.028-2.005-1.998-.042-.042-.007-.063-.31-2.617-.007-.091.071-.057 3.481-3.031.141-1.773-2.3-.288-.092-.008-.042-.084-2.581-5.311-8.834-1.371-.148-.022v-2.666l.042-.049 1.175-1.47-1.231-4.326zm11.404 43.239l-1.062.5-.429 1.864 1.055 2.567.035.092-.056.077-1.949 2.547.408 1.378 2.54.894.154.056-.049.155-.928 2.771-.007.028-.022.021-1.638 2.097.598 2.377.007.042-.007.043-.451 1.793.598 1.646.035.106-.077.077-2.616 2.61-.015.021-.028.014-1.54.774h-.014l-.007.007-2.068.738-.724 3.215 1.997 2.575 2.483-1.9.246-.19.014.141 4.495-.288 1.188-3.131.05-.119.126.014 1.885.141 1.337-2.814.028-.063.063-.029 2.398-.9.725-1.59v-1.913l.091-.049 2.209-1.182-.148-1.871-.914-2.75v-.014l-.007-.008-.45-2.581-1.984-3.053-.056-.077.042-.085.858-1.864-1.512-.963-2.56.295h-2.912l-.035-.113-1.4-4.129zm-4.211-136.26l1.562 2.04 1.09-.472-.331-2.849-1.09-.562-1.231 1.843zm4.356-12.929l.809 1.04.851-.9-.38-1.42-1.09.33-.19.95zm29.941-50.196l3.433.626-.802-2.575-2.406.057-.225 1.892zm2.864 6.471l1.885-2.518-.458-2.237 1.836-1.203 1.829-1.829 2.061 1.829 1.146 3.264.689 1.435-1.892 1.027v1.773l-4.691 2.124-2.405-2.18v-1.485zm-1.712 2.807l3.601 1.372-.513 1.716-1.66.921-2.405-1.667-.401-1.604 1.378-.738zm3.194 5.726l1.603-3.953 4.41-2.173.802 3.031 1.147-.344.168-1.316 2.005 1.949-.169 2.574-1.491 2.406 1.259 1.491-.338 2.23-1.603.858-3.264-2.23-2.926-2.518-1.66-.746.057-1.259zm11.519 2.23l-.401 5.156-1.948 3.552.745 2.687 3.208-2.574 3.376-.232 1.772-1.773.233-4.122-1.893-2.406-1.603 1.604-.858-.915.119-2.461-2.75 1.484zm9.444 7.45l.288 1.371 2.518.57-.112-.97-2.525-1.548-.169.577zm-19.125 10.304l1.315.97.978-.57-.689-1.434-1.604 1.034zm-11.626-1.892l1.66.915.12-1.315-1.091-1.26-.801.69.112.97zm10.255 5.501l.626.69.802-.746-.915-.978-.513 1.034zm-27.981 17.283l1.28 1.182.851-.852-.33-1.322-1.09-.288-.711 1.28zm3.078 1.519l.711.52.471-.9-.802-.9-.38 1.28zm1.856-3.46l.71.47.422-.801-1.09-.71-.042 1.04zm1.271-1.893l.802.612.76-1.09-1.231-.9-.669.478.338.9zm-5.726-6.541l.9.619 1.322-.81-.759-1.322-1.133-.33-1.09.942.76.9zm2.848-4.637l-.331.802.711.992.752-.802.05-.9-1.182-.092zm-2.154-32.595l-.204 1.076 1.104 1.112 1.562.035-.071-1.393-1.069-1.42-1.322.59zm6.937-8.379l1.456.45 1.596-.414-.935-2.083-1.182-.942-.83.802-.176 1.322.071.865zm59.395 134.727l-1.111 1.231-.036.042-.056.014-2.638.556-2.391 1.062.134 2.652.689 1.787.028.07-.028.064-1.358 2.989 1.351 2.16.021.035v.042l.281 3.215.007.049-.021.042-2.096 4.052-.021.042-.042.021-3.489 2.153 1.309 2.229.056.099-.07.091-1.485 2.026.788 2.631 2.989.95.092.028.021.098.422 1.956.021.084-.063.063-2.195 2.329-.126 1.618 1.399.38.085.021.028.084.696 2.096.035.099-.077.077-1.646 1.646-.689 2.469-.056.218-.19-.112-3.074-1.815-.042-.028-.021-.05-1.463-3.2-2.835 1.287-.408 2.701-.007.057-.035.035-6.239 6.795.275 3.137.007.127-.12.049-1.674.696-.148.064-.07-.148-2.398-5.191-1.646 2.152-.05.063h-.077l-6.471.275-2.56 4.72 2.884 4.53.035.056-.014.07-.556 2.519-.028.119-.12.014-2.848.408-1.618 3.102-.556 8.35-.014.176-.175-.021-2.751-.275-1.955.908v1.632L295.12 253l7.068 4.931 2.849-.183.148-.007.035.141.112.478 1.822.043 3.235-2.315.141-.098.099.133 2.046 2.793 6.211 4.917h3.123l.049.063 2.342 3.004.029.035.007.049.267 2.315 3.249.633.106.021.028.105.422 1.696 2.835-.943.569-1.949h-3.066l-.05-.098-.654-1.407-.063-.141.134-.077 1.406-.844.029-.021.035-.007 1.927-.275 3.875-2.68 1.386-2.131.014-.021.021-.014 2.87-2.596.64-1.927.007-.021.007-.014 1.688-2.905.007-.007 2.054-3.173 1.772-4.853 1.323-3.897-1.386-3.257-.014-.043.007-.042.359-3.489.007-.049.035-.042 1.815-2.153-2.16-1.814-.049-.043-.007-.056-.359-2.047-.035-.176.183-.021 3.728-.464.457-2.167.042-.19.183.064 1.991.703 3.481-1.161.936-2.215.07-.169.162.091 1.765.943h1.85l.049.07 1.252 1.71 7.372-1.991.815-3.151.043-.148.154.021 1.477.225 1.864-2.096.261-.289.042.387.225 2.279 4.494.69 2.645-1.836.113-3.433-2.814-1.991-.07-.049v-.084l-.239-4.333-.007-.092.07-.056 1.561-1.203.043-.035h.056l3.84-.113-3.608-8.18-1.934-1.344-3.398 1.541-.168.077-.057-.183-1.238-3.721-5.422-2.167-2.708.451-4.235 9.095-.007.021-.014.021-2.848 3.32-.12.141-.134-.127-2.053-2.054-1.309 2.336-.049.084-.098.007-3.897.155-2.645 2.026-.119.091-.106-.112-2.532-2.687-.049-.057.007-.07.471-6.964v-.028l.014-.028 2.3-5.36-2.982-.894-.077-.021-.028-.07-1.421-3.166-.021-.056.014-.056 1.076-4.46-2.42-1.357-.091-.05.007-.105.155-4.382-1.787-3.426-1.421.999-.049.035-.056-.007-2.054-.155-.162-.014v-2.469l.085-.049 1.596-1.013-1.371-1.991zm-16.607 84.58l-.323-1.688-.028-.148.14-.049 1.639-.521-.703-2.476-.042-.148.147-.056 1.956-.739.147-.056.071.141 1.526 3.053 3.805-2.265.134-.078.091.127 1.316 1.836 1.125 1.034 1.47-.549.028-.014h2.152l.05.085 1.006 1.596.063.099-.078.091-3.952 5.03-.099.126-.134-.091-2.398-1.688-2.94.274-.056.007-.05-.028-1.723-1.09-.007-.007-2.061-1.499-2.124-.176-.126-.007-.022-.126z" fill="#EEE"/><path d="M320.051 254.991l.267 1.414 1.998.162.042.007h.049l.042.035.035.021 2.061 1.498 1.667 1.055 2.884-.267.063-.007.064-.007.049.035.056.035 2.265 1.597 3.777-4.804-.9-1.421h-1.906l-1.442.542-.099.035-.098.035-.078-.07-.077-.071-1.118-1.027h-.007l-.014-.014-.008-.014-.014-.014-.007-.014-1.223-1.716-3.672 2.187-.155.092-.162.091-.077-.162-.084-.161-1.456-2.913-1.667.626.661 2.322.049.162.049.154-.161.05-.162.056-1.491.471z" fill="#EEE"/><path fill-rule="evenodd" clip-rule="evenodd" d="M347.348 278.696l1.54.063 1.561 2.941 12.028 1.097 8.082-4.868 2.574-.091.823-2.666 3.946-3.672 5.507-.274 1.653 1.561 2.293-2.11 9.734 1.562 1.379-3.764 3.306-2.293-1.379-3.397 1.47-9.18 2.476-2.483-1.653-4.41-3.489-.366 2.483-4.594 4.375-3.031-3.96-5.937-.063-.099.07-.091 1.337-1.892-2.364-1.351-.077-.049-.007-.092-.345-4.614-2.335.556-.127.028-.063-.113-1.477-2.624-3.102 1.724-.112.063-.092-.091-1.927-1.928-.105-.105.084-.12 1.104-1.54-3.826-2.554-.035-.021-.021-.042-4.889-9.053-3.931.119-1.449 1.112.232 4.164 2.82 1.998.078.056v.092l-.12 3.608v.085l-.07.049-2.764 1.927-.057.035-.063-.007-4.593-.703-1.294 1.836 1.336 1.224.028.028.014.042 2.258 6.76 2.666.464.049.007.035.035 2.525 2.287.05.049.007.07.239 3.37.007.133-.12.042-4.023 1.421-1.533 3.546-.021.042-.036.028-4.508 3.44v2.349l2.089 1.393.084.056-.007.099-.239 2.771-.007.049-.035.043-2.047 2.525-.028.035-.042.014-2.596 1.062-.935 1.52-.042.077-.085.007-3.052.232-4.769 6.317-.063.077-.099-.014-2.574-.351-2.828 2.356-.049.042h-4.515l.886 2.666.035.113-.091.07-2.392 1.935 2.525 2.757.148.162-.197.105-2.462 1.288-.752 2.806zm20.749-10.741l.844-2.167.035-.091.035-.099.106-.014.098-.014 4.748-.584 1.364-2.841.099-.204.098-.204.169.154.169.155 1.09.999 1.132-2.68.036-.084.035-.085.091-.021.092-.021 2.405-.485.063-.014.071-.015.056.036.056.035 2.891 1.808.099.063.098.063-.021.113-.021.112-.359 1.928-.021.105-.021.113-.113.028-.105.028-1.421.331 2.413 2.215.183.169.182.169-.225.106-.225.112-9.987 4.812-.085.042-.084.042-.078-.049-.077-.05-5.775-3.608-.119-.078-.12-.077.05-.134.049-.119z" fill="#EEE"/><path d="M369.258 265.915l-.844 2.16 5.775 3.616 9.994-4.819h-.007.007l-2.651-2.427-.239-.218.316-.077 1.73-.401.359-1.928-2.884-1.807-2.412.485-1.231 2.905-.092.218-.175-.162-1.266-1.16-1.407 2.926-.042.084-.092.015-4.839.59z" fill="#EEE"/><path d="M333.512 171.881l-.106.064-.098-.078-1.906-1.498h-4.607l.021-.19.281-2.518.007-.049.028-.036 2.645-3.193.781-2.089-1.709-1.175-.071-.056v-2.399l-1.498-1.625-.056-.07.014-.085.682-3.249-1.737-1.33-.141-.113.12-.14 2.609-2.877-.97-12.183-3.046-4.692 1.526-.781 3.665-2.997.063-.042.063.007 2.167.253.788-3.805.007-.028.021-.028 1.069-1.604.267-2.146.007-.07.056-.042 4.502-3.574-1.934-2.321-.043-.049v-3.693l-3.924-5.55-.021-.028-.007-.042-.535-2.828-1.21-1.604-.035-.049v-.064l.134-1.61-2.427 1.209-2.75 2.118-3.763 1.097-1.47 2.575.091-3.672 7.618-7.9 4.227-7.618 1.927-6.795-5.88-6.704-5.507-.182-1.927 2.75-2.202.373 1.653-4.685-4.502-.556 1.471-2.11-2.751-2.293-2.482.921-3.946 5.874.914 3.489-4.22.274.091 1.105 1.562 2.293-3.032-.64-1.561 1.463-3.489-.64-.457-1.562-4.959.092.092 2.848-5.965.823-4.044 3.215-3.116.092-2.3 2.025-1.006 4.13 1.927 3.489-2.94.731-7.8-1.28-4.501-.092-1.379 2.476-.183 6.43 2.849 2.75 1.371 3.215h-3.946l-3.397-6.331-2.49.141.028.323 2.174 4.615.091.204-.218.035-2.335.387-.52 2.834 2.159 4.587.028.056-.014.063-.549 2.181-.014.077-.077.036-5.113 2.286-.641 2.574 3.327 4.39 3.763.935.106.028.021.113.823 4.706-.239.612v-.007l-1.33 3.376-.035.077-.084.022-3.44.928 1.041 2.476.021.063-.021.057-1.09 3.271 2.743 3.559.042.056-.007.071-.689 6.499 2.195 3.025.042.056-.014.071-.816 4.649 3.27 2.455.05.042.014.064.555 3.355.014.07-.042.064-2.905 4.009-.274 3.588-.007.049-.028.042-4.488 5.705v4.431l3.665 2.111.127.07-.057.134-.654 1.688-.028.07-.063.028-3.285 1.407-.021.007-.021.007-2.807.345 1.217 4.284.021.084-.056.07-1.189 1.492v2.258l8.778 1.364.092.014.035.078 2.581 5.304 2.371.295.161.021-.014.162-.154 1.998-.007.07-.05.049-3.474 3.018.295 2.469 1.927 1.927 2.884.915.155.049-.042.155-.465 1.695-.014.056-.042.036-3.172 2.419-.148 3.152-.007.105-.014.007-.429 2.012 2.736 5.332.064.105-.092.092-1.386 1.386-.021.021-.028.014-1.167.548 1.371 4.052h2.645l2.602-.309.057-.007.056.035 1.688 1.076.126.084-.063.134-.879 1.913 1.948 2.997.021.035.007.028.458 2.61.921 2.757.007.022v.021l.155 1.997.007.113-.099.056-2.222 1.182v1.78l-.014.035-.767 1.688-.028.07-.07.021-2.399.901-1.294 2.729 3.861 2.722 6.352.83 2.757-2.3.035-.028.035-.007 1.47-.345.085-1.47.007-.084.077-.049 2.251-1.443-.176-1.582-.014-.141.141-.042 1.681-.443.541-2.244.028-.12.12-.014 8.405-.738.422-1.935-4.691-4.199-.057-.057v-1.997l.099-.05 2.096-.977.042-.021.042.007 2.624.26.548-8.209v-.035l.014-.035 1.681-3.215.043-.077.084-.014 2.821-.401.513-2.329-2.898-4.551-.049-.084.042-.092 2.659-4.889.049-.091h.092l6.492-.274 1.765-2.315.176-.225.112.254 2.448 5.303 1.414-.583-.267-3.096-.008-.07.05-.056 6.253-6.809.408-2.715-.022-.092 3.355-1.54.071.154 1.512 3.306 2.835 1.682.64-2.301.014-.049.028-.028 1.603-1.604-.633-1.906-1.448-.401-.141-.035.014-.141.141-1.815.007-.063.035-.042 2.18-2.307-.387-1.78-2.975-.943-.084-.028-.028-.084-.837-2.8-.029-.077.057-.071 1.463-2.004-1.337-2.279-.084-.148.141-.092 3.594-2.208 2.054-3.961-.275-3.13-1.378-2.202-.042-.077.035-.084 1.371-3.011-.675-1.752-.014-.021v-.028l-.141-2.792v-.12l.106-.049 2.511-1.112.021-.014h.014l2.602-.548 1.126-1.252-.929-1.161-1.969 1.315z" fill="#E52520"/><path d="M548.746 168.139l-.739-9.18-1.006-4.227-3.031-3.025.274-4.502 1.562-1.287-5.233-6.057.091-4.227 2.202-2.385-.549-2.384-4.41-1.288-4.495-7.991 1.098-.731 1.378 1.927 2.202-1.378-3.39-3.215-1.843 1.013-2.926-1.906-.056.056-1.513-3.567h-3.031l-.366 2.111-1.927-.183-6.246-12.493.366-3.946 2.483-.549-1.836-7.344 3.946 3.124.091-8.821 3.123-3.215 4.677-.091-2.658-6.514-1.273-14.048-3.032.922-.063.021-.063-.035-2.258-1.189-3.897 11.199-.042.12-.127-.008-4.958-.12-4.579 1.393-.155.05-.056-.155-1.491-4.101-6.176.373-1.104 1.962-.035.07-.078.015-4.255 1.006-.738 2.208-.029.106-.112.007-2.314.246-.739 2.575-.021.091-.091.028-2.673.851.478 2.631 3.841 5.578 2.384.5.091.02.036.085 1.624 4.263 2.708-.246.078-.007.056.049 1.801 1.681.042.035.014.057.499 2.623 2.49 1.407 1.723-1.604-4.684-5.606 1.104-3.672 4.502-1.561-2.392 3.58.549 2.758 3.587 2.483 1.646.091-.092 2.568 1.562.365-1.47 7.351 1.653 2.75.555 8.54 1.288 5.508 1.744 5.508-2.026 2.208.647 2.111-1.104 1.47 2.849 3.306.457 5.233 3.904 4.411 4.635 5.226 25.342 16.988zm-381.475-13.8l-.049-.007-.035-.029-5.226-4.29-1.878 1.041-.042.021-.057-.007-5.148-.584.007-.035-3.433-1.78-.028-.014-.021-.028-3.158-3.559-4.101-.387-1.209 2.989 2.89 3.827.036.042v.056l.168 2.73.014.119-.112.049-4.769 2.005v1.604l1.308 1.147.12.098-1.491 2.005-.007-.014-1.301 1.463-1.759 4.523-.007.028-.021.028-1.484 1.583-.95 2.483-.014.035-.021.021-1.603 1.766-.057.063-.084-.007-1.372-.091-.049 3.39 1.533-.049.176-.007v2.694l3.376.155.148.007.014.147.148 1.914 1.435.344.105.029.021.098.218.971v.007l.211 1.35.493.683 1.28-.338 2.841-3.355.043-.057h.07l3.214-.337 2.033-3.229.127-.197.147.169 1.463 1.632 1.295-.837.506-2.279.028-.127.127-.007 3.573-.169.956-1.203.261-2.462.007-.056.035-.042 1.568-1.822-1.16-2.237-.021-.042v-.042l.091-1.822v-.106l.099-.042 3.791-1.723 4.389-4.312 2.933-3.883.548-1.252-3.179-.45zM12.907 177.628l1.976-2.3-4.438-5.839 2.63-7.484-1.892-1.562-1.645 1.154-6.5-4.446-.822 1.316.246 5.268L0 166.366l.654 3.616 4.277-.246 4.768 6.007 3.208 1.885z" fill="#EEE"/></svg>