<svg width="270" height="55" viewBox="0 0 270 55" fill="none" xmlns="http://www.w3.org/2000/svg"><g clip-path="url(#clip0)" fill="#fff"><path d="M0 48.262a7.462 7.462 0 01.476-2.713 6.178 6.178 0 011.349-2.13 5.976 5.976 0 012.073-1.379 6.863 6.863 0 012.674-.504 6.635 6.635 0 012.584.47 6.08 6.08 0 011.926 1.245l-.827 1.121a.779.779 0 01-.193.19.548.548 0 01-.328.09.72.72 0 01-.284-.078l-.317-.19-.408-.258a3.42 3.42 0 00-.532-.247 4.845 4.845 0 00-.703-.157 4.588 4.588 0 00-.929-.078 4.113 4.113 0 00-1.632.313 3.649 3.649 0 00-1.269.886 4.293 4.293 0 00-.838 1.457 6.217 6.217 0 00-.295 1.962 5.662 5.662 0 00.318 1.985c.19.532.482 1.023.86 1.446.359.388.795.697 1.281.908a3.96 3.96 0 001.586.314c.307.006.614-.013.918-.056a3.66 3.66 0 00.748-.168c.23-.076.45-.178.657-.303.221-.135.43-.289.623-.46a.511.511 0 01.193-.123.468.468 0 01.204-.056.513.513 0 01.363.157l.974 1.042a5.433 5.433 0 01-1.994 1.525c-.897.37-1.862.55-2.833.527a6.76 6.76 0 01-2.674-.505 5.897 5.897 0 01-3.309-3.52 8.027 8.027 0 01-.441-2.713zm14.174.012a7.14 7.14 0 01.487-2.68c.301-.8.768-1.53 1.371-2.141a6.35 6.35 0 012.096-1.413 7.252 7.252 0 012.754-.504 7.373 7.373 0 011.903.235 6.838 6.838 0 011.643.65c.493.28.943.627 1.337 1.032.405.419.755.886 1.043 1.39.277.513.487 1.06.623 1.626.147.602.22 1.22.215 1.838a7.14 7.14 0 01-.453 2.646 6.034 6.034 0 01-1.357 2.14 6.112 6.112 0 01-2.122 1.403A7.342 7.342 0 0120.95 55a7.25 7.25 0 01-2.822-.504 6.33 6.33 0 01-2.13-1.402 6.326 6.326 0 01-1.371-2.141 7.173 7.173 0 01-.453-2.68zm2.527 0a5.797 5.797 0 00.294 1.95 4.11 4.11 0 00.839 1.458c.375.391.826.704 1.325.919a5.07 5.07 0 003.513 0c.503-.21.955-.523 1.325-.92.374-.424.656-.92.828-1.457a5.797 5.797 0 00.294-1.95 5.886 5.886 0 00-.294-1.951 4.002 4.002 0 00-.828-1.457 3.717 3.717 0 00-1.337-.93 5.07 5.07 0 00-3.512 0 3.932 3.932 0 00-1.326.93c-.38.422-.665.919-.838 1.457-.204.63-.3 1.29-.284 1.95zm15.436 6.58V41.682H33.7l.204.056c.067.03.129.072.182.123.064.06.121.128.17.202l6.99 8.834v-.628a5.348 5.348 0 010-.583v-8.004h2.188v13.172h-1.338a1.143 1.143 0 01-.498-.1.96.96 0 01-.374-.314l-6.968-8.779v9.193h-2.12zm15.453-1.603l.725-1.12c.069-.083.149-.154.238-.214a.65.65 0 01.317-.09.866.866 0 01.487.191c.17.123.386.258.635.404.267.169.552.308.85.414a3.44 3.44 0 001.19.191 2.431 2.431 0 001.642-.505 1.75 1.75 0 00.578-1.412c.019-.302-.074-.6-.26-.84a1.946 1.946 0 00-.68-.55 5.701 5.701 0 00-.975-.393l-1.133-.336a8.587 8.587 0 01-1.133-.415 3.402 3.402 0 01-.974-.672 2.769 2.769 0 01-.691-1.02 3.676 3.676 0 01-.272-1.503c.002-.485.102-.965.294-1.412.189-.456.47-.868.828-1.211a4.05 4.05 0 011.36-.852 4.932 4.932 0 011.846-.325 6.189 6.189 0 012.176.37 4.962 4.962 0 011.71 1.042l-.623 1.121a.968.968 0 01-.238.27.571.571 0 01-.306.09.765.765 0 01-.43-.147l-.533-.302a4.56 4.56 0 00-.736-.303 2.963 2.963 0 00-.997-.146 3.021 3.021 0 00-.895.124c-.238.076-.46.194-.658.347a1.347 1.347 0 00-.396.516 1.865 1.865 0 00-.125.672c-.008.28.089.551.272.763.195.221.434.4.703.527.323.156.656.29.997.403l1.133.36c.385.134.77.28 1.133.448.358.173.69.395.986.66.291.275.526.602.69.965.19.435.278.906.261 1.379.004.574-.1 1.145-.305 1.682-.2.51-.51.974-.907 1.356a4.029 4.029 0 01-1.462.908 5.421 5.421 0 01-1.971.337 6.485 6.485 0 01-2.414-.471 7.328 7.328 0 01-1.065-.55 5.652 5.652 0 01-.872-.75zm12.226-9.529v-2.018H70.32v2.018h-4.011v11.21h-2.481v-11.21h-4.012zm14.547 11.132V41.682h4.08a8.494 8.494 0 012.345.28c.579.15 1.122.414 1.597.773.404.32.722.732.93 1.2.198.488.298 1.01.294 1.536.003.427-.066.851-.204 1.256a3.54 3.54 0 01-.578 1.12c-.263.335-.58.623-.94.853a4.97 4.97 0 01-1.28.583c.327.188.61.444.827.75l3.33 4.866H82.5a.96.96 0 01-.907-.482l-2.821-4.226a.969.969 0 00-.34-.337 1.142 1.142 0 00-.555-.1h-1.054v5.145l-2.459-.045zm2.482-6.905h1.54c.415.007.828-.05 1.224-.169.314-.1.604-.265.85-.482.225-.2.4-.45.51-.728.106-.292.16-.599.159-.909a1.843 1.843 0 00-.68-1.547 3.21 3.21 0 00-2.04-.538h-1.563v4.373zm11.377 1.625v-7.847h2.482v7.847c-.007.464.062.926.204 1.368.124.388.328.747.6 1.053.262.293.587.523.952.673a3.628 3.628 0 002.572 0c.365-.15.69-.38.952-.672a2.94 2.94 0 00.6-1.043 4.29 4.29 0 00.204-1.368v-7.903h2.482v7.847a5.841 5.841 0 01-.386 2.164 4.972 4.972 0 01-1.133 1.726 4.98 4.98 0 01-1.733 1.121 6.786 6.786 0 01-4.612 0 4.972 4.972 0 01-2.878-2.847 6.072 6.072 0 01-.306-2.119zm15.366-1.312a7.46 7.46 0 01.476-2.713 6.022 6.022 0 011.314-2.13 5.972 5.972 0 012.074-1.378 6.855 6.855 0 012.674-.505 6.667 6.667 0 012.583.47 5.99 5.99 0 011.915 1.245l-.827 1.121a.569.569 0 01-.51.28.716.716 0 01-.283-.078l-.318-.19-.408-.258a3.946 3.946 0 00-.532-.247 4.647 4.647 0 00-.703-.157 4.438 4.438 0 00-.917-.078 4.093 4.093 0 00-1.632.314 3.682 3.682 0 00-1.28.908 4.28 4.28 0 00-.828 1.457 5.914 5.914 0 00-.294 1.962 5.657 5.657 0 00.317 1.984c.19.533.482 1.024.861 1.446a3.81 3.81 0 002.867 1.222 5.72 5.72 0 00.906-.056 3.496 3.496 0 001.417-.47 4.51 4.51 0 00.612-.46.626.626 0 01.192-.124.482.482 0 01.578.101l.963 1.043a5.396 5.396 0 01-1.983 1.525c-.9.37-1.869.55-2.844.526a6.74 6.74 0 01-2.662-.504 5.825 5.825 0 01-2.029-1.39 6.054 6.054 0 01-1.28-2.13 8.024 8.024 0 01-.419-2.736zm14.037-4.54v-2.018h10.504v2.018h-4.011v11.21h-2.482v-11.21h-4.011zm14.551 11.132V41.682h2.481v13.172h-2.481zm6.965-6.58a7.14 7.14 0 01.487-2.68 6.292 6.292 0 011.371-2.14 6.513 6.513 0 012.142-1.413 7.18 7.18 0 012.742-.505 7.527 7.527 0 011.915.236c.57.145 1.119.363 1.631.65.495.276.946.624 1.337 1.031.417.414.775.882 1.066 1.39.286.51.5 1.057.634 1.626.142.603.214 1.22.215 1.838a7.351 7.351 0 01-.487 2.68 6.386 6.386 0 01-1.371 2.141 6.164 6.164 0 01-2.119 1.401 7.26 7.26 0 01-2.764.505 7.179 7.179 0 01-2.742-.505 6.478 6.478 0 01-2.142-1.401 6.513 6.513 0 01-1.371-2.141 7.182 7.182 0 01-.544-2.713zm2.527 0a6.09 6.09 0 00.294 1.95 4.33 4.33 0 00.85 1.458c.371.396.823.71 1.326.92a4.577 4.577 0 001.745.313 4.639 4.639 0 001.768-.314 3.9 3.9 0 001.314-.92c.377-.423.663-.92.838-1.457.204-.63.303-1.289.295-1.95a6.181 6.181 0 00-.295-1.951 4.029 4.029 0 00-.838-1.457 3.78 3.78 0 00-1.314-.93 4.639 4.639 0 00-1.768-.315 4.577 4.577 0 00-1.745.314c-.52.197-.989.508-1.371.908a4.22 4.22 0 00-.85 1.458 6.198 6.198 0 00-.283 1.973h.034zm15.445 6.58V41.682h1.519l.204.056a1.142 1.142 0 01.351.325l6.991 8.823v-9.204h2.187v13.172h-1.269a1.043 1.043 0 01-.873-.414l-6.957-8.779v9.193h-2.153zM.68 26.188V.28h9.948a14.699 14.699 0 015.427.964 12.162 12.162 0 014.181 2.669 11.737 11.737 0 012.686 4.091c.658 1.668.985 3.446.963 5.236a13.77 13.77 0 01-.963 5.235 11.681 11.681 0 01-2.707 4.09 11.835 11.835 0 01-4.16 2.637 14.7 14.7 0 01-5.427.953l-9.948.033zm4.872-3.834h5.099a8.908 8.908 0 003.399-.628 7.184 7.184 0 002.606-1.804 7.737 7.737 0 001.643-2.86c.393-1.236.584-2.526.567-3.822a12.12 12.12 0 00-.567-3.823 7.826 7.826 0 00-1.643-2.87 7.184 7.184 0 00-2.606-1.805 8.91 8.91 0 00-3.4-.628H5.553v18.24zm22.651 3.834V.28h4.884v25.908h-4.884zm7.625 0L46.116.28h4.963l10.3 25.908h-3.773a1.586 1.586 0 01-1.031-.314 2.247 2.247 0 01-.612-.773l-1.95-5.336H43.16L41.222 25.1a1.74 1.74 0 01-.556.751c-.296.23-.665.35-1.042.336h-3.796zm8.589-9.775h8.35L49.585 7.78a19.36 19.36 0 01-.488-1.345c-.17-.516-.34-1.121-.51-1.693-.158.606-.328 1.121-.487 1.704a9.364 9.364 0 01-.51 1.402l-3.172 8.565zm19.661 9.775V.28h4.238c.147.005.293.035.43.09.126.06.24.14.34.235.118.13.22.273.306.426l7.83 14.395c.192.381.385.785.566 1.188.182.404.352.819.533 1.245.159-.449.34-.875.521-1.29.181-.414.374-.807.567-1.177l7.738-14.338c.086-.156.192-.3.318-.426.104-.101.227-.181.362-.236a1.27 1.27 0 01.42-.09h4.226v25.886h-4.294V8.43c0-.37 0-.74.079-1.122l-7.932 14.687c-.155.32-.4.591-.704.78a1.907 1.907 0 01-1.018.285h-.646c-.36.01-.714-.085-1.02-.275a1.799 1.799 0 01-.69-.79L68.236 7.264l.102 1.12v17.803h-4.26zm32.665-12.937a14.316 14.316 0 01.952-5.28 12.114 12.114 0 012.705-4.202 12.266 12.266 0 014.184-2.771A14.275 14.275 0 01110 0a14.875 14.875 0 013.75.46c1.125.285 2.207.714 3.218 1.278a11.647 11.647 0 012.64 2.04c.772.797 1.434 1.69 1.972 2.657a12.854 12.854 0 011.235 3.184 15.23 15.23 0 01.431 3.632c.018 1.8-.305 3.587-.952 5.27a12.872 12.872 0 01-2.686 4.203 12.203 12.203 0 01-4.181 2.758 15.391 15.391 0 01-10.843 0 12.186 12.186 0 01-4.189-2.766 12.033 12.033 0 01-2.7-4.207 14.273 14.273 0 01-.952-5.258zm4.963 0c-.022 1.298.177 2.59.589 3.823a8.067 8.067 0 001.654 2.87 7.339 7.339 0 002.561 1.805 9.795 9.795 0 006.9 0 7.183 7.183 0 002.595-1.805 7.826 7.826 0 001.643-2.87c.403-1.234.598-2.526.578-3.823a11.86 11.86 0 00-.578-3.834 7.919 7.919 0 00-1.643-2.881 7.2 7.2 0 00-2.595-1.816 9.143 9.143 0 00-3.399-.628 8.981 8.981 0 00-3.399.628 7.357 7.357 0 00-2.606 1.816 8.1 8.1 0 00-1.711 2.881 11.563 11.563 0 00-.589 3.834zm25.833 12.937V.28h3.071c.142.015.281.057.408.124.127.057.242.137.34.235.13.119.247.25.351.392l13.744 17.355c0-.426-.068-.841-.102-1.245-.034-.403 0-.784 0-1.12V.28h4.215v25.907h-2.493a2.284 2.284 0 01-.974-.19 2.486 2.486 0 01-.737-.628L131.709 8.117c0 .38.068.762.09 1.12.023.36 0 .73 0 1.043v15.908h-4.26zm27.887 0V.28h10.005a14.805 14.805 0 015.439.964 12.212 12.212 0 014.169 2.668 11.912 11.912 0 012.697 4.092c.652 1.67.979 3.446.963 5.236a14 14 0 01-.963 5.235 11.77 11.77 0 01-2.713 4.083 11.916 11.916 0 01-4.153 2.644 14.807 14.807 0 01-5.439.953l-10.005.033zm4.872-3.834h5.133a8.91 8.91 0 003.456-.628 7.103 7.103 0 002.606-1.805 7.59 7.59 0 001.643-2.858c.393-1.237.584-2.527.566-3.823a12.123 12.123 0 00-.566-3.823 7.626 7.626 0 00-1.643-2.87 7.1 7.1 0 00-2.663-1.805 8.907 8.907 0 00-3.399-.628h-5.099l-.034 18.24zM179.66 4.249V.28h20.656v3.97h-7.931v21.94h-4.884V4.248h-7.841zm24.078 21.939V.28h16.52v3.834h-11.636v7.175h9.155v3.722h-9.155v7.343h11.636v3.834h-16.52zM222.47 13.24c-.024-1.84.295-3.667.94-5.392a12.089 12.089 0 012.652-4.17 12.318 12.318 0 014.079-2.736A13.723 13.723 0 01235.398 0a13.09 13.09 0 015.077.93 11.782 11.782 0 013.773 2.433l-1.621 2.243c-.097.15-.224.28-.374.38-.187.124-.41.183-.634.169a1.14 1.14 0 01-.555-.157 5.617 5.617 0 01-.635-.37l-.804-.505a5.976 5.976 0 00-1.043-.482 11.121 11.121 0 00-1.393-.38 9.652 9.652 0 00-1.813-.158 8.099 8.099 0 00-3.207.628 6.989 6.989 0 00-2.515 1.783 8.202 8.202 0 00-1.632 2.87 11.982 11.982 0 00-.589 3.867c-.021 1.32.194 2.633.634 3.88a8.76 8.76 0 001.7 2.858 7.33 7.33 0 002.515 1.771 8.004 8.004 0 003.116.617c.599.003 1.197-.03 1.791-.101a8.223 8.223 0 001.484-.348 6.723 6.723 0 001.292-.594 7.955 7.955 0 001.212-.908 1.69 1.69 0 01.385-.246.871.871 0 01.408-.09.974.974 0 01.714.291l1.904 2.04a10.505 10.505 0 01-3.921 3.005 13.725 13.725 0 01-5.575 1.032 13.486 13.486 0 01-5.246-.976 11.77 11.77 0 01-3.977-2.746 11.97 11.97 0 01-2.527-4.193 15.72 15.72 0 01-.872-5.303zm25.46 12.948V.28h4.883v11.144h12.328V.28h4.884v25.908h-4.884V14.866h-12.328v11.322h-4.883z"/></g><defs><clipPath id="clip0"><path fill="#fff" d="M0 0h270v55H0z"/></clipPath></defs></svg>