<svg width="39" height="40" viewBox="0 0 39 40" fill="none" xmlns="http://www.w3.org/2000/svg"><path d="M34.168 13.922l.34.25h.32v-.61l1-.1 1 .71h1.56l.11-.1c-.16-.53-.33-1.05-.53-1.56h-1l-.57-.52-.1-.91-.53.29-.28 1.11-.76-.81v-.76l-.73-.63-.3-.29h-.84l.26.76 1 .56.18.19-.22.11v.6l-.5.21-.42-.09-.24-.34h.69l.19-.25-1.53-1-.12-.44-.62.56-.63-.13-1 1.24-.19.49-.61.06h-.91l-.54-.25-.16-1.08.19-.51.93-.2 1 .2.12-.56-.43-.1.15-.87 1-.16.71-1 .73-.12.66.1h.25l-.08-.98-.8.32-.28-.7-.47-.07-.11-.47.38-.41.91-.36.23-.41a19.55 19.55 0 00-24.44-1.15h1l.43.25.83.18.07.32h1.32l-.18-.42h-1.17l.27-.26-.09-.31h-1.06l1.15-.87h1.11l.52.72h.86l.53-.51.39.2-.72.7h-.95c.054.223.085.451.09.68h1.2l.13-.33.83-.05.1-.48-.49-.09.16-.44.38-.04 1.3.06-.72.66.12.5.75.12v-.92l.66-.42 1.28-.15 1.82.85v.7l.59.14-.29.56h-.83l-.25.63-1.9-.45 1.5-.79-.56-.49-1.26.17-.11.12-.37.39h-.61l.05.3.21.09v.1l-.5.07v.29h-.48l-.19-.48-.86.26-1.74 1 .19.72.49.32 1 .14v1.13l.45-.08.41-.86 1-.33v-1.35l.58-.44 1.4.33-.1.88h.37l1-.5.05 1.15.75.46v.68l-.72.25.05.22.86.4v.47h-.24l-1.09-.34v-.35l.28-.21v-.3l-.35-.08-.08.29-.6.09h-.31l-.17-.35-.2-.08h-.42l-.2.16v.35l.37.12.36.05h-.08l-.33.37-.12-.1-.32-.08-.86.82.11.09-1.28.71-1.21 1.25-.08.56-1.21.8-.6.6.07 1.2-.83-.38v-.71h-2.3l-1.2.62-.51 1-.21.76.34.73.94.12 1.5-1 .13.49-.48.82 1.14.19.12 1.76 1.56.27 1-1.15 1.21.25.42.59 1.16-.07v-.34l.64.3.75 1.13h1.24l.46.8.06 1 1.37.52h1.73l.5.83.77.24-.15.69-.84 1.07-.24 2.36-.76.6h-1.12l-.38.65.28 1.22-1.22 1.54-.39.71-1.17.56-.76.12v.32l.53.16-.06.35-.48.46.29.37h.58v.44l-.16.44-.05.36.86.72-.11.38h-1.17l-1.16-1-.91-1.58.13-1.54-.68-.91.27-1.55-.4-.11v-3.38s-1.14-.86-1.21-.86c-.07 0-.6-.15-.6-.15l-.12-.63-1.48-1.86.15-.67.05-1.09 1-.72-.14-1.22-1.51-.11-1.2-1.38-.8-.19-.54-.09.06-.49-.68-.1v.28l-1.74-.41-.69-1.05.28-.51-1.08-1.6-.19-1.16h-.42l.15 1.12.73 1.2-.09.46-.63-.1-.78-1.36v-1.56l-.82-.44v-1.07a19.59 19.59 0 0033.24 20.07h-.65v-1.3l-.75-1v-1.62l-.57-.57v-.65l.73-1.39-1.42-2.47.16-1.64-1.24-.13-.46-.46h-.83l-.42.39h-1.47l-.05.13h-.83l-1.85-2.09v-1.66l.31-.11.12-.64h-.44l-.14-.67 2.16-1.56v-1.11l1.06-.59.43.05h.87l.69-.37 2.19-.17v1.12l1.71.44zm-5.49-7l.17-.27.65-.13.16.78.34.55.23.26.42.17-.4.46-.75.07h-.57l.06-.67.48-.1v-.32l-.45-.27-.3-.22v-.3l-.04-.01zm-1.06 1.24l.44-.63.53-.12.37.16v.42l-.9.57h-.45v-.4h.01zm-10.65 2.41h-.41v-.28l.19-.23.24.19-.02.32zm1.43-.5h-.28v.27l-.22.13h-.34a.642.642 0 010-.14h-.14v-.24h.57l.07-.3h.48l-.14.28z" fill="#A0C1E0"/></svg>