<svg width="362" height="33" viewBox="0 0 362 33" fill="none" xmlns="http://www.w3.org/2000/svg"><path d="M5.08 22.327H0v5.08h5.08v-5.08zm5.082-5.084H5.081v5.08h5.081v-5.08zm5.081 5.084h-5.08v5.08h5.08v-5.08zm5.081-5.084h-5.08v5.08h5.08v-5.08zm5.084 5.084h-5.08v5.08h5.08v-5.08zM15.243 12.162h-5.08v5.081h5.08v-5.08zm10.165 0h-5.08v5.081h5.08v-5.08zm-5.084-5.081h-5.08v5.081h5.08V7.081zM25.408 2h-5.08v5.08h5.08V2zm12.635 20.327V4.54h2.666V2H30.306v2.54h2.601v20.327h7.802v-2.54h-2.666zm9.935 2.54h-7.27v2.54h7.27v-2.54zM65.453 4.54V2H47.978v2.54h2.602v17.787h-2.602v2.54h7.738V4.54h5.136v20.327h-2.803v2.54h10.204v-2.54h-2.8V9.621h2.8v-5.08h-2.8zm5.134 5.081h-2.333v4.992h2.333V9.622zm2.671 4.993h-2.67v2.668h2.67v-2.668zm2.498 2.668h-2.501v2.501h2.5v-2.5zm25.01 0h-2.5v2.501h2.5v-2.5zm0-10.201h-2.5v5.044h2.5V7.081zm5.237-2.541h2.4V2H98.266v2.54h2.503v2.54h5.234V4.54zm0 17.787h-2.616v-2.544h-2.617v5.084h-2.538v2.54h10.205v-2.54h-2.434v-2.54z" fill="#1F1F1F"/><path d="M98.266 12.125H95.71v2.489h-2.48V2H75.727v2.54h2.732v15.243H75.76v5.084h2.7v2.54h4.802V4.54h5.167v20.327h-2.7v2.54h10.205v-2.54h-2.702v-7.585h5.035v-5.157zM111.563 2.01v11.572H128V2.009h-16.437zm7.762 8.72v.852h-5.206v-.852h.721V4.934h-.721v-.916h2.98v.916h-1.276v5.796h2.586v-.818h.916v.818zm6.287-5.796v.785h-.949v-.785h-2.587v2.25h1.115v-.778h.95V8.7h-.95v-.784h-1.115v2.815h2.587v-.818h.949v1.666h-5.206v-.852h.754V4.934h-.754v-.717h5.206v.717zM158.08 11h1.452V5l2.628 3.936h.048l2.652-3.96V11h1.476V2.6h-1.572l-2.556 3.972-2.556-3.972h-1.572V11zm10.898 0h1.512l.864-2.028h3.972l.852 2.028h1.56l-3.696-8.46h-1.368L168.978 11zm2.916-3.336l1.44-3.36 1.452 3.36h-2.892zM180.378 11h1.476V8.3h1.668c1.848 0 3.36-.984 3.36-2.868 0-1.716-1.236-2.832-3.192-2.832h-3.312V11zm1.476-4.032V3.944h1.716c1.104 0 1.812.516 1.812 1.5 0 .9-.696 1.524-1.812 1.524h-1.716zm7.74 4.032h1.476V8.564l1.308-1.344 2.868 3.78h1.788l-3.648-4.788 3.492-3.612h-1.812l-3.996 4.224V2.6h-1.476V11zm9.895 0h6.288V9.68h-4.812V7.424h4.212v-1.32h-4.212V3.92h4.752V2.6h-6.228V11zm11.303 0h1.488V3.968h2.664V2.6h-6.816v1.368h2.664V11zm6.918 0h1.392l4.236-6.12V11h1.452V2.6h-1.38l-4.248 6.132V2.6h-1.452V11zm10.458 0h1.476V7.46h4.008V11h1.476V2.6h-1.476v3.492h-4.008V2.6h-1.476V11zm10.317 0h1.464V3.932h4.188V2.6h-5.652V11zm12.333.144c2.58 0 4.404-1.98 4.404-4.344 0-2.388-1.8-4.344-4.38-4.344s-4.404 1.98-4.404 4.344c0 2.388 1.8 4.344 4.38 4.344zm.024-1.356c-1.668 0-2.856-1.356-2.856-2.988 0-1.656 1.164-2.988 2.832-2.988s2.856 1.356 2.856 2.988c0 1.656-1.164 2.988-2.832 2.988zM258.205 11h3.888c1.872 0 3.108-.804 3.108-2.304 0-1.164-.684-1.728-1.668-2.064.624-.324 1.2-.864 1.2-1.872 0-.588-.192-1.044-.564-1.416-.48-.48-1.236-.744-2.196-.744h-3.768V11zm1.452-4.86V3.908h2.124c.948 0 1.476.408 1.476 1.068 0 .792-.636 1.164-1.584 1.164h-2.016zm0 3.552V7.388h2.34c1.164 0 1.728.42 1.728 1.128 0 .78-.612 1.176-1.62 1.176h-2.448zm12.416 1.452c2.58 0 4.404-1.98 4.404-4.344 0-2.388-1.8-4.344-4.38-4.344s-4.404 1.98-4.404 4.344c0 2.388 1.8 4.344 4.38 4.344zm.024-1.356c-1.668 0-2.856-1.356-2.856-2.988 0-1.656 1.164-2.988 2.832-2.988s2.856 1.356 2.856 2.988c0 1.656-1.164 2.988-2.832 2.988zM279.46 11h6.288V9.68h-4.812V7.424h4.212v-1.32h-4.212V3.92h4.752V2.6h-6.228V11zm-122.1 16h1.512l.864-2.028h3.972L164.56 27h1.56l-3.696-8.46h-1.368L157.36 27zm2.916-3.336l1.44-3.36 1.452 3.36h-2.892zM168.76 27h1.464v-7.068h4.188V18.6h-5.652V27zm8.325 0h6.288v-1.32h-4.812v-2.256h4.212v-1.32h-4.212V19.92h4.752V18.6h-6.228V27zm9.24 0h1.476v-3.54h4.008V27h1.476v-8.4h-1.476v3.492h-4.008V18.6h-1.476V27zm12.381 0h1.488v-7.032h2.664V18.6h-6.816v1.368h2.664V27zm10.817.144c1.572 0 2.532-.576 3.408-1.488l-.948-.96c-.72.672-1.38 1.092-2.412 1.092-1.608 0-2.772-1.344-2.772-2.988 0-1.668 1.164-2.988 2.772-2.988.96 0 1.68.42 2.352 1.044l.948-1.092c-.804-.768-1.74-1.308-3.288-1.308-2.544 0-4.332 1.956-4.332 4.344 0 2.436 1.824 4.344 4.272 4.344zm8.223-.144h1.488v-7.032h2.664V18.6h-6.816v1.368h2.664V27zm6.918 0h3.888c1.872 0 3.108-.804 3.108-2.304 0-1.164-.684-1.728-1.668-2.064.624-.324 1.2-.864 1.2-1.872 0-.588-.192-1.044-.564-1.416-.48-.48-1.236-.744-2.196-.744h-3.768V27zm1.452-4.86v-2.232h2.124c.948 0 1.476.408 1.476 1.068 0 .792-.636 1.164-1.584 1.164h-2.016zm0 3.552v-2.304h2.34c1.164 0 1.728.42 1.728 1.128 0 .78-.612 1.176-1.62 1.176h-2.448zm12.416 1.452c2.58 0 4.404-1.98 4.404-4.344 0-2.388-1.8-4.344-4.38-4.344s-4.404 1.98-4.404 4.344c0 2.388 1.8 4.344 4.38 4.344zm.024-1.356c-1.668 0-2.856-1.356-2.856-2.988 0-1.656 1.164-2.988 2.832-2.988s2.856 1.356 2.856 2.988c0 1.656-1.164 2.988-2.832 2.988z" fill="#1F1F1F"/></svg>