<svg width="39" height="42" viewBox="0 0 39 42" fill="none" xmlns="http://www.w3.org/2000/svg"><path d="M38.1 39.481h-1.76v-25.56a2.16 2.16 0 00-2.16-2.15h-3.93a2.16 2.16 0 00-2.16 2.15v25.56h-4.47v-14a2.16 2.16 0 00-2.16-2.15h-3.93a2.16 2.16 0 00-2.16 2.15v14H10.9v-7.24a2.16 2.16 0 00-2.15-2.16H4.81a2.16 2.16 0 00-2.15 2.16v7.24H.8a.8.8 0 000 1.6h37.3a.8.8 0 100-1.6zm-28.8 0h-5v-7.24a.55.55 0 01.55-.55h3.9a.549.549 0 01.55.55v7.24zm12.72 0H17v-14a.549.549 0 01.55-.55h3.93a.56.56 0 01.56.55l-.02 14zm12.71 0h-5v-25.56a.56.56 0 01.56-.55h3.93a.55.55 0 01.55.55v25.56h-.04zM36.342.841a.81.81 0 00-.85-.84h-4.89a.8.8 0 100 1.6h3l-7.93 7.94-3-3a.79.79 0 00-1.13 0L7.121 21a.8.8 0 00.56 1.37.83.83 0 00.57-.23l13.86-13.89 3 3a.8.8 0 001.13 0l8.5-8.5v2.7a.81.81 0 001.61 0V.84h-.01zM4.98 25.141a.8.8 0 100-1.6.8.8 0 000 1.6z" fill="#A0C1E0"/></svg>