<svg width="31" height="31" viewBox="0 0 31 31" fill="none" xmlns="http://www.w3.org/2000/svg"><path d="M15.5 4.593c-5.382 0-9.76 4.377-9.76 9.759 0 4.083 2.521 7.7 6.315 9.128v5.224c0 .317.257.574.574.574h.574v1.148c0 .317.257.574.574.574h3.445a.574.574 0 00.574-.574v-1.148h.574a.574.574 0 00.574-.574V23.48a9.737 9.737 0 006.315-9.128c0-5.382-4.378-9.76-9.76-9.76zm1.722 23.537a.574.574 0 00-.574.574v1.148H14.35v-1.148a.574.574 0 00-.574-.574h-.574v-2.87h4.593v2.87h-.574zm.969-5.602a.574.574 0 00-.395.545v1.038h-4.593v-1.038a.574.574 0 00-.395-.545 8.592 8.592 0 01-5.92-8.176c0-4.748 3.863-8.611 8.611-8.611 4.749 0 8.612 3.863 8.612 8.61a8.592 8.592 0 01-5.92 8.177zM15.5 3.444a.574.574 0 00.574-.574V.574a.574.574 0 10-1.148 0V2.87c0 .318.256.574.574.574zm13.779 10.334h-2.297a.574.574 0 100 1.148h2.297a.574.574 0 100-1.148zm-25.26 0H1.723a.574.574 0 100 1.148h2.296a.574.574 0 100-1.148zm20.818-9.575l-1.624 1.624a.573.573 0 10.812.812l1.623-1.624a.573.573 0 10-.811-.812zM6.975 22.065L5.352 23.69a.573.573 0 10.812.811l1.623-1.623a.573.573 0 10-.812-.812zm17.05 0a.573.573 0 10-.812.812l1.624 1.623a.573.573 0 10.811-.811l-1.623-1.624zM6.975 6.638a.572.572 0 00.812 0 .573.573 0 000-.811L6.164 4.203a.573.573 0 10-.812.812l1.623 1.623z" fill="#A0C1E0"/><path d="M15.5 7.463a6.897 6.897 0 00-6.889 6.889.574.574 0 101.148 0A5.747 5.747 0 0115.5 8.61a.574.574 0 100-1.148z" fill="#A0C1E0"/></svg>