<svg width="41" height="43" viewBox="0 0 41 43" fill="none" xmlns="http://www.w3.org/2000/svg"><path d="M39.58 41h-1.83V14.47a2.24 2.24 0 00-2.24-2.24h-4.09a2.24 2.24 0 00-2.24 2.24V41h-4.64V26.5a2.24 2.24 0 00-2.24-2.25h-4.09A2.25 2.25 0 0016 26.5V41h-4.67v-7.5a2.25 2.25 0 00-2.24-2.25H5a2.25 2.25 0 00-2.24 2.25V41H.83a.84.84 0 00-.587 1.428.83.83 0 00.587.243h38.75a.83.83 0 00.587-1.42.84.84 0 00-.587-.25zM9.66 41H4.43v-7.5a.58.58 0 01.57-.58h4.09a.58.58 0 01.57.58V41zm13.21 0h-5.23V26.5a.58.58 0 01.57-.58h4.09a.568.568 0 01.57.58V41zm13.22 0h-5.24V14.47a.58.58 0 01.57-.58h4.09a.58.58 0 01.58.58V41zM37.75.88a.87.87 0 00-.24-.64.86.86 0 00-.63-.24h-5.09a.83.83 0 00-.79.83.84.84 0 00.83.84h3.12l-8.28 8.24-3.11-3.11a.81.81 0 00-1.15 0l-15 15a.85.85 0 000 1.18.86.86 0 00.59.24.84.84 0 00.57-.22L23 8.57l3.11 3.11a.83.83 0 001.17 0l8.84-8.83v2.81a.83.83 0 101.66 0V.88h-.03zM5.17 26.12a.83.83 0 100-1.66.83.83 0 000 1.66z" fill="#A0C1E0"/></svg>