<svg width="43" height="43" viewBox="0 0 43 43" fill="none" xmlns="http://www.w3.org/2000/svg"><path d="M38.589 0H3.513A3.513 3.513 0 000 3.513V28.02a3.523 3.523 0 003.513 3.513h11.804l-1.174 6.351h-2.747a2.103 2.103 0 100 4.207h19.31a2.104 2.104 0 000-4.207h-2.758l-1.154-6.31H38.59a3.513 3.513 0 003.502-3.513V3.554A3.514 3.514 0 0038.59 0zM27.356 39.283h3.35a.704.704 0 010 1.41h-19.32a.705.705 0 010-1.41h8.955a.705.705 0 100-1.399h-4.769l1.144-6.31h8.66l1.173 6.31h-1.99a.704.704 0 100 1.399h2.797zM40.692 28.05a2.103 2.103 0 01-2.103 2.104H3.513a2.114 2.114 0 01-2.114-2.104v-2.093h39.293v2.093zm0-3.502H1.4V3.513a2.114 2.114 0 012.114-2.114H38.59a2.114 2.114 0 012.103 2.114v21.035z" fill="#A0C1E0"/><path d="M18.942 14.03h-7.015V7.016a.705.705 0 00-.694-.704 8.424 8.424 0 108.424 8.424.706.706 0 00-.715-.704zm-7.71 7.72a7.015 7.015 0 01-.694-14v6.985a.684.684 0 00.694.695h6.985a7.035 7.035 0 01-6.984 6.32z" fill="#A0C1E0"/><path d="M14.033 3.513a.695.695 0 00-.705.694v7.72a.705.705 0 00.705.705h7.72a.695.695 0 00.694-.705 8.413 8.413 0 00-8.414-8.414zm.704 7.72v-6.29a7.046 7.046 0 016.28 6.29h-6.28zm23.85-8.425h-14.03a.705.705 0 00-.705.705v18.952a.705.705 0 00.704.704h14.03a.704.704 0 00.695-.704V3.513a.704.704 0 00-.694-.705zm-.705 18.942H25.25V4.207h12.63V21.75z" fill="#A0C1E0"/><path d="M31.575 6.31h-4.217a.705.705 0 000 1.41h4.217a.704.704 0 100-1.41zm4.166 2.809h-8.383a.705.705 0 000 1.41h8.383a.705.705 0 000-1.41zm-4.168 2.808h-4.217a.695.695 0 00-.695.705.684.684 0 00.695.694h4.217a.694.694 0 00.694-.694.705.705 0 00-.694-.705zm4.169 2.808h-8.384a.704.704 0 000 1.4h8.384a.705.705 0 000-1.4zm-4.169 2.808h-4.217a.684.684 0 00-.695.694.695.695 0 00.695.705h4.217a.705.705 0 00.694-.705.694.694 0 00-.694-.694zm-9.109 9.813h-2.818a.705.705 0 100 1.41h2.818a.705.705 0 100-1.41z" fill="#A0C1E0"/></svg>