<svg width="43" height="43" viewBox="0 0 43 43" fill="none" xmlns="http://www.w3.org/2000/svg"><path d="M31.36 0H11.64C5.22 0 0 5.221 0 11.64v19.72C0 37.78 5.221 43 11.64 43h19.72C37.78 43 43 37.779 43 31.36V11.64C43 5.22 37.779 0 31.36 0zm9.12 31.36c0 5.029-4.091 9.12-9.12 9.12H11.64c-5.029 0-9.12-4.091-9.12-9.12V11.64c0-5.029 4.091-9.12 9.12-9.12h19.72c5.029 0 9.12 4.091 9.12 9.12v19.72z" fill="#A0C1E0"/><path d="M21.5 9.742c-6.483 0-11.758 5.274-11.758 11.758 0 6.483 5.274 11.757 11.758 11.757 6.483 0 11.757-5.274 11.757-11.757S27.983 9.742 21.5 9.742zm0 20.994c-5.093 0-9.237-4.143-9.237-9.236 0-5.093 4.144-9.237 9.237-9.237s9.236 4.144 9.236 9.237-4.143 9.236-9.236 9.236zM33.54 5.567a3.478 3.478 0 00-3.474 3.474 3.478 3.478 0 003.475 3.475 3.478 3.478 0 003.474-3.475 3.478 3.478 0 00-3.474-3.474zm0 4.427a.954.954 0 11.954-.953.955.955 0 01-.953.953z" fill="#A0C1E0"/></svg>