<svg width="246" height="265" viewBox="0 0 246 265" fill="none" xmlns="http://www.w3.org/2000/svg"><path d="M192.2 80.9c3.6-3.6 5.6-8.5 5.6-13.6s-2.1-10-5.6-13.6c-3.6-3.6-8.5-5.6-13.6-5.6s-10 2.1-13.6 5.6c-3.6 3.6-5.6 8.5-5.6 13.6s2.1 10 5.6 13.6c3.6 3.6 8.5 5.6 13.6 5.6s10-2 13.6-5.6zm-31.8-13.6c0-4.8 2-9.5 5.4-12.9 3.4-3.4 8.1-5.3 12.9-5.3 4.8 0 9.5 1.9 12.9 5.3 3.4 3.4 5.3 8.1 5.3 12.9 0 4.8-1.9 9.5-5.3 12.9-3.4 3.4-8.1 5.3-12.9 5.3-4.8 0-9.5-1.9-12.9-5.3-3.4-3.4-5.4-8.1-5.4-12.9z" fill="#3F3F3F"/><path d="M0 10.2C11 4.3 23.6 1 36.9 1h128.9c21 0 40.9 8.2 55.8 23.1 14.9 14.9 23.1 34.7 23.1 55.8v128.9c0 21.6-8.7 41.1-22.8 55.4h1.4c13.8-14.4 22.4-33.9 22.4-55.4V79.9c0-21.3-8.3-41.4-23.4-56.5C207.2 8.3 187.1 0 165.8 0H36.9C23.6 0 11 3.3 0 9.1v1.1z" fill="#3F3F3F"/><path d="M101.4 76.7c-37.3 0-67.6 30.3-67.6 67.6s30.3 67.6 67.6 67.6 67.6-30.3 67.6-67.6c0-37.2-30.3-67.6-67.6-67.6zm0 134.3c-36.7 0-66.6-29.9-66.6-66.6 0-36.7 29.9-66.6 66.6-66.6 36.7 0 66.6 29.9 66.6 66.6 0 36.7-29.9 66.6-66.6 66.6z" fill="#3F3F3F"/></svg>