<svg width="155" height="138" viewBox="0 0 155 138" fill="none" xmlns="http://www.w3.org/2000/svg"><g clip-path="url(#clip0)" stroke="#fff" stroke-width="2"><g opacity=".05"><path d="M43.852 1h74.296C141.776 1 161 20.224 161 43.852v74.297C161 141.776 141.776 161 118.149 161H43.852C20.224 161 1 141.776 1 118.149V43.852C1 20.224 20.224 1 43.852 1z"/><path d="M41.91 81c0-21.555 17.536-39.091 39.09-39.091 21.554 0 39.091 17.536 39.091 39.09 0 21.555-17.537 39.092-39.09 39.092-21.555 0-39.092-17.537-39.092-39.091zm74.727-46.91c0-5.312 4.322-9.636 9.635-9.636 5.314 0 9.637 4.323 9.637 9.636 0 5.313-4.324 9.637-9.637 9.637-5.312 0-9.635-4.324-9.635-9.637z"/></g><g opacity=".05"><path d="M43.852 1h74.296C141.776 1 161 20.224 161 43.852v74.297C161 141.776 141.776 161 118.149 161H43.852C20.224 161 1 141.776 1 118.149V43.852C1 20.224 20.224 1 43.852 1z"/><path d="M41.91 81c0-21.555 17.536-39.091 39.09-39.091 21.554 0 39.091 17.536 39.091 39.09 0 21.555-17.537 39.092-39.09 39.092-21.555 0-39.092-17.537-39.092-39.091zm74.727-46.91c0-5.312 4.322-9.636 9.635-9.636 5.314 0 9.637 4.323 9.637 9.636 0 5.313-4.324 9.637-9.637 9.637-5.312 0-9.635-4.324-9.635-9.637z"/></g></g><defs><clipPath id="clip0"><path fill="#fff" d="M0 0h155v138H0z"/></clipPath></defs></svg>