<svg width="223" height="213" viewBox="0 0 223 213" fill="none" xmlns="http://www.w3.org/2000/svg"><g clip-path="url(#clip0)" opacity=".05"><path d="M225.359 177.962l-.021-.008c-9.923-3.817-19.28-6.681-28.665-9.458-1.28-.379-2.562-.756-3.846-1.134-8.114-2.39-16.312-4.804-24.937-7.793l-.062-.022-.059-.029c-.841-.421-2.72-1.467-4.384-3.752-1.67-2.293-3.069-5.76-3.069-10.933 0-1.913-.209-3.144-.767-3.911-.496-.682-1.446-1.217-3.594-1.217-.182 0-.365.001-.52-.007a2.22 2.22 0 01-.551-.085 1.343 1.343 0 01-.662-.44 1.542 1.542 0 01-.291-.606c-.049-.193-.083-.47-.116-.737-.013-.097-.024-.192-.037-.282a15.608 15.608 0 00-.323-1.669l-.009-.037-.006-.038c-1.284-7.7-.979-12.293-.836-14.452.029-.45.052-.795.052-1.039 0-1.142.583-1.958 1.152-2.528.281-.282.583-.528.834-.73l.04-.033c.22-.177.387-.313.521-.439 6.679-8.945 8.186-20.15 8.186-26.159v-1.623l1.34.675.006-.004c.108-.064.604-.473.972-2.31l.018-.09.034-.084c.744-1.864 1.115-3.162 1.493-4.58l.138-.519a71.078 71.078 0 011.415-4.81l.009-.027.011-.028c.7-1.75 1.061-4.44.707-6.652-.176-1.103-.516-1.993-.991-2.586-.424-.53-.972-.851-1.739-.88-.702.173-1.311.29-1.8.274a1.868 1.868 0 01-.894-.237 1.523 1.523 0 01-.648-.762 2.401 2.401 0 01-.151-.773 7.963 7.963 0 01.009-.738l.02-.38c.024-.422.051-.89.051-1.451V36.828c-.748-8.755-5.838-13.87-10.275-16.829-6.131-3.83-8.459-5.38-11.55-7.703-1.704-1.279-2.539-2.725-2.408-4.422.12-1.558 1.054-3.103 2.208-4.642l.043-.057.05-.05c.69-.69 1.516-1.37 2.277-1.971-.449.058-.987.13-1.601.22a247.89 247.89 0 00-6.021.954c-4.506.768-9.436 1.718-12.059 2.466l-.008.002-.009.002c-11.507 3.07-22.032 6.092-31.041 13.597l-.02.016-.02.015c-6.025 4.52-11.092 11.157-11.092 18.363v26.086c0 .55 0 1.12-.054 1.628-.053.51-.171 1.087-.497 1.576-.36.54-.902.87-1.578.983-.613.102-1.324.025-2.125-.171-.486-.063-.793.011-.993.114-.205.106-.391.29-.551.603-.345.672-.476 1.748-.43 3.053.046 1.269.251 2.602.451 3.687.082.444.162.84.23 1.172l.042.21c.036.182.069.347.092.482.013.075.032.186.042.298.368 1.812.917 3.462 1.573 5.244.19.517.39 1.048.598 1.597a116.32 116.32 0 011.612 4.465l.012.036.01.036c.347 1.382.829 1.933 1.094 2.145a.874.874 0 00.293.165h.748l.174.783.364 1.665c.706 3.25 1.582 7.279 2.867 11.379 1.512 4.821 3.565 9.647 6.5 13.331.93.955 1.784 2.712 1.784 4.496v.083l-.014.082c-.375 2.245-.565 4.877-.757 7.571l-.005.059c-.187 2.623-.379 5.304-.759 7.623-.025.599-.28 1.481-.706 2.226-.439.766-1.275 1.746-2.59 1.746-1.625 0-2.633.633-3.191 1.47-.58.871-.767 2.104-.44 3.424l.029.118v.122c0 3.672-1.223 6.914-2.73 9.423-1.496 2.494-3.317 4.337-4.614 5.198l-.064.042-.07.032c-5.054 2.335-16.239 5.997-27.518 9.533a2703.258 2703.258 0 01-13.261 4.109c-6.31 1.943-11.824 3.642-15.272 4.789l-.014.004-.014.005c-3.782 1.136-6.153 2.249-7.748 3.402-1.552 1.122-2.412 2.313-3.118 3.712l-9.412 23.899c21.344.292 37.616 6.944 53.94 14.45 1.742.801 3.483 1.611 5.231 2.424 14.715 6.845 29.903 13.911 49.414 17.401l-11.291-19.758-.23-.4.157-.435 23.609-65.515-7.481-15.721-.68-1.429h18.49l-.681 1.429-7.484 15.721 23.612 65.515.181.5-.314.429-13.331 18.238 90.364-65.411zm0 0l.021.007m-.021-.007l.021.007m0 0l.819.271m-.819-.271l.819.271m-54.15 18.709h-1v1h1v-1zm0 0v-6.134m0 6.134h35.259m-35.259-6.134h35.259m-35.259 0v-1h-1v1h1zm35.259 6.134v1h1v-1h-1zm0 0v-6.134m0 0h1v-1h-1v1zm18.891-12.575c1.959.649 3.501 1.159 4.833 1.942m-4.833-1.942l4.833 1.942m0 0c1.452.855 2.662 2.047 3.734 4.184m-3.734-4.184l3.734 4.184m0 0l.894-.448-.894.448z" stroke="#fff" stroke-width="2"/></g><defs><clipPath id="clip0"><path fill="#fff" d="M0 0h223v213H0z"/></clipPath></defs></svg>