<svg width="128" height="26" viewBox="0 0 128 26" fill="none" xmlns="http://www.w3.org/2000/svg"><path d="M5.08 20.327H0v5.08h5.08v-5.08zm5.082-5.084H5.081v5.08h5.081v-5.08zm5.081 5.084h-5.08v5.08h5.08v-5.08zm5.081-5.084h-5.08v5.08h5.08v-5.08zm5.084 5.084h-5.08v5.08h5.08v-5.08zM15.243 10.162h-5.08v5.08h5.08v-5.08zm10.165 0h-5.08v5.08h5.08v-5.08zM20.324 5.08h-5.08v5.082h5.08V5.08zM25.408 0h-5.08v5.08h5.08V0zm12.635 20.327V2.54h2.666V0H30.306v2.54h2.601v20.327h7.802v-2.54h-2.666zm9.935 2.54h-7.27v2.54h7.27v-2.54zM65.453 2.54V0H47.978v2.54h2.602v17.787h-2.602v2.54h7.738V2.54h5.136v20.327h-2.803v2.54h10.204v-2.54h-2.8V7.621h2.8v-5.08h-2.8zm5.134 5.081h-2.333v4.993h2.333V7.62zm2.671 4.993h-2.67v2.668h2.67v-2.668zm2.498 2.669h-2.501v2.5h2.5v-2.5zm25.01 0h-2.5v2.5h2.5v-2.5zm0-10.203h-2.5v5.045h2.5V5.081zm5.237-2.54h2.4V0H98.266v2.54h2.503v2.54h5.234V2.54zm0 17.787h-2.616v-2.544h-2.617v5.084h-2.538v2.54h10.205v-2.54h-2.434v-2.54z" fill="#fff"/><path d="M98.266 10.125H95.71v2.489h-2.48V0H75.727v2.54h2.732v15.243H75.76v5.084h2.7v2.54h4.802V2.54h5.167v20.327h-2.7v2.54h10.205v-2.54h-2.702v-7.585h5.035v-5.157zM111.563.01v11.572H128V.009h-16.437zm7.762 8.72v.852h-5.206V8.73h.721V2.934h-.721v-.916h2.98v.916h-1.276V8.73h2.586v-.818h.916v.818zm6.287-5.796v.785h-.949v-.785h-2.587v2.25h1.115v-.778h.95V6.7h-.95v-.784h-1.115V8.73h2.587v-.818h.949v1.667h-5.206v-.852h.754V2.934h-.754v-.717h5.206v.717z" fill="#fff"/></svg>