<svg width="49" height="57" viewBox="0 0 49 57" fill="none" xmlns="http://www.w3.org/2000/svg"><path fill-rule="evenodd" clip-rule="evenodd" d="M24.5 57S49 38.031 49 24.5C49 10.969 38.031 0 24.5 0S0 10.969 0 24.5 24.5 57 24.5 57zm.5-25a8 8 0 100-16 8 8 0 000 16z" fill="#386A9A"/><circle cx="25" cy="24" r="11" fill="#386A9A"/><path d="M16.08 30.327H11v5.08h5.08v-5.08zm5.081-5.084h-5.08v5.08h5.08v-5.08zm5.082 5.084h-5.08v5.08h5.08v-5.08zm5.08-5.084h-5.08v5.08h5.08v-5.08zm5.084 5.084h-5.08v5.08h5.08v-5.08zM26.243 20.162h-5.08v5.08h5.08v-5.08zm10.164 0h-5.08v5.08h5.08v-5.08zm-5.084-5.082h-5.08v5.082h5.08V15.08zM36.407 10h-5.08v5.08h5.08V10z" fill="#fff"/></svg>