<svg width="230" height="224" viewBox="0 0 230 224" fill="none" xmlns="http://www.w3.org/2000/svg"><g clip-path="url(#clip0)" stroke="#000" stroke-width="2" opacity=".05"><path d="M209.109 96.201h0L119.406 6.485c-4.897-4.885-12.822-4.828-17.656-.007-4.861 4.874-4.86 12.789 0 17.655l107.359 72.068zm0 0a12.46 12.46 0 010 17.643c-4.866 4.865-12.777 4.865-17.642 0l-.707.707.707-.707-89.717-89.71L209.109 96.2zM94.693 40.823h0l.31-1.551 81.325 81.318-1.557.31h-.001c-23.677 4.739-45.852 16.455-64.143 31.883L63.123 105.28c15.432-18.31 26.839-40.79 31.57-64.457zM20.168 149.501l32.648-32.642 46.231 46.23-32.645 32.646c-7.523 7.522-19.685 7.492-27.178 0l-19.056-19.057c-7.523-7.523-7.492-19.685 0-27.177 0 0 0 0 0 0zm27.177 19.063a7.735 7.735 0 0010.943 0l9.528-9.528a7.737 7.737 0 000-10.943 7.737 7.737 0 00-10.942 0l-9.529 9.529a7.735 7.735 0 000 10.942zm80.544 30.756l-.718.719.729.707 7.187 6.963c4.862 4.868 4.86 12.778-.005 17.644l.707.707-.708-.707c-4.875 4.876-12.807 4.847-17.634.007l-.006-.006-.007-.006-29.843-28.917 17.644-17.644 12.986 12.582.707.685.696-.696 9.318-9.318.001-.001c3.032-3.048 3.016-7.932-.002-10.935l-.001-.001-7.355-7.366a126.285 126.285 0 019.246-6.982l6.225 6.229v.001c7.498 7.485 7.523 19.647-.001 27.169h0l-9.166 9.166zM150.08 6.738A5.734 5.734 0 01155.818 1a5.735 5.735 0 015.739 5.738v13.477a5.735 5.735 0 01-5.739 5.738 5.734 5.734 0 01-5.738-5.738V6.738zm46.168 48.168h13.477a5.734 5.734 0 015.738 5.739 5.734 5.734 0 01-5.738 5.738h-13.477a5.734 5.734 0 01-5.738-5.738 5.734 5.734 0 015.738-5.739zm-9.42-17.158h0a5.736 5.736 0 01-8.114 0 5.737 5.737 0 010-8.114l13.477-13.477a5.736 5.736 0 018.114 0 5.735 5.735 0 010 8.115l-13.477 13.476z"/></g><defs><clipPath id="clip0"><path fill="#fff" d="M0 0h230v224H0z"/></clipPath></defs></svg>