<svg width="221" height="256" viewBox="0 0 221 256" fill="none" xmlns="http://www.w3.org/2000/svg"><g clip-path="url(#clip0)" stroke="#fff" stroke-width="2" opacity=".05"><path d="M162.005 25.036l.186.763h10.056v27.38c0 6.589-5.351 11.947-11.922 11.947h-57.749c-6.572 0-11.923-5.358-11.923-11.947V25.8h10.055l.186-.763C104.254 11.254 116.683 1 131.45 1c14.766 0 27.195 10.254 30.555 24.036z"/><path d="M104.606 170.381h0l-16.5 16.532-.707-.706.707.706a8.673 8.673 0 01-6.153 2.554 8.674 8.674 0 01-6.154-2.553h0l-8.251-8.264h0c-3.398-3.404-3.4-8.922-.003-12.327h0a8.692 8.692 0 0112.308-.002l2.098 2.101 10.347-10.367.707.706-.707-.706a8.69 8.69 0 0112.307 0l.001 12.326zm0 0c3.397-3.405 3.397-8.923 0-12.326v12.326zm0-49.593h0l-16.5 16.532a8.672 8.672 0 01-6.153 2.553 8.668 8.668 0 01-6.154-2.553l28.807-16.532zm0 0a8.728 8.728 0 000-12.326v12.326zm-28.807 115.72v.001a8.672 8.672 0 006.154 2.552 8.67 8.67 0 006.153-2.554s0 0 0 0l16.499-16.531a8.726 8.726 0 000-12.326 8.691 8.691 0 00-12.308 0l-10.346 10.367-2.098-2.102a8.693 8.693 0 00-12.308.003h0c-3.396 3.404-3.395 8.923.003 12.326l.707-.707-.707.707 8.251 8.264zm-8.251-107.454l8.251 8.266 28.806-28.858a8.69 8.69 0 00-12.307 0h0l-10.346 10.366-2.098-2.101h0a8.69 8.69 0 00-12.308.001c-3.397 3.404-3.397 8.923.001 12.326 0 0 0 0 0 0zM189.65 25.799h11.922c15.065 0 27.326 12.282 27.326 27.38v181.848c0 15.099-12.261 27.381-27.326 27.381H61.326C46.261 262.408 34 250.126 34 235.027V53.179C34 38.08 46.261 25.8 61.326 25.8H73.25v27.38c0 16.2 13.153 29.381 29.327 29.381h57.749c16.173 0 29.326-13.18 29.326-29.38V25.798zm-58.199 213.262h57.747c4.807 0 8.702-3.904 8.701-8.717 0-4.812-3.894-8.717-8.702-8.717h-57.746c-4.808 0-8.702 3.905-8.702 8.717 0 4.812 3.894 8.717 8.702 8.717zm0-49.594h57.747c4.807 0 8.702-3.905 8.701-8.717 0-4.813-3.894-8.717-8.702-8.717h-57.746c-4.808 0-8.702 3.904-8.702 8.717 0 4.812 3.894 8.717 8.702 8.717zm0-49.594h57.747c4.807 0 8.702-3.904 8.701-8.717 0-4.812-3.894-8.717-8.702-8.717h-57.746c-4.808 0-8.702 3.905-8.702 8.717 0 4.813 3.894 8.717 8.702 8.717z"/></g><defs><clipPath id="clip0"><path fill="#fff" d="M0 0h221v256H0z"/></clipPath></defs></svg>