<svg width="32" height="30" fill="none" xmlns="http://www.w3.org/2000/svg"><mask id="a" fill="#fff"><path fill-rule="evenodd" clip-rule="evenodd" d="M3 30h29V0H3v11.882L0 15l3 3.118V30z"/></mask><path fill-rule="evenodd" clip-rule="evenodd" d="M3 30h29V0H3v11.882L0 15l3 3.118V30z" fill="#fff"/><path d="M32 30v1h1v-1h-1zM3 30H2v1h1v-1zM32 0h1v-1h-1v1zM3 0v-1H2v1h1zm0 11.882l.72.694.28-.29v-.404H3zM0 15l-.72-.693-.668.693.667.693L0 15zm3 3.118h1v-.403l-.28-.29-.72.693zM32 29H3v2h29v-2zM31 0v30h2V0h-2zM3 1h29v-2H3v2zm1 10.882V0H2v11.882h2zM.72 15.693l3-3.117-1.44-1.387-3 3.118 1.44 1.386zm3 1.731l-3-3.117-1.44 1.386 3 3.118 1.44-1.387zM4 30V18.118H2V30h2z" fill="#E4E4E4" mask="url(#a)"/><path d="M15.58 21v-2.72h3.152V21H15.58zm.656-3.648l-.4-2.672.128-.144c.896-.075 1.536-.219 1.92-.432.394-.213.592-.501.592-.864a.734.734 0 00-.32-.64c-.203-.16-.496-.24-.88-.24-.768 0-1.547.352-2.336 1.056l-1.6-2.112c1.12-1.12 2.501-1.68 4.144-1.68 1.194 0 2.16.304 2.896.912.736.608 1.104 1.435 1.104 2.48 0 .939-.278 1.67-.832 2.192-.544.512-1.307.885-2.288 1.12l-.192 1.024h-1.936z" fill="#C4C4C4"/></svg>