<svg width="28" height="28" viewBox="0 0 28 28" fill="none" xmlns="http://www.w3.org/2000/svg"><path d="M28 13.341h-1.812a12.14 12.14 0 00-11.53-11.53V0h-1.317v1.812a12.14 12.14 0 00-11.53 11.53H0v1.317h1.812a12.14 12.14 0 0011.53 11.53V28h1.317v-1.812a12.14 12.14 0 0011.53-11.53H28v-1.317zm-13.341 11.53v-1.812H13.34v1.812c-5.434-.331-9.88-4.777-10.21-10.212h1.812V13.34H3.13c.33-5.434 4.776-9.88 10.211-10.21v1.812h1.318V3.13c5.435.33 9.882 4.777 10.212 10.212h-1.812v1.318h1.812c-.33 5.435-4.777 9.882-10.212 10.212z" fill="#A0C1E0"/></svg>