<svg width="26" height="26" viewBox="0 0 26 26" fill="none" xmlns="http://www.w3.org/2000/svg"><path d="M24.819 14.182c-.354 0-.59.236-.59.59v7.683c0 .354-.237.59-.592.59H2.364c-.354 0-.59-.236-.59-.59v-7.682c0-.355-.237-.591-.591-.591-.355 0-.591.236-.591.59v7.683a1.74 1.74 0 001.773 1.772h21.272a1.741 1.741 0 001.773-1.772v-7.682c0-.355-.236-.591-.591-.591z" fill="#A0C1E0"/><path d="M24.227 5.91H1.773A1.741 1.741 0 000 7.681v3.782C0 12.29.59 13 1.36 13.177l9.276 2.069v1.89c0 .355.237.591.591.591h3.546c.354 0 .59-.236.59-.59v-1.892l9.278-2.068A1.774 1.774 0 0026 11.464V7.682a1.741 1.741 0 00-1.773-1.773zM14.182 16.545h-2.364v-2.364h2.364v2.364zm10.636-5.082a.575.575 0 01-.473.59l-8.981 2.01v-.473c0-.355-.237-.59-.591-.59h-3.546c-.354 0-.59.235-.59.59v.473l-8.982-2.01a.575.575 0 01-.473-.59V7.682c0-.355.236-.591.59-.591h22.455c.355 0 .591.236.591.59v3.783zm-8.863-9.69h-5.909a1.741 1.741 0 00-1.773 1.772v.591c0 .355.237.591.591.591.355 0 .591-.236.591-.59v-.592c0-.354.237-.59.591-.59h5.91c.354 0 .59.236.59.59v.591c0 .355.236.591.591.591s.59-.236.59-.59v-.592a1.74 1.74 0 00-1.772-1.772z" fill="#A0C1E0"/></svg>