<svg width="43" height="43" viewBox="0 0 43 43" fill="none" xmlns="http://www.w3.org/2000/svg"><path fill-rule="evenodd" clip-rule="evenodd" d="M7.829.058c0 .034-.175.059-.41.059-.233 0-.408.025-.408.058 0 .032-.132.059-.292.059-.16 0-.292.026-.292.058s-.08.059-.176.059c-.096 0-.175.026-.175.058s-.079.058-.175.058c-.097 0-.175.027-.175.059s-.08.058-.176.058c-.096 0-.175.027-.175.059S5.322.7 5.258.7s-.117.026-.117.059c0 .032-.052.058-.117.058-.064 0-.116.026-.116.058s-.053.059-.117.059c-.065 0-.117.026-.117.058s-.053.059-.117.059-.117.026-.117.058-.047.058-.104.058c-.057 0-.142.053-.188.117-.046.065-.125.117-.175.117-.05 0-.13.053-.175.117-.047.064-.12.117-.165.117-.044 0-.154.079-.244.175-.09.097-.193.175-.23.175-.084 0-1.173 1.09-1.173 1.174 0 .036-.078.139-.175.229-.096.09-.175.2-.175.244 0 .044-.053.118-.117.165-.064.046-.117.125-.117.175 0 .05-.052.129-.117.175-.064.046-.117.131-.117.188 0 .057-.026.104-.058.104s-.058.053-.058.117-.027.117-.059.117-.058.052-.058.117c0 .064-.027.117-.059.117s-.058.052-.058.116c0 .065-.026.117-.058.117-.033 0-.059.053-.059.117s-.026.117-.058.117-.059.079-.059.175c0 .097-.026.176-.058.176s-.059.078-.059.175c0 .096-.026.175-.058.175s-.058.079-.058.175c0 .097-.027.176-.059.176s-.058.131-.058.292c0 .16-.027.292-.059.292-.033 0-.058.175-.058.409 0 .234-.025.409-.059.409-.038 0-.058 5.9-.058 17.585V43h17.82c11.84 0 17.819-.02 17.819-.058 0-.033.131-.059.292-.059.16 0 .292-.026.292-.058s.105-.059.233-.059c.13 0 .234-.026.234-.058s.105-.058.234-.058c.128 0 .234-.027.234-.059s.078-.058.175-.058c.096 0 .175-.027.175-.059s.053-.058.117-.058.117-.026.117-.059c0-.032.052-.058.117-.058.064 0 .116-.026.116-.059 0-.032.053-.058.117-.058.065 0 .117-.026.117-.058s.053-.059.117-.059.117-.026.117-.058.053-.059.117-.059.117-.026.117-.058.046-.059.104-.059c.057 0 .141-.052.188-.116.046-.065.125-.117.175-.117.05 0 .129-.053.175-.117.047-.064.12-.117.164-.117.044 0 .18-.105.304-.234.123-.128.253-.233.288-.233.084 0 .939-.856.939-.94 0-.036.078-.139.175-.229.096-.09.175-.195.175-.233 0-.039.079-.144.175-.234.097-.09.176-.206.176-.257 0-.052.026-.094.058-.094s.058-.046.058-.104c0-.057.053-.142.117-.188.065-.046.117-.13.117-.188 0-.057.027-.104.059-.104s.058-.053.058-.117.026-.117.058-.117c.033 0 .059-.078.059-.175 0-.096.026-.175.058-.175s.059-.053.059-.117.026-.117.058-.117.059-.079.059-.175c0-.096.026-.175.058-.175s.059-.08.059-.176c0-.096.026-.175.058-.175s.058-.105.058-.234c0-.128.027-.233.059-.233s.058-.132.058-.292c0-.161.026-.293.059-.293.038 0 .058-5.998.058-17.877V0H25.414C13.73 0 7.83.02 7.83.058zm2.454 5.259c0 .032.105.058.233.058.129 0 .234.026.234.058 0 .033.053.059.117.059s.117.026.117.058.052.059.117.059c.064 0 .116.026.116.058s.053.059.117.059c.065 0 .117.026.117.058s.047.058.104.058c.057 0 .142.053.188.117.046.065.119.117.16.117.093 0 .717.614.717.706 0 .036.078.139.175.229.096.09.175.206.175.257 0 .051.026.093.058.093.033 0 .059.053.059.117 0 .065.026.117.058.117.033 0 .059.079.059.175 0 .097.026.176.058.176s.059.079.059.175c0 .096.026.175.058.175s.059.105.059.234c0 .128.026.234.058.234.035 0 .058.233.058.584 0 .35-.023.584-.058.584-.032 0-.059.131-.059.292 0 .16-.026.292-.058.292s-.058.08-.058.176c0 .096-.027.175-.059.175s-.058.052-.058.117c0 .064-.027.117-.059.117s-.058.052-.058.116c0 .065-.026.117-.059.117-.032 0-.058.047-.058.104 0 .057-.053.142-.117.188-.064.047-.117.119-.117.16 0 .099-.851.95-.95.95-.041 0-.113.053-.16.117-.046.065-.13.117-.188.117-.057 0-.104.026-.104.058 0 .033-.052.059-.117.059-.064 0-.117.026-.117.058 0 .033-.052.059-.116.059-.065 0-.117.026-.117.058s-.105.059-.234.059c-.128 0-.233.026-.233.058s-.132.059-.293.059c-.16 0-.292.026-.292.058 0 .034-.195.058-.467.058-.273 0-.468-.024-.468-.058 0-.032-.131-.059-.292-.059-.16 0-.292-.026-.292-.058s-.079-.058-.175-.058c-.096 0-.175-.027-.175-.059s-.08-.058-.176-.058c-.096 0-.175-.027-.175-.059s-.047-.058-.104-.058c-.057 0-.142-.053-.188-.117-.046-.064-.12-.117-.165-.117-.044 0-.154-.079-.244-.175-.09-.096-.193-.175-.23-.175-.086 0-.471-.386-.471-.472 0-.036-.079-.14-.175-.23-.097-.09-.176-.205-.176-.257 0-.05-.026-.093-.058-.093s-.058-.053-.058-.117-.027-.117-.059-.117-.058-.052-.058-.117c0-.064-.027-.116-.059-.116s-.058-.08-.058-.176c0-.096-.026-.175-.059-.175-.032 0-.058-.079-.058-.175 0-.097-.026-.175-.058-.175-.037 0-.059-.331-.059-.877 0-.545.022-.876.059-.876.032 0 .058-.105.058-.234 0-.128.026-.233.058-.233.033 0 .059-.08.059-.176 0-.096.026-.175.058-.175s.059-.053.059-.117.026-.117.058-.117.059-.047.059-.104c0-.057.052-.142.116-.188.065-.046.117-.118.117-.16 0-.098.969-1.067 1.067-1.067.042 0 .114-.052.16-.117.046-.064.131-.116.188-.116.057 0 .104-.027.104-.059s.053-.058.117-.058.117-.027.117-.059.079-.058.175-.058c.097 0 .176-.026.176-.059 0-.032.078-.058.175-.058.096 0 .175-.026.175-.058 0-.037.35-.059.935-.059.584 0 .935.022.935.059zm12.152 0c0 .032.105.058.234.058.128 0 .233.026.233.058 0 .033.053.059.117.059s.117.026.117.058.053.059.117.059.117.026.117.058.052.059.116.059c.065 0 .117.026.117.058s.047.058.104.058c.057 0 .142.053.188.117.047.065.119.117.16.117.1 0 .717.617.717.716 0 .042.052.114.117.16.064.047.116.126.116.176 0 .05.053.129.117.175.065.046.117.131.117.188 0 .057.026.104.059.104.032 0 .058.079.058.175 0 .097.026.176.058.176s.059.079.059.175c0 .096.026.175.058.175s.059.105.059.234c0 .128.026.234.058.234.035 0 .058.233.058.584 0 .35-.023.584-.058.584-.032 0-.058.131-.058.292 0 .16-.027.292-.059.292s-.058.08-.058.176c0 .096-.026.175-.059.175-.032 0-.058.052-.058.117 0 .064-.026.117-.058.117-.033 0-.059.052-.059.116 0 .065-.026.117-.058.117s-.059.047-.059.104c0 .057-.052.142-.117.188-.064.047-.116.119-.116.16 0 .099-.852.95-.95.95-.042 0-.114.053-.16.117-.047.065-.131.117-.189.117-.057 0-.104.026-.104.058 0 .033-.052.059-.116.059-.065 0-.117.026-.117.058 0 .033-.053.059-.117.059s-.117.026-.117.058-.105.059-.234.059c-.128 0-.233.026-.233.058s-.132.059-.293.059c-.16 0-.292.026-.292.058 0 .034-.194.058-.467.058s-.467-.024-.467-.058c0-.032-.132-.059-.293-.059-.16 0-.292-.026-.292-.058s-.079-.058-.175-.058c-.096 0-.175-.027-.175-.059s-.079-.058-.175-.058c-.097 0-.176-.027-.176-.059s-.046-.058-.104-.058c-.057 0-.142-.053-.188-.117-.046-.064-.12-.117-.165-.117-.044 0-.154-.079-.244-.175-.09-.096-.193-.175-.23-.175-.086 0-.47-.386-.47-.472 0-.036-.08-.14-.176-.23-.097-.09-.175-.205-.175-.257 0-.05-.027-.093-.059-.093s-.058-.053-.058-.117-.027-.117-.059-.117-.058-.052-.058-.117c0-.064-.026-.116-.059-.116-.032 0-.058-.08-.058-.176 0-.096-.026-.175-.058-.175s-.059-.079-.059-.175c0-.097-.026-.175-.058-.175-.037 0-.059-.35-.059-.935 0-.584.022-.935.059-.935.032 0 .058-.079.058-.175 0-.097.026-.175.059-.175.032 0 .058-.08.058-.176 0-.096.026-.175.058-.175.033 0 .059-.053.059-.117s.026-.117.058-.117.059-.047.059-.104c0-.057.052-.142.117-.188.064-.046.116-.118.116-.16 0-.098.969-1.067 1.067-1.067.042 0 .114-.052.16-.117.047-.064.131-.116.188-.116.058 0 .104-.027.104-.059s.053-.058.117-.058c.065 0 .117-.027.117-.059s.079-.058.175-.058c.097 0 .176-.026.176-.059 0-.032.079-.058.175-.058.096 0 .175-.026.175-.058 0-.037.35-.059.935-.059.584 0 .935.022.935.059zm12.152 0c0 .032.105.058.234.058.128 0 .233.026.233.058 0 .033.053.059.117.059.065 0 .117.026.117.058s.053.059.117.059.117.026.117.058.052.059.117.059c.064 0 .116.026.116.058s.047.058.104.058c.058 0 .142.053.189.117.046.065.118.117.16.117.099 0 .716.617.716.716 0 .042.053.114.117.16.064.047.117.126.117.176 0 .05.052.129.117.175.064.046.116.131.116.188 0 .057.027.104.059.104s.058.079.058.175c0 .097.026.176.059.176.032 0 .058.079.058.175 0 .096.026.175.058.175.033 0 .059.132.059.292 0 .161.026.292.058.292.035 0 .059.215.059.526 0 .312-.024.526-.059.526-.032 0-.058.131-.058.292 0 .16-.026.292-.059.292-.032 0-.058.08-.058.176 0 .096-.026.175-.058.175-.033 0-.059.052-.059.117 0 .064-.026.117-.058.117s-.059.052-.059.116c0 .065-.026.117-.058.117s-.058.047-.058.104c0 .057-.053.142-.117.188-.065.047-.117.119-.117.16 0 .099-.852.95-.95.95-.042 0-.114.053-.16.117-.047.065-.131.117-.188.117-.058 0-.104.026-.104.058 0 .033-.053.059-.117.059s-.117.026-.117.058c0 .033-.053.059-.117.059s-.117.026-.117.058-.105.059-.233.059c-.129 0-.234.026-.234.058s-.132.059-.292.059c-.161 0-.292.026-.292.058 0 .034-.195.058-.468.058s-.467-.024-.467-.058c0-.032-.132-.059-.292-.059-.161 0-.293-.026-.293-.058s-.078-.058-.175-.058c-.096 0-.175-.027-.175-.059s-.079-.058-.175-.058c-.097 0-.176-.027-.176-.059s-.046-.058-.104-.058c-.057 0-.141-.053-.188-.117-.046-.064-.12-.117-.164-.117-.045 0-.155-.079-.245-.175-.09-.096-.193-.175-.23-.175-.085 0-.47-.386-.47-.472 0-.036-.08-.14-.176-.23-.096-.09-.175-.205-.175-.257 0-.05-.027-.093-.059-.093s-.058-.053-.058-.117-.026-.117-.059-.117c-.032 0-.058-.052-.058-.117 0-.064-.026-.116-.058-.116s-.059-.08-.059-.176c0-.096-.026-.175-.058-.175s-.059-.079-.059-.175c0-.097-.026-.175-.058-.175-.037 0-.058-.35-.058-.935 0-.584.021-.935.058-.935.032 0 .058-.079.058-.175 0-.097.027-.175.059-.175s.058-.08.058-.176c0-.096.027-.175.059-.175s.058-.053.058-.117.026-.117.058-.117c.033 0 .059-.047.059-.104 0-.057.052-.142.117-.188.064-.046.117-.118.117-.16 0-.098.968-1.067 1.067-1.067.041 0 .113-.052.16-.117.046-.064.13-.116.188-.116.057 0 .104-.027.104-.059s.052-.058.116-.058c.065 0 .117-.027.117-.059s.08-.058.176-.058c.096 0 .175-.026.175-.059 0-.032.079-.058.175-.058.096 0 .175-.026.175-.058 0-.037.35-.059.935-.059.584 0 .935.022.935.059zM22.435 17.469c0 .032.105.058.234.058.128 0 .233.026.233.059 0 .032.053.058.117.058s.117.026.117.058c0 .033.053.059.117.059s.117.026.117.058.052.059.116.059c.065 0 .117.026.117.058s.047.059.104.059c.057 0 .142.052.188.116.047.065.119.117.16.117.1 0 .717.617.717.716 0 .042.052.114.117.16.064.047.116.126.116.176 0 .05.053.129.117.175.065.047.117.131.117.188 0 .058.026.104.059.104.032 0 .058.08.058.176 0 .096.026.175.058.175s.059.079.059.175c0 .096.026.175.058.175s.059.132.059.293c0 .16.026.292.058.292.034 0 .058.194.058.467s-.024.467-.058.467c-.032 0-.058.156-.058.35 0 .196-.026.352-.059.352-.032 0-.058.078-.058.175 0 .096-.026.175-.059.175-.032 0-.058.053-.058.117s-.026.117-.058.117c-.033 0-.059.052-.059.117 0 .064-.026.116-.058.116s-.059.047-.059.104c0 .058-.052.142-.117.189-.064.046-.116.118-.116.16 0 .098-.852.95-.95.95-.042 0-.114.052-.16.116-.047.065-.131.117-.189.117-.057 0-.104.027-.104.059s-.052.058-.116.058c-.065 0-.117.026-.117.059 0 .032-.08.058-.176.058-.096 0-.175.026-.175.058s-.079.059-.175.059c-.096 0-.175.026-.175.058 0 .033-.156.059-.35.059-.196 0-.352.026-.352.058 0 .033-.155.058-.35.058-.195 0-.35-.025-.35-.058 0-.032-.156-.058-.351-.058-.195 0-.35-.026-.35-.059 0-.032-.08-.058-.176-.058-.096 0-.175-.026-.175-.059 0-.032-.053-.058-.117-.058s-.117-.026-.117-.058c0-.033-.052-.059-.117-.059-.064 0-.117-.026-.117-.058s-.052-.059-.116-.059c-.065 0-.117-.026-.117-.058s-.042-.059-.094-.059c-.051 0-.167-.078-.257-.175-.09-.096-.194-.175-.23-.175-.086 0-.354-.267-.354-.353 0-.036-.105-.166-.234-.29-.128-.123-.233-.266-.233-.317 0-.05-.027-.092-.059-.092s-.058-.052-.058-.117c0-.064-.027-.116-.059-.116s-.058-.053-.058-.117-.026-.117-.059-.117c-.032 0-.058-.079-.058-.175 0-.097-.026-.176-.058-.176s-.059-.079-.059-.175c0-.096-.026-.175-.058-.175-.037 0-.059-.331-.059-.877 0-.545.022-.876.059-.876.032 0 .058-.105.058-.234 0-.128.026-.233.059-.233.032 0 .058-.08.058-.176 0-.096.026-.175.058-.175.033 0 .059-.052.059-.117 0-.064.026-.117.058-.117s.059-.046.059-.104c0-.057.052-.141.117-.188.064-.046.116-.118.116-.16 0-.098.969-1.067 1.067-1.067.042 0 .114-.052.16-.116.047-.065.131-.117.188-.117.058 0 .104-.027.104-.059s.053-.058.117-.058c.065 0 .117-.026.117-.059 0-.032.079-.058.175-.058.097 0 .176-.026.176-.058s.079-.059.175-.059c.096 0 .175-.026.175-.058 0-.037.35-.059.935-.059.584 0 .935.022.935.059zm-.584 12.386c0 .032.155.058.35.058.195 0 .35.026.35.058 0 .033.08.059.176.059.096 0 .175.026.175.058s.079.059.175.059c.097 0 .176.026.176.058s.046.059.104.059c.057 0 .142.052.188.116.046.065.125.117.175.117.05 0 .13.053.175.117.047.064.119.117.16.117.1 0 .717.617.717.716 0 .042.052.114.117.16.064.047.116.126.116.176 0 .05.053.129.117.175.065.046.117.13.117.188 0 .057.026.104.059.104.032 0 .058.079.058.175 0 .097.026.175.058.175s.059.08.059.176c0 .096.026.175.058.175.034 0 .059.175.059.41 0 .233.025.408.058.408.032 0 .058.105.058.234 0 .128-.026.233-.058.233s-.058.156-.058.351c0 .195-.026.35-.059.35-.032 0-.058.106-.058.234 0 .129-.026.234-.059.234-.032 0-.058.053-.058.117s-.026.117-.058.117c-.033 0-.059.052-.059.116 0 .065-.026.117-.058.117s-.059.053-.059.117-.026.117-.058.117-.059.041-.059.092c0 .05-.105.193-.233.317-.129.123-.234.255-.234.292 0 .086-.147.234-.234.234-.037 0-.168.105-.292.234-.123.128-.266.233-.317.233-.05 0-.092.026-.092.059 0 .032-.052.058-.117.058-.064 0-.116.026-.116.058 0 .033-.053.059-.117.059s-.117.026-.117.058-.079.059-.175.059c-.097 0-.176.026-.176.058s-.079.058-.175.058c-.096 0-.175.027-.175.059 0 .037-.35.058-.935.058-.584 0-.935-.021-.935-.058 0-.032-.079-.059-.175-.059-.096 0-.175-.026-.175-.058s-.08-.058-.176-.058c-.096 0-.175-.027-.175-.059s-.052-.058-.117-.058c-.064 0-.117-.026-.117-.059 0-.032-.046-.058-.104-.058-.057 0-.141-.053-.188-.117-.046-.064-.118-.117-.16-.117-.106 0-1.183-1.09-1.183-1.197 0-.048-.027-.088-.059-.088s-.058-.053-.058-.117-.027-.117-.059-.117-.058-.052-.058-.117c0-.064-.026-.116-.059-.116-.032 0-.058-.08-.058-.176 0-.096-.026-.175-.058-.175s-.059-.079-.059-.175c0-.097-.026-.175-.058-.175-.037 0-.059-.351-.059-.935 0-.584.022-.935.059-.935.032 0 .058-.105.058-.234 0-.128.026-.234.059-.234.032 0 .058-.052.058-.116 0-.065.026-.117.058-.117.033 0 .059-.053.059-.117s.026-.117.058-.117.059-.052.059-.117c0-.064.026-.116.058-.116s.059-.042.059-.094c0-.051.078-.167.175-.257.096-.09.175-.193.175-.23 0-.091.506-.588.6-.588.041 0 .113-.053.16-.117.046-.064.125-.117.175-.117.05 0 .129-.052.175-.117.047-.064.131-.116.188-.116.058 0 .104-.027.104-.059s.08-.058.176-.058c.096 0 .175-.027.175-.059s.079-.058.175-.058c.096 0 .175-.026.175-.059 0-.032.156-.058.35-.058.196 0 .352-.026.352-.058 0-.033.155-.059.35-.059.195 0 .35.026.35.059zm12.152 0c0 .032.155.058.35.058.195 0 .35.026.35.058 0 .033.08.059.176.059.096 0 .175.026.175.058s.08.059.176.059c.096 0 .175.026.175.058s.047.059.104.059c.057 0 .142.052.188.116.046.065.125.117.175.117.05 0 .13.053.176.117.046.064.118.117.16.117.099 0 .716.617.716.716 0 .042.053.114.117.16.064.047.117.126.117.176 0 .05.052.129.117.175.064.046.116.13.116.188 0 .057.027.104.059.104s.058.079.058.175c0 .097.026.175.059.175.032 0 .058.08.058.176 0 .096.026.175.058.175.034 0 .059.175.059.41 0 .233.025.408.058.408.032 0 .059.079.059.175 0 .097-.027.176-.059.176-.033 0-.058.175-.058.409 0 .233-.025.408-.059.408-.032 0-.058.106-.058.234 0 .129-.026.234-.058.234-.033 0-.059.053-.059.117s-.026.117-.058.117-.059.052-.059.116c0 .065-.026.117-.058.117s-.058.053-.058.117-.027.117-.059.117-.058.041-.058.092c0 .05-.106.193-.234.317-.129.123-.234.255-.234.292 0 .086-.147.234-.234.234-.037 0-.168.105-.292.234-.123.128-.266.233-.316.233-.051 0-.093.026-.093.059 0 .032-.052.058-.116.058-.065 0-.117.026-.117.058 0 .033-.053.059-.117.059s-.117.026-.117.058-.079.059-.175.059c-.097 0-.175.026-.175.058s-.08.058-.176.058c-.096 0-.175.027-.175.059 0 .037-.35.058-.935.058-.584 0-.935-.021-.935-.058 0-.032-.078-.059-.175-.059-.096 0-.175-.026-.175-.058s-.079-.058-.175-.058c-.097 0-.176-.027-.176-.059s-.052-.058-.116-.058c-.065 0-.117-.026-.117-.059 0-.032-.047-.058-.104-.058-.057 0-.142-.053-.188-.117-.047-.064-.119-.117-.16-.117-.107 0-1.184-1.09-1.184-1.197 0-.048-.027-.088-.059-.088s-.058-.053-.058-.117-.026-.117-.059-.117c-.032 0-.058-.052-.058-.117 0-.064-.026-.116-.058-.116s-.059-.08-.059-.176c0-.096-.026-.175-.058-.175s-.059-.079-.059-.175c0-.097-.026-.175-.058-.175-.037 0-.058-.351-.058-.935 0-.584.021-.935.058-.935.032 0 .058-.105.058-.234 0-.128.027-.234.059-.234s.058-.052.058-.116c0-.065.027-.117.059-.117s.058-.053.058-.117.026-.117.058-.117c.033 0 .059-.052.059-.117 0-.064.026-.116.058-.116s.059-.047.059-.104c0-.058.052-.142.117-.189.064-.046.116-.118.116-.16 0-.099.618-.716.717-.716.041 0 .113-.053.16-.117.046-.064.125-.117.175-.117.05 0 .129-.052.175-.117.047-.064.131-.116.189-.116.057 0 .104-.027.104-.059s.078-.058.175-.058c.096 0 .175-.027.175-.059s.079-.058.175-.058c.097 0 .175-.026.175-.059 0-.032.156-.058.351-.058.195 0 .35-.026.35-.058 0-.033.156-.059.351-.059.195 0 .35.026.35.059z" fill="#A0C1E0"/></svg>