<svg width="234" height="235" viewBox="0 0 234 235" fill="none" xmlns="http://www.w3.org/2000/svg"><path d="M81.36 219.62H59.54l-.11.07c-5.24 3-6.19 7.51-5.33 10.73a8.605 8.605 0 002 3.64h1.46a7.58 7.58 0 01-2.49-3.89c-1-3.68.79-7.24 4.74-9.55H82.2L90.49 175H1.1v-23.38H234v-1H.1V176h89.2l-7.94 43.62zM175.629 37h-25.35v9.12h25.35V37zm-1 8.12h-23.35V38h23.35v7.12z" fill="#F0F0F0"/><path d="M220.28 127.27V16.68H138.1v110.59h82.18zM139.1 17.68h80.18v108.59H139.1V17.68zm42.209 216.38c1.76-3.35 2-6.74.6-9.61a8.67 8.67 0 00-7.74-4.83h-18.92l-7.93-43.62h86.68v-1h-87.88l8.22 45.24.08.41h19.75a7.678 7.678 0 016.85 4.27c1.32 2.7 1 6-.87 9.17l1.16-.03zm-75.679-75.32v9.11H131v-9.11h-25.37zm24.37 8.11h-23.37v-7.11H130v7.11z" fill="#F0F0F0"/><path d="M234 142.5H1.1V1.44H234v-1H.1V143.5H234v-1z" fill="#F0F0F0"/><path d="M61.48 37A44.861 44.861 0 0023 58.54c-8.55 13.92-8.87 30.92-.88 46.64a37.408 37.408 0 0016.3 16.32 50.993 50.993 0 0023.13 5.77 45.13 45.13 0 0045.079-45.15v-.5h-44.63V37h-.52zm44.149 45.65a43.881 43.881 0 01-21.09 37.15c-13.62 8.36-30.26 8.67-45.67.84A36.48 36.48 0 0123 104.73c-7.82-15.41-7.52-32 .84-45.67A43.911 43.911 0 0161 38v44.62l44.63.03zm44.65 12.15h57.82v-9.12h-57.82v9.12zm1-8.12h55.82v7.12h-55.82v-7.12z" fill="#F0F0F0"/><path d="M122.87 65.88a45.198 45.198 0 00-45.15-45.14h-.5v45.64h45.65v-.5zm-44.65-.5V21.74a44.19 44.19 0 0143.64 43.64H78.22zm72.059-3.06h57.82v-9.11h-57.82v9.11zm1-8.11h55.82v7.11h-55.82v-7.11zm-1 56.79h25.35v-9.12h-25.35V111zm1-8.12h23.35V110h-23.35v-7.12zm24.35-33.44h-25.35v9.12h25.35v-9.12zm-1 8.12h-23.35v-7.12h23.35v7.12z" fill="#F0F0F0"/></svg>