<svg width="44" height="43" viewBox="0 0 44 43" fill="none" xmlns="http://www.w3.org/2000/svg"><path d="M41.724 0H2.041A2.042 2.042 0 000 2.042v30.103a.684.684 0 00.684.684h15.583l-1.093 5.474h-1.49a.684.684 0 00-.685.684v2.042h-1.368v1.368h20.514V41.04h-1.368v-2.042a.684.684 0 00-.684-.684h-1.501l-1.093-5.473h15.593a.684.684 0 00.684-.684V2.042A2.042 2.042 0 0041.723 0zM28.04 39.671h1.369v1.368H14.367v-1.368H28.04zm-11.477-1.368l1.092-5.474h8.455l1.093 5.474h-10.64zm25.845-6.842H1.368v-6.127h41.04v6.127zM32.829 6.127h-5.473a.684.684 0 00-.684.684v6.127h1.368V7.526h4.085v2.736h-2.716v1.369h2.736v3.42H29.41v1.359h2.736v3.42H29.41v1.37h2.736v2.736h-4.084v-5.473h-1.389v5.473h-2.737v-3.42c0-2.788 3.39-3.4 3.534-3.421a.944.944 0 00.234-.092.685.685 0 00.245-.94l-6.126-10.21a.786.786 0 00-.184-.185.725.725 0 00-1.021.184L14.49 16.113a.642.642 0 00-.082.235.685.685 0 00.552.797c.142 0 3.533.633 3.533 3.42v3.421h-2.757v-5.524h-1.369v5.473h-.684V11.682h.684v1.368h1.369v-2.042a.675.675 0 00-.062-.276l-2.042-4.789a.713.713 0 00-.357-.419.694.694 0 00-.899.358l-2.042 4.789a.873.873 0 000 .276v12.988H4.789V4.79h34.198v19.146h-5.473V6.842a.684.684 0 00-.685-.715zM19.83 21.883v-.684h2.737v.684H19.83zm2.737 1.368v.684H19.83v-.684h2.737zm-2.788-3.42a5.106 5.106 0 00-3.676-3.85l4.412-7.352v5.738h1.368V8.63l4.421 7.352a5.106 5.106 0 00-3.686 3.85H19.78zm-7.801-9.569l1.021-2.369 1.021 2.37h-2.042zm.337 1.369v12.304h-.684V11.682l.684-.051zm30.093 12.304h-2.043V4.085a.684.684 0 00-.684-.685H4.085a.684.684 0 00-.664.685v19.85H1.379V2.042a.684.684 0 01.663-.674h39.681a.684.684 0 01.685.685v21.882z" fill="#A0C1E0"/><path d="M21.882 25.988a2.042 2.042 0 100 4.085 2.042 2.042 0 000-4.085zm0 2.737a.684.684 0 110-1.368.684.684 0 010 1.368z" fill="#A0C1E0"/></svg>