<svg width="38" height="38" viewBox="0 0 38 38" fill="none" xmlns="http://www.w3.org/2000/svg"><path d="M31.837 17.224a.793.793 0 00-.793.792v.071h-1.9a10.311 10.311 0 00-.978-3.652l1.645-.95.035.062a.793.793 0 001.374-.793l-.864-1.497a.793.793 0 10-1.373.793l.035.062-1.645.95a10.298 10.298 0 00-2.677-2.67l.953-1.65.061.036a.793.793 0 10.793-1.373l-1.496-.864a.793.793 0 00-.793 1.373l.062.036-.953 1.65a10.299 10.299 0 00-3.65-.984v-1.9h.071a.793.793 0 000-1.585h-1.727a.793.793 0 100 1.586h.07v1.899a10.312 10.312 0 00-3.652.979l-.95-1.645.062-.036a.793.793 0 10-.793-1.373l-1.496.864a.793.793 0 00.793 1.373l.061-.035.95 1.645a10.3 10.3 0 00-2.67 2.676l-1.65-.952.036-.062a.793.793 0 10-1.373-.793l-.864 1.497a.793.793 0 001.373.793l.036-.062 1.65.953a10.3 10.3 0 00-.984 3.65h-1.9v-.072a.793.793 0 10-1.585 0v1.728a.793.793 0 101.585 0v-.07h1.9a10.313 10.313 0 00.978 3.652l-1.644.95-.036-.062a.793.793 0 10-1.373.793l.864 1.496a.793.793 0 101.373-.793l-.036-.061 1.646-.95a10.298 10.298 0 002.676 2.67l-.952 1.65-.062-.036a.793.793 0 10-.793 1.373l1.497.864a.793.793 0 00.792-1.373l-.061-.036.952-1.65c1.135.545 2.371.884 3.65.983v1.9h-.07a.793.793 0 000 1.586h1.727a.793.793 0 000-1.586h-.07v-1.899a10.306 10.306 0 003.652-.979l.95 1.645-.062.036a.793.793 0 10.793 1.373l1.496-.864a.793.793 0 00-.793-1.373l-.061.035-.95-1.645a10.299 10.299 0 002.67-2.676l1.649.952-.035.061a.793.793 0 001.373.793l.864-1.496a.793.793 0 10-1.374-.793l-.035.062-1.65-.953c.544-1.134.883-2.37.983-3.65h1.9v.071a.793.793 0 001.586 0v-1.727a.793.793 0 00-.793-.793zM21.134 27.293c-4.638 1.242-9.423-1.52-10.666-6.159-1.243-4.638 1.52-9.423 6.158-10.666 4.639-1.243 9.424 1.52 10.666 6.158 1.243 4.639-1.52 9.424-6.158 10.667z" fill="#fff"/><path d="M17.547 13.904a.793.793 0 10-.41-1.532.793.793 0 00.41 1.532zm3.078 11.485a.793.793 0 10-.41-1.532.793.793 0 00.41 1.532zm-2.74-3.662a.793.793 0 10-.41-1.532.793.793 0 00.41 1.532zm3.281-.88a.793.793 0 10-.41-1.532.793.793 0 00.41 1.532zm-.879-3.281a.793.793 0 10-.41-1.532.793.793 0 00.41 1.532zm-3.281.879a.793.793 0 10-.41-1.531.793.793 0 00.41 1.531zm7.822-.337a.793.793 0 10-.41-1.532.793.793 0 00.41 1.532zm-11.484 3.077a.793.793 0 10-.41-1.532.793.793 0 00.41 1.532zm8.714-6.687a.793.793 0 10-.41-1.532.793.793 0 00.41 1.532zm-5.945 10.297a.793.793 0 10-.41-1.532.793.793 0 00.41 1.532zm8.121-2.176a.793.793 0 10-.41-1.532.793.793 0 00.41 1.532zm-10.296-5.945a.793.793 0 10-.41-1.532.793.793 0 00.41 1.532z" fill="#fff"/><path fill-rule="evenodd" clip-rule="evenodd" d="M19 36.333c9.573 0 17.333-7.76 17.333-17.333 0-9.573-7.76-17.333-17.333-17.333C9.427 1.667 1.667 9.427 1.667 19c0 9.573 7.76 17.333 17.333 17.333zM19 38c10.493 0 19-8.507 19-19S29.493 0 19 0 0 8.507 0 19s8.507 19 19 19z" fill="#fff"/><path fill-rule="evenodd" clip-rule="evenodd" d="M5 31.667L30.667 6l1.414 1.414L6.414 33.081 5 31.667z" fill="#fff"/></svg>