<svg width="207" height="178" viewBox="0 0 207 178" fill="none" xmlns="http://www.w3.org/2000/svg"><g clip-path="url(#clip0)" opacity=".05"><mask id="a" fill="#fff"><path d="M204.89 41.615l-25.552 25.552h-29.603l-4.67 4.67L127.302 89.6l-11.068 11.068-9.359 9.359a7.145 7.145 0 01-5.069 2.1 7.15 7.15 0 01-5.223-2.258c-2.691-2.858-2.409-7.417.366-10.193l18.621-18.62 1.426-1.427 17.84-17.84 4.76-4.76V27.426l8.835-8.835 16.717-16.717a6.663 6.663 0 01.861-.72c.237-.168.479-.323.727-.453.02-.01.041-.018.062-.029.235-.119.474-.219.716-.306.061-.022.121-.044.182-.064.257-.083.517-.153.779-.2.036-.008.073-.01.109-.017a6.29 6.29 0 01.709-.075c.061-.003.121-.007.182-.009.264-.005.527.003.788.03l.129.018c.226.028.451.07.672.121.062.015.125.028.187.044.253.067.503.146.745.242.036.014.07.032.105.046.213.09.42.19.622.301.058.032.116.063.172.096.226.133.446.276.655.435l.072.06c.186.147.363.305.533.473.048.047.096.094.142.143.183.193.358.394.517.611.013.018.024.038.038.057a6.2 6.2 0 01.493.824c.123.246.237.5.328.768l.011.04a6.244 6.244 0 01.243 1.02c.046.294.081.594.088.907l.513 23.996.513.011 23.482.502a6.28 6.28 0 013.306 1.006c.355.23.692.48.989.77.429.42.795.896 1.089 1.413.294.517.518 1.073.663 1.65.509 2.022.055 4.296-1.68 6.03zm-104.349 8.602c-31.296 0-56.758 25.462-56.758 56.758 0 31.296 25.462 56.758 56.758 56.758 31.296 0 56.758-25.462 56.758-56.758 0-7.72-1.563-15.076-4.37-21.788l-20.511 20.511c.017.426.047.848.047 1.278 0 17.604-14.321 31.925-31.925 31.925s-31.925-14.322-31.925-31.925c0-17.542 14.223-31.82 31.741-31.92l20.911-20.91a56.392 56.392 0 00-20.726-3.929zm89.403 27.557a15 15 0 01-10.607 4.393h-11.476a71.339 71.339 0 014.438 24.807c0 39.568-32.19 71.758-71.758 71.758s-71.758-32.19-71.758-71.758 32.19-71.758 71.758-71.758a71.25 71.25 0 0124.055 4.171v-11.96c0-3.979 1.58-7.795 4.393-10.608l4.745-4.745a100.094 100.094 0 00-33.194-5.64C45.102 6.435 0 51.537 0 106.975c0 55.438 45.103 100.541 100.541 100.541 55.438 0 100.541-45.103 100.541-100.541 0-12.042-2.136-23.592-6.037-34.3l-5.101 5.1z"/></mask><path d="M204.89 41.615l-25.552 25.552h-29.603l-4.67 4.67L127.302 89.6l-11.068 11.068-9.359 9.359a7.145 7.145 0 01-5.069 2.1 7.15 7.15 0 01-5.223-2.258c-2.691-2.858-2.409-7.417.366-10.193l18.621-18.62 1.426-1.427 17.84-17.84 4.76-4.76V27.426l8.835-8.835 16.717-16.717a6.663 6.663 0 01.861-.72c.237-.168.479-.323.727-.453.02-.01.041-.018.062-.029.235-.119.474-.219.716-.306.061-.022.121-.044.182-.064.257-.083.517-.153.779-.2.036-.008.073-.01.109-.017a6.29 6.29 0 01.709-.075c.061-.003.121-.007.182-.009.264-.005.527.003.788.03l.129.018c.226.028.451.07.672.121.062.015.125.028.187.044.253.067.503.146.745.242.036.014.07.032.105.046.213.09.42.19.622.301.058.032.116.063.172.096.226.133.446.276.655.435l.072.06c.186.147.363.305.533.473.048.047.096.094.142.143.183.193.358.394.517.611.013.018.024.038.038.057a6.2 6.2 0 01.493.824c.123.246.237.5.328.768l.011.04a6.244 6.244 0 01.243 1.02c.046.294.081.594.088.907l.513 23.996.513.011 23.482.502a6.28 6.28 0 013.306 1.006c.355.23.692.48.989.77.429.42.795.896 1.089 1.413.294.517.518 1.073.663 1.65.509 2.022.055 4.296-1.68 6.03zm-104.349 8.602c-31.296 0-56.758 25.462-56.758 56.758 0 31.296 25.462 56.758 56.758 56.758 31.296 0 56.758-25.462 56.758-56.758 0-7.72-1.563-15.076-4.37-21.788l-20.511 20.511c.017.426.047.848.047 1.278 0 17.604-14.321 31.925-31.925 31.925s-31.925-14.322-31.925-31.925c0-17.542 14.223-31.82 31.741-31.92l20.911-20.91a56.392 56.392 0 00-20.726-3.929zm89.403 27.557a15 15 0 01-10.607 4.393h-11.476a71.339 71.339 0 014.438 24.807c0 39.568-32.19 71.758-71.758 71.758s-71.758-32.19-71.758-71.758 32.19-71.758 71.758-71.758a71.25 71.25 0 0124.055 4.171v-11.96c0-3.979 1.58-7.795 4.393-10.608l4.745-4.745a100.094 100.094 0 00-33.194-5.64C45.102 6.435 0 51.537 0 106.975c0 55.438 45.103 100.541 100.541 100.541 55.438 0 100.541-45.103 100.541-100.541 0-12.042-2.136-23.592-6.037-34.3l-5.101 5.1z" stroke="#fff" stroke-width="4" mask="url(#a)"/></g><defs><clipPath id="clip0"><path fill="#fff" d="M0 0h207v178H0z"/></clipPath></defs></svg>