<svg width="238" height="194" viewBox="0 0 238 194" fill="none" xmlns="http://www.w3.org/2000/svg"><g clip-path="url(#clip0)" stroke="#000" stroke-width="2" opacity=".05"><path d="M1 194.907v-6.644h240v6.644H1zm133.765-155.14c14.117 14.115 14.111 37.082 0 51.196h0c-14.117 14.116-37.084 14.117-51.198 0 0 0 0 0 0 0m51.198-51.195l-50.491.707c-13.731 13.725-13.731 36.053 0 49.781l-.707.707m51.198-51.195c-14.117-14.117-37.084-14.117-51.198 0m51.198 0H83.567m0 51.195c-14.122-14.119-14.122-37.08 0-51.196m0 51.196V39.767M30.208 160.95h0c-4.59 4.593-12.036 4.593-16.632 0-4.59-4.591-4.591-12.037 0-16.633l36.715-36.71a11.767 11.767 0 0110.664-3.208l.526.106.379-.38 8.548-8.545.613-.613-.52-.694c-14.15-18.897-12.643-45.883 4.523-63.05 18.823-18.826 49.458-18.826 68.284 0 18.823 18.823 18.823 49.456 0 68.28-17.17 17.169-44.158 18.672-63.053 4.524l-.694-.52-.613.614-8.543 8.55-.378.379.105.525c.752 3.741-.312 7.768-3.21 10.661v.001L30.208 160.95zm176.294 19.55V1h16.727v179.5h-16.727zM167.605 51.326V30.617h16.73v149.885h-16.73V81.056c1.212-4.799 1.901-9.77 1.901-14.867 0-5.095-.694-10.065-1.901-14.863zm-23.897 64.3V180.5h-16.725v-56.644c5.969-1.836 11.588-4.622 16.725-8.23z"/><path d="M101.506 126.033V180.5H84.778v-56.34H92.4a59.697 59.697 0 009.107 1.873zm-42.79 27.293V180.5H41.994v-13.421l13.75-13.753h2.972z"/></g><defs><clipPath id="clip0"><path fill="#fff" d="M0 0h238v194H0z"/></clipPath></defs></svg>