<svg width="26" height="26" viewBox="0 0 26 26" fill="none" xmlns="http://www.w3.org/2000/svg"><g clip-path="url(#clip0)" fill="#fff"><path d="M25.702 24.266l-7.335-7.336c3.342-4.066 3.114-10.102-.683-13.9-4.04-4.04-10.614-4.04-14.654 0-4.04 4.04-4.04 10.614 0 14.654 3.797 3.796 9.832 4.026 13.9.683l7.336 7.335a1.016 1.016 0 001.436-1.436zm-9.455-8.019c-3.248 3.248-8.533 3.248-11.78 0-3.249-3.248-3.249-8.533 0-11.78 3.247-3.248 8.532-3.249 11.78 0 3.248 3.247 3.248 8.532 0 11.78z"/><path d="M15.33 9.341h-3.957V5.383a1.016 1.016 0 00-2.032 0v3.958H5.383a1.016 1.016 0 100 2.032h3.958v3.958a1.016 1.016 0 002.032 0v-3.958h3.958a1.016 1.016 0 000-2.032z"/></g><defs><clipPath id="clip0"><path fill="#fff" d="M0 0h26v26H0z"/></clipPath></defs></svg>