<svg width="40" height="41" viewBox="0 0 40 41" fill="none" xmlns="http://www.w3.org/2000/svg"><path d="M29.074 14.734h6.75a3.848 3.848 0 003.843-3.843 3.847 3.847 0 00-3.233-3.79c-.3-3.612-3.33-6.46-7.017-6.46a7.04 7.04 0 00-6.263 3.815 5.085 5.085 0 00-5.497-.773 6.428 6.428 0 00-3.615-1.12 6.38 6.38 0 00-6.279 5.126 4.493 4.493 0 00-4.435 3.24A3.847 3.847 0 000 14.734a3.848 3.848 0 003.844 3.844H9.59c-.02.212-.033.424-.033.64v4.805c0 .777.399 1.463 1.001 1.865l-2.473 9.346h1.472c.641 0 .927.215 1.323.513.456.343 1.025.769 2.092.769 1.068 0 1.636-.427 2.092-.77.09-.066.175-.129.26-.186v2.266c0 1.397 1.136 2.533 2.59 2.533.752 0 1.428-.328 1.892-.85.033.037.067.073.102.108.479.478 1.114.742 1.849.742a2.536 2.536 0 002.534-2.533v-2.262c.082.057.165.117.252.183.457.343 1.026.769 2.094.769 1.069 0 1.637-.427 2.094-.77.398-.297.685-.512 1.326-.512h1.497l-5.41-18.396a7.062 7.062 0 002.93-2.104zm.343-12.812a5.773 5.773 0 015.736 5.187 3.847 3.847 0 00-3.174 3.782h1.282a2.565 2.565 0 012.562-2.563 2.565 2.565 0 012.563 2.563 2.565 2.565 0 01-2.563 2.562h-5.897a7 7 0 00.772-3.203V5.445a2.245 2.245 0 00-2.242-2.242 2.245 2.245 0 00-2.242 2.242V9.61a2.565 2.565 0 01-2.563 2.563h-.465a5.11 5.11 0 001.747-3.844 5.091 5.091 0 00-.852-2.822 5.759 5.759 0 015.336-3.584zM23.65 8.328a3.848 3.848 0 01-3.843 3.844 3.848 3.848 0 01-3.844-3.844 3.848 3.848 0 013.844-3.844 3.848 3.848 0 013.843 3.844zM9.83 17.297H3.843a2.565 2.565 0 01-2.563-2.563 2.565 2.565 0 012.563-2.562 2.565 2.565 0 012.562 2.562h1.282a3.85 3.85 0 00-3.026-3.754 3.215 3.215 0 012.975-2.01c.175 0 .358.017.559.052l.68.12.068-.687a5.104 5.104 0 015.099-4.61c.86 0 1.683.21 2.422.608a5.112 5.112 0 00-1.781 3.876 5.11 5.11 0 001.755 3.852 7.052 7.052 0 00-6.608 5.117zm4.465 17.425c-.397.297-.683.512-1.324.512-.64 0-.926-.214-1.323-.512-.428-.322-.955-.717-1.901-.764l2.036-7.694.016.001a2.245 2.245 0 002.242-2.242v-4.804c0-.836.535-1.548 1.281-1.813l.001 16.721c-.44.157-.76.393-1.028.595zm8.715-18.706v21.81c0 .69-.562 1.252-1.311 1.252-.334 0-.648-.13-.885-.367a1.242 1.242 0 01-.367-.885v-11.56h-1.281v11.56c0 .69-.561 1.252-1.31 1.252-.69 0-1.251-.561-1.251-1.252l-.002-21.81h-.64a3.207 3.207 0 00-3.203 3.203v4.804a.962.962 0 01-1.922 0V19.22a5.773 5.773 0 015.765-5.766h7.047a3.848 3.848 0 003.844-3.844V5.445a.962.962 0 011.922 0v4.805a5.773 5.773 0 01-5.766 5.766h-.64zm6.832 17.943c-.932.052-1.454.444-1.88.762-.396.298-.683.513-1.325.513-.64 0-.928-.215-1.325-.513-.267-.2-.585-.433-1.021-.59V17.268c.209-.018.414-.049.617-.086l4.934 16.777z" fill="#A0C1E0"/><path d="M20.416 14.936l-1.216-.405-1.562 4.687h2.414l-2.1 4.198 1.148.573 3.025-6.052h-2.71l1-3zm10.282 2.361h1.282v1.281h-1.282v-1.281zm-1.922 1.922h1.282V20.5h-1.282v-1.281zm1.922 1.921h1.282v1.282h-1.282V21.14zm1.922-1.921h1.281V20.5h-1.28v-1.281zM3.792 23.703h1.281v1.281H3.792v-1.28zM1.87 25.625h1.281v1.281h-1.28v-1.281zm1.922 1.922h1.281v1.281H3.792v-1.281zm1.922-1.922h1.281v1.281H5.714v-1.281zm27.546 2.563h1.282v1.28h-1.281v-1.28zm-1.921 1.922h1.281v1.28h-1.28v-1.28zm1.921 1.921h1.282v1.282h-1.281V32.03zm1.923-1.921h1.28v1.28h-1.28v-1.28zm1.281-7.688h1.281v1.281h-1.281v-1.281zm-1.922 1.922h1.281v1.281h-1.281v-1.281zm1.922 1.922h1.281v1.28h-1.281v-1.28zm1.922-1.922h1.281v1.281h-1.281v-1.281z" fill="#A0C1E0"/></svg>