<svg width="41" height="34" viewBox="0 0 41 34" fill="none" xmlns="http://www.w3.org/2000/svg"><path d="M2.668 18.813h3.36v4.03a.672.672 0 00.299.56l1.716 1.144v5.015c0 .122.033.242.096.346l2.015 3.36a.672.672 0 00.576.326h3.36a.672.672 0 00.672-.672V22.627l2.937-1.175a.672.672 0 00.422-.624v-1.365l2.55.6a24.883 24.883 0 0110.45 5.306.672.672 0 00.438.162 3.363 3.363 0 003.359-3.36V3.36A3.363 3.363 0 0031.558 0a.672.672 0 00-.437.162 24.883 24.883 0 01-10.45 5.306l-5.315 1.25H2.668A2.018 2.018 0 00.652 8.735v8.063a2.018 2.018 0 002.016 2.015zm4.703 3.671v-3.672h6.047v2.894l-4.617 1.732-1.43-.954zm3.74 9.766l-1.724-2.874v-4.723l4.031-1.512v9.109h-2.307zm5.666-11.877l-2.015.806v-2.366h.594l1.421.334v1.226zM33.574 3.36v18.813a2.018 2.018 0 01-1.343 1.898V1.461a2.017 2.017 0 011.343 1.898zM20.98 6.776a26.246 26.246 0 009.907-4.696v21.37a26.247 26.247 0 00-9.907-4.695l-4.875-1.146V7.922l4.875-1.147zm-6.218 10.693h-7.39V8.062h7.39v9.407zM1.996 8.734a.673.673 0 01.672-.671h3.36v9.406h-3.36a.673.673 0 01-.672-.672V8.734z" fill="#A0C1E0"/><path d="M9.387 21.5a.672.672 0 100-1.344.672.672 0 000 1.344zm31.578-9.406h-3.36v1.344h3.36v-1.344zm-3.868 2.571l-.95.95 2.375 2.376.95-.95-2.375-2.376zm1.425-7.125l-2.375 2.376.95.95 2.375-2.375-.95-.95z" fill="#A0C1E0"/></svg>