<svg width="29" height="32" viewBox="0 0 29 32" fill="none" xmlns="http://www.w3.org/2000/svg"><path d="M15.242 25.067a1.067 1.067 0 11-2.134 0 1.067 1.067 0 012.134 0z" fill="#A0C1E0"/><path d="M26.442 5.334h-4.267v1.067h4.267c.294 0 .533.238.533.533v14.933h-25.6V6.934c0-.295.24-.533.534-.533h4.266V5.334H1.91a1.602 1.602 0 00-1.6 1.6v19.733a1.602 1.602 0 001.6 1.6h9.6v2.667H9.375v1.067h9.6v-1.067h-2.133v-2.667h9.6a1.602 1.602 0 001.6-1.6V6.934a1.602 1.602 0 00-1.6-1.6zm-10.667 25.6h-3.2v-2.667h3.2v2.667zm11.2-4.267a.534.534 0 01-.533.534H1.909a.534.534 0 01-.534-.534v-3.733h25.6v3.733z" fill="#A0C1E0"/><path d="M8.842 0a1.602 1.602 0 00-1.6 1.6v17.6a1.602 1.602 0 001.6 1.6H19.51a1.602 1.602 0 001.6-1.6V1.6a1.602 1.602 0 00-1.6-1.6H8.842zm11.2 19.2a.534.534 0 01-.533.533H8.842a.534.534 0 01-.533-.533v-3.733h11.733V19.2zm0-17.6v12.8H8.31V1.6c0-.295.239-.533.533-.533H19.51c.294 0 .533.238.533.533z" fill="#A0C1E0"/><path d="M15.242 17.6a1.067 1.067 0 11-2.134 0 1.067 1.067 0 012.134 0zM13.108 2.133h2.134v1.066h-2.134V2.133z" fill="#A0C1E0"/></svg>