<svg width="33" height="37" viewBox="0 0 33 37" fill="none" xmlns="http://www.w3.org/2000/svg"><path d="M32.446 4.657L17.029.032a.773.773 0 00-.442 0L1.17 4.657a.77.77 0 00-.549.739v16.958c0 6.818 10.394 12.88 15.96 14.612a.765.765 0 00.456 0c5.565-1.733 15.96-7.795 15.96-14.612V5.396c0-.34-.224-.64-.551-.739zm-.991 17.697c0 5.413-8.577 11.105-14.646 13.067-6.07-1.962-14.646-7.654-14.646-13.067V5.97l14.646-4.393L31.454 5.97v16.385z" fill="#A0C1E0"/><path d="M16.807 9.25c-4.676 0-8.479 3.803-8.479 8.48 0 4.675 3.803 8.478 8.48 8.478 4.675 0 8.478-3.803 8.478-8.479 0-4.676-3.803-8.479-8.479-8.479zm0 15.417a6.946 6.946 0 01-6.937-6.938 6.946 6.946 0 016.937-6.937 6.946 6.946 0 016.938 6.937 6.946 6.946 0 01-6.938 6.938z" fill="#A0C1E0"/><path d="M21.978 14.102a.773.773 0 00-1.09 0l-5.621 5.621-2.54-2.537a.771.771 0 00-1.09 1.09l3.084 3.083a.774.774 0 001.09 0l6.167-6.167c.3-.3.3-.789 0-1.09z" fill="#A0C1E0"/></svg>