<svg width="27" height="38" viewBox="0 0 27 38" fill="none" xmlns="http://www.w3.org/2000/svg"><path d="M6.144 7.54h14.813a.507.507 0 000-1.015H6.144a.508.508 0 100 1.016z" fill="#A0C1E0"/><path d="M.309 5.07v30.508c.003.878.714 1.59 1.591 1.592h23.3a1.594 1.594 0 001.591-1.592V5.07a1.593 1.593 0 00-1.592-1.592h-7.737a3.939 3.939 0 00-7.824 0H1.9A1.594 1.594 0 00.31 5.07zm25.463 30.508a.575.575 0 01-.575.575H1.9a.575.575 0 01-.575-.575V9.987h24.452l-.005 25.591zM13.55 1.006a2.926 2.926 0 012.886 2.472h-5.758a2.925 2.925 0 012.872-2.472zM25.2 4.493c.318 0 .577.259.577.577v3.9H1.325v-3.9c0-.318.257-.577.575-.577h23.3z" fill="#A0C1E0"/><path d="M10.57 15.584h12.009a.508.508 0 000-1.016h-12.01a.507.507 0 100 1.016zm0 5.302h12.009a.508.508 0 000-1.017h-12.01a.507.507 0 000 1.017zm0 5.297h12.009a.509.509 0 000-1.017h-12.01a.507.507 0 000 1.017zm0 5.294h12.009a.507.507 0 000-1.014h-12.01a.506.506 0 100 1.014zm-5.066-15.61c.08.114.202.19.338.21h.076a.509.509 0 00.311-.108l3.236-2.528a.508.508 0 10-.622-.79l-2.815 2.202-.491-.701a.507.507 0 10-.833.582l.8 1.133zm-.001 5.223a.51.51 0 00.338.212h.076a.516.516 0 00.311-.11l3.236-2.53a.506.506 0 10-.602-.816.364.364 0 00-.023.018l-2.812 2.204-.491-.7a.509.509 0 10-.833.564l.8 1.158zm0 5.238c.08.113.202.188.338.21h.076a.509.509 0 00.311-.11L9.464 23.9a.508.508 0 10-.602-.818l-.023.019-2.815 2.197-.49-.7a.51.51 0 00-.834.582l.803 1.149zm.001 5.296c.08.113.202.19.338.21h.076a.537.537 0 00.311-.108l3.236-2.53a.508.508 0 10-.622-.796l-2.815 2.2-.491-.7a.507.507 0 10-.833.58l.8 1.143z" fill="#A0C1E0"/></svg>