<svg width="36" height="35" viewBox="0 0 36 35" fill="none" xmlns="http://www.w3.org/2000/svg"><path d="M12.44 22.614a.688.688 0 00-.966 0 .691.691 0 00-.2.483.688.688 0 00.683.684.686.686 0 00.684-.684.69.69 0 00-.2-.483z" fill="#A0C1E0"/><path d="M35.309 23.236c0-1.38-.97-2.538-2.265-2.829.307-.46.486-1.01.486-1.603 0-1.6-1.301-2.9-2.9-2.9h-7.607l.995-2.954a4.576 4.576 0 00-.27-3.584 4.576 4.576 0 00-2.76-2.302L19.79 6.7a.683.683 0 00-.841.421l-1.885 5.209a6.422 6.422 0 01-2.97 3.458l-1.883 1.025a2.22 2.22 0 00-1.791-.909H.992a.684.684 0 00-.683.684v17.729c0 .377.306.683.683.683h9.427c.817 0 1.533-.444 1.919-1.103l.965.378a10.47 10.47 0 003.837.726h11.945c1.598 0 2.9-1.301 2.9-2.9 0-.598-.182-1.153-.493-1.615a2.904 2.904 0 002.215-2.817c0-.61-.19-1.175-.511-1.643a2.904 2.904 0 002.113-2.79zm-2.9 1.533h-7.032a.684.684 0 000 1.367h5.43c.845 0 1.533.687 1.533 1.533 0 .845-.688 1.532-1.533 1.532h-5.429a.684.684 0 000 1.367h3.707a1.533 1.533 0 010 3.065H17.14a9.105 9.105 0 01-3.338-.63l-1.16-.456V25.84a.684.684 0 00-1.368 0v6.938a.856.856 0 01-.855.855H1.676V17.271h8.743c.471 0 .855.384.855.856v2.32a.684.684 0 001.367 0v-2.312l2.106-1.147a7.787 7.787 0 003.602-4.193l1.663-4.599.579.176a3.22 3.22 0 011.941 1.62c.406.787.473 1.682.19 2.521l-1.298 3.856a.684.684 0 00.648.902h8.558c.845 0 1.533.688 1.533 1.533s-.688 1.532-1.533 1.532h-5.252a.684.684 0 000 1.367h7.03c.846 0 1.533.688 1.533 1.533s-.687 1.533-1.532 1.533z" fill="#A0C1E0"/><path d="M7.772 28.404a1.917 1.917 0 00-1.915 1.915c0 1.056.86 1.915 1.915 1.915a1.917 1.917 0 001.915-1.915 1.917 1.917 0 00-1.915-1.915zm0 2.463a.548.548 0 11.002-1.097.548.548 0 01-.002 1.097zM21.22.2a.689.689 0 00-.484-.2.688.688 0 00-.683.684.688.688 0 00.683.683.69.69 0 00.484-.2.688.688 0 00.2-.483.689.689 0 00-.2-.484zm-.485 2.353a.684.684 0 00-.683.683V4.9a.684.684 0 001.367 0V3.236a.684.684 0 00-.684-.683zm8.973 6.422h-4.216a.684.684 0 100 1.367h4.216a.684.684 0 000-1.367zM15.977 8.97h-4.215a.684.684 0 000 1.368h4.215a.684.684 0 000-1.367zm1.378-3.662l-1.99-1.99a.684.684 0 00-.967.966l1.99 1.99a.682.682 0 00.967 0 .684.684 0 000-.966zm9.719-1.991a.684.684 0 00-.966 0l-1.99 1.99a.684.684 0 00.966.967l1.99-1.99a.684.684 0 000-.967z" fill="#A0C1E0"/></svg>