<svg width="68" height="47" viewBox="0 0 68 47" fill="none" xmlns="http://www.w3.org/2000/svg"><path d="M47.291 12.394a1.083 1.083 0 00-.203 1.519 15.026 15.026 0 013.108 9.198c0 8.363-6.804 15.167-15.167 15.167s-15.167-6.804-15.167-15.167S26.666 7.944 35.029 7.944c3.356 0 6.537 1.075 9.198 3.108a1.083 1.083 0 101.316-1.722 17.176 17.176 0 00-10.514-3.553c-9.558 0-17.334 7.776-17.334 17.334s7.776 17.334 17.334 17.334 17.334-7.776 17.334-17.334c0-3.836-1.229-7.471-3.553-10.513a1.083 1.083 0 00-1.519-.204z" fill="#A0C1E0"/><path d="M35.03 0C22.286 0 11.918 10.368 11.918 23.112c0 12.744 10.368 23.111 23.112 23.111 12.743 0 23.111-10.367 23.111-23.111S47.773 0 35.03 0zm0 44.056c-11.55 0-20.945-9.395-20.945-20.944 0-11.55 9.396-20.945 20.945-20.945s20.944 9.396 20.944 20.945S46.58 44.057 35.03 44.057zM9.75 0c-.598 0-1.083.485-1.083 1.083v9.028H6.5V1.083a1.083 1.083 0 10-2.167 0v9.028H2.167V1.083a1.083 1.083 0 10-2.167 0v13a5.426 5.426 0 004.333 5.308V45.14a1.083 1.083 0 102.167 0V19.39a5.426 5.426 0 004.334-5.307v-13C10.834.483 10.348 0 9.75 0zM5.417 17.334a3.254 3.254 0 01-3.25-3.25v-1.806h6.5v1.806a3.254 3.254 0 01-3.25 3.25zM66.807 0a5.423 5.423 0 00-5.416 5.417v19.861c0 .599.485 1.084 1.083 1.084h3.25V45.14a1.083 1.083 0 102.167 0V1.083A1.084 1.084 0 0066.807 0zm-1.083 24.195h-2.167V5.417c0-1.413.906-2.617 2.167-3.065v21.843z" fill="#A0C1E0"/></svg>