<svg width="55" height="55" viewBox="0 0 55 55" fill="none" xmlns="http://www.w3.org/2000/svg"><path d="M51.333 7.333H49.5V3.667A3.667 3.667 0 0045.833 0H9.167A3.667 3.667 0 005.5 3.667v3.666H3.667A3.667 3.667 0 000 11v31.167a3.667 3.667 0 003.667 3.666h18.017l-2.2 7.334h-2.067V55h20.166v-1.833h-2.067l-2.2-7.334h18.017A3.667 3.667 0 0055 42.167V11a3.667 3.667 0 00-3.667-3.667zM1.833 11c0-1.012.821-1.833 1.834-1.833H5.5v27.5h1.833v-33c0-1.013.821-1.834 1.834-1.834h36.666c1.013 0 1.834.821 1.834 1.834v33H49.5v-27.5h1.833c1.013 0 1.834.82 1.834 1.833v27.5H1.833V11zm31.768 42.167H21.4l2.2-7.334h7.8l2.2 7.334zm19.566-11A1.834 1.834 0 0151.333 44H3.667a1.833 1.833 0 01-1.834-1.833v-1.834h51.334v1.834z" fill="#A0C1E0"/><path d="M9.168 3.667h1.833V5.5H9.168V3.667zm3.664 0h1.833V5.5h-1.833V3.667zm3.668 0h1.833V5.5H16.5V3.667zm22.918 12.254l4.74-1.058.4 1.79-4.74 1.058-.4-1.79zm-2.484-8.319l2.75-2.75 1.296 1.296-2.75 2.75-1.296-1.296zM40.84 25.57l.82-1.64 3.666 1.834-.82 1.64-3.666-1.833zM35.13 5.877a2.86 2.86 0 00-5.582 1.247l.283 1.265L18.3 15.663l-4.583 1.023a5.767 5.767 0 00.603 11.366l1.564 7.005c.11.493.6.803 1.092.693l3.792-.846c.494-.11.806-.6.695-1.095l-1.494-6.692.847-.189 13.53 1.679.274 1.225a2.86 2.86 0 002.784 2.238 2.862 2.862 0 002.796-3.483l-5.07-22.71zm-24 17.301a3.942 3.942 0 012.984-4.703l3.845-.858.859 3.845.858 3.844-1 .224-2.842.635a3.942 3.942 0 01-4.702-2.987h-.003zm8.34 10.134l-2.002.448-1.294-5.795.05-.01 1.949-.436 1.298 5.793zm2.051-8.142l-1.833-8.217 10.565-6.664 3.667 16.418-12.399-1.537zm16.134 5.036a1.029 1.029 0 01-1.245-.773l-5.072-22.71a1.024 1.024 0 01.777-1.223 1.026 1.026 0 011.225.778l5.066 22.708a1.032 1.032 0 01-.752 1.22z" fill="#A0C1E0"/></svg>