<svg width="62" height="64" viewBox="0 0 62 64" fill="none" xmlns="http://www.w3.org/2000/svg"><path d="M41.62 39.748a1.954 1.954 0 011.412.635l10.654 11.541 1.566-1.448-7.211-7.81h.025v-28.8a5.34 5.34 0 00-5.333-5.333h-4.267v2.133h4.267a3.2 3.2 0 013.2 3.2v1.067h-7.467v2.134h7.467v23.316l-1.335-1.45a4.07 4.07 0 00-2.932-1.317 3.945 3.945 0 00-.846.054l.82-3.279.86-3.458h1.3V28.8h-2.134c-.49 0-.916.333-1.034.808l-.864 3.458H23.533a1.067 1.067 0 00-1.035 1.325l2.134 8.534c.118.475.545.808 1.034.808h12.338c.141.257.31.498.504.72l.836.94a1.07 1.07 0 01-.878.474H24.6V48h13.866a3.2 3.2 0 002.309-.998l3.965 4.46a10.85 10.85 0 001.026 8.196 3.19 3.19 0 01-3.033 2.209H21.4a3.2 3.2 0 01-3.2-3.2V57.6h24.533v-2.133H18.2V25.6h-2.134v33.066A5.34 5.34 0 0021.4 64h21.333a5.333 5.333 0 004.427-2.358c.354.391.735.758 1.14 1.096l1.217 1.016 1.365-1.641-1.216-1.014a8.767 8.767 0 01-2.72-9.562c.12-.361.039-.76-.214-1.045l-6.627-7.456a1.979 1.979 0 01.079-2.71 2.09 2.09 0 011.437-.578zm-16.187-2.415l-.534-2.133h3.025l.267 2.133h-2.758zM26.5 41.6l-.534-2.133h2.492l.267 2.133h-2.226zm6.758 0h-2.383l-.267-2.133h2.917l-.267 2.133zm.533-4.267h-3.45l-.266-2.133h3.983l-.267 2.133zm3.681 4.267h-2.064l.267-2.133h2.471a4.104 4.104 0 00-.674 2.133zm1.228-4.267h-2.758l.266-2.133h3.025l-.533 2.133z" fill="#A0C1E0"/><path d="M26.731 53.333a2.133 2.133 0 100-4.267 2.133 2.133 0 000 4.267zm10.668.001a2.133 2.133 0 100-4.267 2.133 2.133 0 000 4.267zM32.066 0H4.333A4.267 4.267 0 00.066 4.267V19.2a4.267 4.267 0 004.267 4.267h27.733a4.267 4.267 0 004.267-4.267V4.267A4.267 4.267 0 0032.066 0zM34.2 19.2a2.133 2.133 0 01-2.134 2.133H4.333A2.133 2.133 0 012.2 19.2V4.267c0-1.179.955-2.134 2.133-2.134h27.733c1.179 0 2.134.955 2.134 2.134V19.2z" fill="#A0C1E0"/><path d="M23.532 5.333h-19.2v2.133h19.2V5.333zm6.968 6.843a3.2 3.2 0 00-3.244 0 3.157 3.157 0 00-1.591-.443 3.2 3.2 0 000 6.4 3.158 3.158 0 001.591-.44 3.2 3.2 0 103.245-5.517zM25.666 16a1.067 1.067 0 110-2.133 1.067 1.067 0 010 2.133zm3.2 0a1.037 1.037 0 01-.189-.027 2.963 2.963 0 000-2.079 1.09 1.09 0 01.189-.027 1.067 1.067 0 010 2.133zM6.465 11.733H4.332v2.134h2.133v-2.134zm4.266 0H8.598v2.134h2.133v-2.134zm4.269 0h-2.133v2.134H15v-2.134zm4.262 0H17.13v2.134h2.133v-2.134zM19.265 16H4.332v2.133h14.933V16zm40.682 25.173l-8.96-9.892-1.58 1.432 8.965 9.902a5.316 5.316 0 011.428 3.632V64h2.133V46.247a7.425 7.425 0 00-1.986-5.074zM34.673 26.846l-1.54 1.027V25.6h-2.134v2.273l-1.542-1.027-1.184 1.774 3.2 2.134c.359.239.826.239 1.184 0l3.2-2.134-1.184-1.774z" fill="#A0C1E0"/></svg>