<svg width="60" height="60" viewBox="0 0 60 60" fill="none" xmlns="http://www.w3.org/2000/svg"><path d="M59 0H42a6 6 0 00-6 6 4 4 0 01-3 3.86V6.65a4 4 0 10-6 0v3.21A4 4 0 0124 6a6 6 0 00-6-6H1a1 1 0 00-1 1 6 6 0 005.07 5.93 6 6 0 005 5A6 6 0 0016 17h11v15h-8a3 3 0 110-6h5a1 1 0 001-1v-2a1 1 0 00-.29-.71l-3-3A1 1 0 0021 19h-2c-5.523.014-9.989 4.502-9.975 10.025a10 10 0 007.305 9.605A8.866 8.866 0 0016 41a9 9 0 005.53 8.3 8.404 8.404 0 00-.3 2.2 8.5 8.5 0 008.16 8.5H30a8.52 8.52 0 008-8.48 8.34 8.34 0 00-.23-1.94 9 9 0 005.91-10.93c5.33-1.448 8.476-6.942 7.028-12.272A10 10 0 0041 19h-2a1 1 0 00-.71.29l-3 3A1 1 0 0035 23v2a1 1 0 001 1h5a3 3 0 110 6h-8V17h11a6 6 0 005.93-5.07 6 6 0 005-5A6 6 0 0060 1a1 1 0 00-1-1zM30 2a2 2 0 012 2 2 2 0 01-.67 1.49 1 1 0 00-.33.75V32h-2V6.24a1 1 0 00-.33-.75A2 2 0 0128 4a2 2 0 012-2zM16 15a4 4 0 01-3.87-3H17a1 1 0 000-2h-6a4 4 0 01-3.87-3H13a1 1 0 000-2H6a4 4 0 01-3.87-3H18a4 4 0 014 4 6 6 0 005 5.91V15H16zm-5 14a8 8 0 018-8h1.59L23 23.41V24h-4a5 5 0 000 10h.36a9 9 0 00-2.29 2.76A8 8 0 0111 29zm17.23 23.44A2.41 2.41 0 0130.61 50H31v2.41a2.4 2.4 0 01-.87 1.84l-.66.55-.68-.8a2.53 2.53 0 01-.56-1.56zM29.62 58h-.17a.25.25 0 01-.2-.17.24.24 0 01.08-.29l2.09-1.74A4.41 4.41 0 0033 52.41V50h2.79c.132.49.203.993.21 1.5a6.49 6.49 0 01-6.38 6.5zM35 48h-4.36a4.42 4.42 0 00-4.41 4.43v.01a4.55 4.55 0 001 2.78l.72.88a2.22 2.22 0 00-.68 1.41A6.5 6.5 0 0129.73 45H35a4 4 0 004-4 3.91 3.91 0 00-.56-2h3.26c.196.649.297 1.322.3 2a7 7 0 01-7 7zm-10-5a2 2 0 110-4h2v4h-2zm4 0v-4h2v4h-2zm4 0v-4h2a2 2 0 110 4h-2zm8-9a5 5 0 000-10h-4v-.59L39.41 21H41a8 8 0 110 16H25a4 4 0 00-.66 7.93 8.63 8.63 0 00-2.07 2.51A7 7 0 0125 34h16zM54 5h-7a1 1 0 000 2h5.87A4 4 0 0149 10h-6a1 1 0 000 2h4.87A4 4 0 0144 15H33v-3.09A6 6 0 0038 6a4 4 0 014-4h15.87A4 4 0 0154 5z" fill="#A0C1E0"/></svg>