<svg width="68" height="54" viewBox="0 0 68 54" fill="none" xmlns="http://www.w3.org/2000/svg"><path d="M48.408 19.398h-2.424a1.137 1.137 0 000 2.273h2.424a1.137 1.137 0 000-2.273zm.306 9.387a2.334 2.334 0 00-1.852-.903H20.873c-.728 0-1.403.33-1.851.903a2.334 2.334 0 00-.427 2.015l.606 2.425a2.346 2.346 0 002.279 1.779h24.776c1.08 0 2.017-.732 2.279-1.78l.606-2.424a2.334 2.334 0 00-.427-2.015zm-1.778 1.464l-.606 2.425a.076.076 0 01-.074.057H21.48a.076.076 0 01-.074-.057l-.606-2.425a.07.07 0 01.014-.065c.022-.029.048-.029.06-.029h25.988a.07.07 0 01.06.03.066.066 0 01.014.064z" fill="#A0C1E0"/><path d="M64.174 21.669a3.565 3.565 0 003.561-3.561 3.565 3.565 0 00-3.56-3.561h-1.213c-1.77 0-3.243 1.3-3.516 2.994l-3.031-8.338a4.788 4.788 0 00-4.486-3.142h-8.644l-.64-3.198A3.57 3.57 0 0039.153 0H28.581a3.57 3.57 0 00-3.491 2.863l-.64 3.198h-8.644c-2 0-3.802 1.263-4.486 3.142l-3.03 8.338a3.566 3.566 0 00-3.516-2.994H3.561A3.565 3.565 0 000 18.108a3.565 3.565 0 003.561 3.561h1.212c.56 0 1.09-.13 1.561-.361l-2.598 3.248a6.007 6.007 0 00-1.312 3.739v22.544a2.351 2.351 0 002.35 2.349H8.41a2.351 2.351 0 002.349-2.349v-4.925h46.217v4.925a2.351 2.351 0 002.349 2.349h3.637a2.351 2.351 0 002.349-2.349V28.295a6.006 6.006 0 00-1.312-3.74L61.4 21.309a3.54 3.54 0 001.562.361h1.212zm-59.4-2.273H3.56a1.29 1.29 0 01-1.288-1.288c0-.71.578-1.288 1.288-1.288h1.212c.71 0 1.288.578 1.288 1.288a1.29 1.29 0 01-1.288 1.288zM27.317 3.308c.12-.6.652-1.035 1.263-1.035h10.572c.612 0 1.143.435 1.263 1.035l.55 2.753H26.769l.55-2.753zM8.486 50.84a.076.076 0 01-.076.076H4.773a.076.076 0 01-.076-.076v-5.634c.728.45 1.585.71 2.5.71h1.289v4.924zm38.792-7.198H20.457v-2.5c0-.042.034-.076.076-.076h26.67c.041 0 .075.034.075.076v2.5zm15.76 7.198a.076.076 0 01-.076.076h-3.637a.076.076 0 01-.076-.076v-4.925h1.288c.916 0 1.773-.26 2.5-.71v5.635zm-.814-24.863c.525.655.814 1.48.814 2.319V41.14c0 1.379-1.122 2.5-2.5 2.5H49.55v-2.5a2.351 2.351 0 00-2.349-2.349h-26.67a2.351 2.351 0 00-2.348 2.349v2.5H7.198a2.503 2.503 0 01-2.5-2.5V28.295c0-.84.288-1.664.813-2.32l3.445-4.306h32.185a1.137 1.137 0 000-2.273H10.033l3.424-9.416a2.508 2.508 0 012.35-1.646h36.122a2.51 2.51 0 012.35 1.646l3.424 9.416h-4.439a1.137 1.137 0 000 2.273h5.515l3.445 4.307zm-.55-7.868c0-.71.578-1.288 1.288-1.288h1.212c.71 0 1.288.578 1.288 1.288a1.29 1.29 0 01-1.288 1.288h-1.212a1.29 1.29 0 01-1.288-1.288z" fill="#A0C1E0"/><path d="M12.048 36.368a2.351 2.351 0 00-2.349 2.349 2.351 2.351 0 002.349 2.349 2.351 2.351 0 002.349-2.35 2.351 2.351 0 00-2.349-2.348zm43.637 0a2.351 2.351 0 00-2.35 2.349 2.351 2.351 0 002.35 2.349 2.351 2.351 0 002.348-2.35 2.351 2.351 0 00-2.348-2.348zM11.44 26.67a4.172 4.172 0 00-4.167 4.167 4.172 4.172 0 004.168 4.167 4.172 4.172 0 004.167-4.167 4.172 4.172 0 00-4.167-4.167zm0 6.061a1.896 1.896 0 01-1.894-1.894c0-1.045.85-1.894 1.895-1.894 1.044 0 1.894.85 1.894 1.894 0 1.045-.85 1.894-1.894 1.894zm44.852-6.061a4.172 4.172 0 00-4.167 4.167 4.172 4.172 0 004.167 4.167 4.172 4.172 0 004.167-4.167 4.172 4.172 0 00-4.167-4.167zm0 6.061a1.896 1.896 0 01-1.894-1.894c0-1.045.85-1.894 1.894-1.894 1.045 0 1.894.85 1.894 1.894 0 1.045-.85 1.894-1.894 1.894z" fill="#A0C1E0"/></svg>