<svg width="47" height="55" viewBox="0 0 47 55" fill="none" xmlns="http://www.w3.org/2000/svg"><path d="M45.966 17.826l-14.985-4.281V6.063h9.508v1.722H39.07a.807.807 0 00-.806.807v3.337c0 .446.36.807.806.807h4.45a.807.807 0 00.806-.807V8.592a.807.807 0 00-.807-.807h-1.417V6.063h3.642a.807.807 0 00.222-1.583L30.414.037l-.002-.001-.017-.005-.019-.004a.766.766 0 00-.052-.012l-.039-.006-.038-.005A.807.807 0 0030.193 0H16.827l-.018.001a.8.8 0 00-.055.003c-.013 0-.025.003-.037.004l-.04.007a.8.8 0 00-.052.012l-.02.004-.016.005h-.002L1.034 4.48a.807.807 0 00.222 1.583h3.642v1.722H3.481a.807.807 0 00-.807.807v3.337c0 .446.36.807.807.807H7.93a.807.807 0 00.806-.807V8.592a.807.807 0 00-.807-.807H6.513V6.063h9.508v7.482L1.034 17.826a.807.807 0 00.222 1.583h3.642v1.723H3.481a.807.807 0 00-.807.807v3.337c0 .445.36.807.807.807H7.93a.807.807 0 00.806-.807v-3.337a.807.807 0 00-.807-.807H6.513v-1.723h9.508v7.978l-3.3 11.55v.002l-.007.023-.002.006v.003L9.544 50.049H7.929a.807.807 0 00-.807.807v2.53H5.473a.807.807 0 100 1.614h36.055a.807.807 0 100-1.614h-1.65v-2.53a.807.807 0 00-.806-.807h-1.616L34.29 38.971l-.002-.004-.007-.026-.001-.004-3.3-11.55v-7.978h9.508v1.723h-1.417a.807.807 0 00-.807.807v3.337c0 .445.36.806.807.806h4.448a.807.807 0 00.807-.806v-3.337a.807.807 0 00-.807-.807h-1.417v-1.723h3.642a.807.807 0 00.221-1.583zM42.713 9.4v1.723h-2.835V9.4h2.835zM30.981 1.877l9.002 2.572h-9.002V1.877zM7.123 9.399v1.723H4.288V9.4h2.835zm0 13.347v1.723H4.288v-1.723h2.835zM17.634 1.614h11.733v2.835H17.634V1.614zm11.733 4.449v6.583l-9.875-6.583h9.875zm-11.733.7l9.875 6.584h-9.875V6.764zm0 8.197h11.733v2.835H17.634V14.96zm-1.583 23.411l7.45-5.215 7.45 5.215h-14.9zm14.041 1.614l-6.591 3.296-6.592-3.296h13.183zM19.387 28.307h8.227l-4.114 2.88-4.113-2.88zm9.98-8.898v6.583l-9.875-6.583h9.875zm-11.733.701l9.875 6.583h-9.875V20.11zM7.018 4.45l9.002-2.572V4.45H7.018zm0 13.346l9.002-2.572v2.572H7.018zM17.292 28.81l4.801 3.361-7.201 5.041 2.4-8.402zM14 40.335l7.697 3.848-10.262 5.131L14 40.334zm22.847 11.329h1.419v1.722H8.737v-1.723h9.037a.807.807 0 100-1.614h-4.202l9.928-4.964 9.929 4.964H21.372a.807.807 0 100 1.614h15.475zm-1.279-2.35l-10.262-5.131 7.697-3.848 2.565 8.98zM32.11 37.212l-7.201-5.04 4.8-3.362 2.401 8.402zm-1.128-19.417v-2.572l9.002 2.572h-9.002zm11.732 4.95v1.723h-2.835v-1.722h2.835z" fill="#A0C1E0"/></svg>