<svg width="53" height="51" viewBox="0 0 53 51" fill="none" xmlns="http://www.w3.org/2000/svg"><path d="M52.03 10.658h-3.22a2.375 2.375 0 000-.471V2.393A2.393 2.393 0 0046.417 0H6.525a2.393 2.393 0 00-2.393 2.393v7.823a2.372 2.372 0 000 .47H.961c-.53 0-.961.43-.961.962v5.766c0 .53.43.96.961.96h.769v30.503c0 1.141.925 2.066 2.066 2.066h45.408a2.066 2.066 0 002.066-2.066v-30.56h.769c.53 0 .961-.43.961-.961V11.59a.961.961 0 00-.97-.932zM6.053 2.393c0-.26.211-.471.471-.471h39.94c.26 0 .471.21.471.47v7.824c0 .26-.21.47-.47.47H6.525a.47.47 0 01-.472-.47V2.393zm19.48 46.628h-5.89V34.29h5.89v14.732zm7.813 0h-5.89V34.29h5.89v14.732zm15.867 0H35.269V33.328c0-.53-.43-.961-.96-.961H18.681a.96.96 0 00-.96.961v15.693H3.785a.144.144 0 01-.144-.144V18.461c0-.08.065-.144.144-.144h45.418c.08 0 .144.064.144.144l.01 30.416c0 .08-.065.144-.144.144zM1.922 16.395V12.55h49.146l.01 3.844H1.922z" fill="#A0C1E0"/><path d="M18.095 3.786a.548.548 0 00-.423-.173.538.538 0 00-.413.173.778.778 0 00-.164.529v1.643h-2.489V4.315a.759.759 0 00-.163-.529.557.557 0 00-.442-.183.529.529 0 00-.423.173.788.788 0 00-.154.529v4.526a.78.78 0 00.154.529.53.53 0 00.423.183.557.557 0 00.423-.173.76.76 0 00.163-.529V6.919h2.508V8.84a.788.788 0 00.154.529c.106.122.262.19.423.182a.548.548 0 00.423-.173.76.76 0 00.163-.528V4.315a.75.75 0 00-.163-.529zm6.48 1.21a2.346 2.346 0 00-.961-1.028 3.065 3.065 0 00-1.538-.365c-.4-.008-.798.06-1.172.202-.333.13-.632.334-.875.595-.25.278-.436.606-.548.961-.13.39-.195.8-.192 1.211a3.84 3.84 0 00.183 1.202c.106.346.282.667.519.941.247.271.552.481.893.615a3.14 3.14 0 001.211.221 3.2 3.2 0 001.202-.211 2.37 2.37 0 00.884-.615c.246-.278.43-.606.538-.961.125-.391.187-.8.182-1.211.012-.537-.1-1.07-.326-1.557zm-1.077 2.71a1.547 1.547 0 01-.595.692c-.445.26-.986.296-1.461.096a1.47 1.47 0 01-.52-.394 1.826 1.826 0 01-.345-.653 2.96 2.96 0 01-.125-.884c-.005-.3.038-.598.125-.884v.01c.068-.236.182-.455.336-.645.139-.165.313-.296.51-.384.202-.09.422-.136.644-.135.305-.004.605.08.864.24.263.17.467.414.587.702.142.347.21.72.201 1.096.012.392-.064.783-.22 1.143zm6.273-3.872a.654.654 0 00-.451-.134h-3.7a.653.653 0 00-.442.124.443.443 0 00-.154.356.442.442 0 00.144.346c.128.1.29.148.452.135h1.268v4.17a.769.769 0 00.164.529c.109.116.263.18.422.173a.538.538 0 00.414-.173.769.769 0 00.163-.538V4.66h1.269a.663.663 0 00.451-.135.442.442 0 00.144-.346.451.451 0 00-.144-.346zm5.105 4.825a.596.596 0 00-.413-.125h-2.691V6.9h2.412a.557.557 0 00.404-.125.423.423 0 00.124-.317.404.404 0 00-.134-.317.577.577 0 00-.394-.115h-2.412V4.603h2.623a.595.595 0 00.413-.125.423.423 0 00.135-.326.413.413 0 00-.134-.327.596.596 0 00-.414-.125h-3.094a.962.962 0 00-.404.077.462.462 0 00-.23.23.96.96 0 00-.077.414v4.324a.605.605 0 00.71.712v-.01h3.163a.595.595 0 00.413-.125.432.432 0 00.134-.327.442.442 0 00-.134-.336zm4.997-.039a.625.625 0 00-.432-.135h-2.374v-4.17a.75.75 0 00-.163-.53.557.557 0 00-.423-.172.538.538 0 00-.413.173.779.779 0 00-.154.528v4.42a.605.605 0 00.711.712h2.825a.644.644 0 00.433-.135.442.442 0 00.144-.346.442.442 0 00-.154-.345zM15.124 22.67H7.195v1.922h7.929V22.67zm0 10.09H7.195v1.923h7.929V32.76zm0 10.09H7.195v1.923h7.929V42.85zm15.339-20.18h-7.928v1.922h7.928V22.67zm15.329 0h-7.929v1.922h7.929V22.67zm0 10.09h-7.929v1.923h7.929V32.76zm0 10.09h-7.929v1.923h7.929V42.85z" fill="#A0C1E0"/></svg>