<svg width="56" height="56" viewBox="0 0 56 56" fill="none" xmlns="http://www.w3.org/2000/svg"><path d="M45.654 29.845H29.996a.832.832 0 00-.832.831v13.75c0 .46.372.833.832.833h15.658c.46 0 .832-.373.832-.832v-13.75a.832.832 0 00-.832-.832zm-.832 13.75H30.828v-7.909h13.995v7.91zm0-9.572H30.828v-2.515h13.995v2.515z" fill="#A0C1E0"/><path d="M55.168 46.996H49.68V28.532l1.482 1.415a.83.83 0 001.109.036l3.3-2.771a.833.833 0 00.057-1.255l-5.727-5.455V12.63a.832.832 0 00-1.663 0v6.288l-8.76-8.343V6.446h8.76V8.75a.832.832 0 001.663 0V5.615a.832.832 0 00-.831-.832H38.646a.832.832 0 00-.832.832V8.99l-7.593-7.23L28.566.222a.832.832 0 00-1.132 0l-1.663 1.545-25.4 24.19a.833.833 0 00.057 1.255l3.301 2.77a.832.832 0 001.11-.035l1.482-1.416v5.444a.832.832 0 001.664 0v-7.032L28 7.833l20.016 19.11v20.054h-18.02a.832.832 0 00-.831.831v5.828h-2.329v-22.98a.832.832 0 00-.832-.831h-13.75a.832.832 0 00-.832.831v22.98h-.934v-5.828a.832.832 0 00-.832-.831H7.984v-9.14a.832.832 0 00-1.663 0v9.14H.831a.832.832 0 00-.831.831v6.66c0 .46.372.832.832.832h54.336c.46 0 .832-.373.832-.832v-6.66a.832.832 0 00-.832-.832zm-46.344 6.66H1.663V48.66h7.161v4.996zm16.349 0H13.086V31.508h12.087v22.148zm3.401-47.574a.83.83 0 00-1.148 0L4.228 28.23l-2.036-1.71 24.72-23.542L28 1.967l1.081 1.004 24.727 23.55-2.036 1.709L28.574 6.082zm25.763 47.574H30.828V48.66h23.509v4.996z" fill="#A0C1E0"/><path d="M23.293 41.674h-1.996a.832.832 0 000 1.663h1.996a.832.832 0 100-1.663zM28 15.394a4.662 4.662 0 00-4.656 4.657A4.662 4.662 0 0028 24.708a4.662 4.662 0 004.657-4.657A4.662 4.662 0 0028 15.394zm0 7.65a2.997 2.997 0 01-2.993-2.993 2.997 2.997 0 012.994-2.994 2.997 2.997 0 012.994 2.994A2.997 2.997 0 0128 23.045z" fill="#A0C1E0"/></svg>