<svg width="54" height="54" viewBox="0 0 54 54" fill="none" xmlns="http://www.w3.org/2000/svg"><g clip-path="url(#clip0)" fill="#fff"><path d="M7.326 17.608h-.138a3.228 3.228 0 00-3.22 3.22v14.015a3.225 3.225 0 003.22 3.221h.14c1.774 0 3.22-1.45 3.22-3.221V20.827a3.233 3.233 0 00-3.222-3.219zm4.764 22.644a2.962 2.962 0 002.958 2.954h3.162v7.57A3.229 3.229 0 0021.429 54h.138a3.23 3.23 0 003.224-3.224v-7.57h4.418v7.57A3.233 3.233 0 0032.433 54h.136a3.228 3.228 0 003.221-3.224v-7.57h3.164a2.962 2.962 0 002.956-2.954v-22.13H12.09v22.13zm22.335-35.55L36.936.826a.533.533 0 10-.895-.582l-2.603 4.01A16.974 16.974 0 0027 3.004c-2.306 0-4.483.45-6.44 1.25l-2.6-4.01a.534.534 0 00-.742-.156.533.533 0 00-.157.738l2.514 3.876c-4.531 2.22-7.587 6.406-7.587 11.207 0 .295.019.585.044.873H41.97a9.97 9.97 0 00.041-.873c0-4.801-3.057-8.987-7.586-11.207zm-14.366 6.94a1.438 1.438 0 110-2.875 1.438 1.438 0 110 2.876zm13.88 0a1.438 1.438 0 110-2.875c.797 0 1.438.639 1.438 1.437 0 .797-.64 1.439-1.439 1.439zm12.868 5.966h-.134a3.232 3.232 0 00-3.224 3.22v14.015a3.23 3.23 0 003.224 3.221h.136c1.776 0 3.22-1.45 3.22-3.221V20.827a3.23 3.23 0 00-3.222-3.219z"/></g><defs><clipPath id="clip0"><path fill="#fff" d="M0 0h54v54H0z"/></clipPath></defs></svg>