<svg width="51" height="51" viewBox="0 0 51 51" fill="none" xmlns="http://www.w3.org/2000/svg"><path d="M35.314 0h.363c.291 3.597-1.082 6.284-2.75 8.23-1.637 1.933-3.879 3.807-7.505 3.523-.242-3.545 1.133-6.033 2.8-7.975C29.767 1.968 32.6.358 35.314 0zm10.979 37.435v.1c-1.019 3.087-2.472 5.732-4.246 8.186-1.619 2.229-3.603 5.227-7.146 5.227-3.061 0-5.095-1.968-8.232-2.022-3.32-.054-5.145 1.646-8.179 2.074h-1.035c-2.228-.323-4.026-2.087-5.336-3.678-3.864-4.698-6.849-10.767-7.404-18.534v-2.282C4.95 20.948 7.65 16.43 11.24 14.238c1.894-1.164 4.499-2.156 7.399-1.713 1.243.193 2.513.618 3.626 1.04 1.055.405 2.374 1.123 3.623 1.085.847-.024 1.689-.465 2.542-.777 2.5-.902 4.95-1.937 8.179-1.45 3.88.586 6.635 2.31 8.337 4.97-3.283 2.09-5.878 5.239-5.435 10.616.394 4.884 3.234 7.742 6.781 9.426z" fill="#fff"/></svg>