<svg width="64" height="60" viewBox="0 0 64 60" fill="none" xmlns="http://www.w3.org/2000/svg"><path d="M60.8 28.934V5.467A5.34 5.34 0 0055.467.134H8.533A5.34 5.34 0 003.2 5.467v16a3.204 3.204 0 00-3.2 3.2v32c0 1.764 1.436 3.2 3.2 3.2h23.467c1.764 0 3.2-1.436 3.2-3.2h8.94a3.176 3.176 0 002.542-1.258c.61-.798.809-1.814.544-2.783l-2.097-7.692h6.07v11.733c0 1.764 1.436 3.2 3.2 3.2H60.8c1.764 0 3.2-1.436 3.2-3.2V32.134c0-1.765-1.436-3.2-3.2-3.2zM27.733 56.667c0 .588-.479 1.067-1.066 1.067H3.2a1.068 1.068 0 01-1.067-1.067v-2.133h25.6v2.133zm0-4.267h-25.6V28.934h25.6V52.4zm0-25.6h-25.6v-2.133c0-.588.48-1.067 1.067-1.067h23.467c.587 0 1.066.48 1.066 1.067V26.8zm12.103 26.387c.088.323.022.66-.182.928a1.059 1.059 0 01-.848.419h-8.94V52.4h9.755l.215.786zm-9.97-2.92v-5.333h7.72l1.454 5.333h-9.173zm16-7.467h-16v-6.4h16v6.4zm0-10.666v2.133h-16v-9.6c0-1.764-1.435-3.2-3.2-3.2H5.334v-16c0-1.764 1.436-3.2 3.2-3.2h46.934c1.764 0 3.2 1.436 3.2 3.2v23.467h-9.6a3.204 3.204 0 00-3.2 3.2zm16 24.533c0 .588-.478 1.067-1.066 1.067H49.067A1.068 1.068 0 0148 56.667v-2.133h13.867v2.133zm0-4.267H48v-16h13.867v16zm0-18.133H48v-2.133c0-.588.479-1.067 1.067-1.067H60.8c.588 0 1.067.48 1.067 1.067v2.133z" fill="#A0C1E0"/><path d="M9.913 39.911l-4.267 4.267 1.509 1.508 4.267-4.267-1.509-1.508zm12.799-5.333l-12.8 12.8 1.509 1.508 12.8-12.8-1.509-1.508zm-4.267-3.198l-6.4 6.4 1.508 1.509 6.4-6.4-1.508-1.508zm37.331 7.467l-5.333 5.333 1.509 1.508 5.332-5.332-1.508-1.509zm2.133 4.272l-5.333 5.332 1.509 1.509 5.332-5.333-1.508-1.508zM34.444 12.18l-6.4 6.4 1.51 1.508 6.399-6.4-1.509-1.508zm9.6-2.134l-6.4 6.4 1.509 1.508 6.4-6.4-1.509-1.508zM35.51 18.58l-4.266 4.267 1.509 1.508 4.266-4.267-1.508-1.508zm5.338-12.798L36.57 10.06l1.509 1.508 4.277-4.277-1.508-1.509zM9.6 4.4H7.467v2.134H9.6V4.4zm4.266 0h-2.134v2.134h2.134V4.4zm4.267 0H16v2.134h2.133V4.4z" fill="#A0C1E0"/></svg>