<svg width="64" height="64" viewBox="0 0 64 64" fill="none" xmlns="http://www.w3.org/2000/svg"><path d="M62.105 38.162a.935.935 0 00.934-.934V12.076c0-3.248-2.521-5.916-5.71-6.155C55.588 2.909 52.334.877 48.61.877c-3.714 0-6.963 2.024-8.708 5.024H30.66a7.651 7.651 0 00-6.052-2.972c-4.225 0-7.662 3.437-7.662 7.662v2.243H12.14a.934.934 0 00-.93.837L8.12 43.41H1.993V12.076A4.31 4.31 0 016.298 7.77h9.585a.935.935 0 000-1.869H6.298a6.182 6.182 0 00-6.175 6.175v32.89a6.238 6.238 0 006.23 6.231h2.812a.934.934 0 100-1.868H6.354c-2.3 0-4.19-1.79-4.35-4.051h59.154a4.367 4.367 0 01-4.35 4.05H12.279a.934.934 0 000 1.87h7.491l-1.24 5.197h-2.585a4.875 4.875 0 00-4.869 4.87v1.678c0 .516.418.934.934.934h39.141a.934.934 0 00.934-.934v-1.679a4.875 4.875 0 00-4.869-4.87h-2.584l-1.24-5.197h13.416a6.239 6.239 0 006.231-6.231v-4.624a.935.935 0 00-1.868 0v3.067H47.149l-2.12-19.855a.934.934 0 00-.928-.835h-5.155l-.94-9.048a.934.934 0 00-.93-.837H32.27V10.59c0-.996-.194-1.947-.54-2.821h7.327c-.332 1-.516 2.066-.516 3.176 0 5.552 4.517 10.068 10.07 10.068 5.55 0 10.068-4.516 10.068-10.068 0-1.027-.155-2.017-.442-2.95a4.312 4.312 0 012.934 4.08v25.151c0 .516.418.935.934.935zM50.217 61.264v.744H12.945v-.744c0-1.654 1.346-3 3-3h31.271c1.655 0 3 1.346 3 3zm-7.506-4.87H20.45l1.24-5.197h19.78l1.24 5.198zm2.559-12.986H25.599l2.009-18.82H43.26l2.009 18.82zm-9.037-28.706l.834 8.017h-10.3a.935.935 0 00-.929.835L23.72 43.408H10l2.983-28.706h3.964v2.055a.934.934 0 101.869 0v-2.055H30.4v2.055a.934.934 0 101.869 0v-2.055h3.963zm-5.832-4.111v2.243H18.815V10.59a5.8 5.8 0 015.793-5.793c1.267 0 2.44.41 3.395 1.103h-5.766a.934.934 0 000 1.87h7.428a5.75 5.75 0 01.736 2.82zm18.21 8.555c-4.522 0-8.2-3.679-8.2-8.2 0-4.522 3.678-8.2 8.2-8.2 4.52 0 8.2 3.678 8.2 8.2 0 4.521-3.68 8.2-8.2 8.2z" fill="#A0C1E0"/><path d="M35.435 34.527a3.087 3.087 0 01-3.084-3.084v-4.017a.935.935 0 00-1.869 0v4.017a4.958 4.958 0 004.953 4.952 4.958 4.958 0 004.952-4.952v-4.017a.934.934 0 00-1.869 0v4.017c0 1.7-1.383 3.084-3.083 3.084zM52.422 5.739a.935.935 0 00-1.25.431l-3.574 7.356-1.62-2.915a.934.934 0 10-1.634.907l2.492 4.485c.165.297.478.48.817.48h.026a.933.933 0 00.814-.525l4.36-8.97a.934.934 0 00-.431-1.25zm6.263 19.841h-8.97a.934.934 0 000 1.869h8.97a.934.934 0 100-1.869zm.001 4.36h-7.101a.934.934 0 100 1.87h7.1a.934.934 0 100-1.87z" fill="#A0C1E0"/></svg>