<svg width="70" height="62" viewBox="0 0 70 62" fill="none" xmlns="http://www.w3.org/2000/svg"><path d="M4.911 5.453a1.044 1.044 0 100-2.088 1.044 1.044 0 000 2.088zm3.551 0a1.044 1.044 0 100-2.088 1.044 1.044 0 000 2.088zm3.548 0a1.044 1.044 0 100-2.088 1.044 1.044 0 000 2.088z" fill="#A0C1E0"/><path d="M67.33 23.799H55.307V2.808a2.672 2.672 0 00-2.67-2.67H3.08A3.083 3.083 0 000 3.219v4.276C0 8.06.46 8.52 1.027 8.52h52.226V23.8h-19.87a12.57 12.57 0 00-1.28-6.785c-.009-.024-.02-.048-.031-.072a12.631 12.631 0 00-11.286-6.933c-6.974 0-12.649 5.675-12.649 12.65 0 4.661 2.608 8.972 6.694 11.159v2.33H3.08c-.566 0-1.027-.46-1.027-1.027V12.946a1.027 1.027 0 00-2.053 0v22.175a3.083 3.083 0 003.08 3.08h11.75v20.58a3.083 3.083 0 003.08 3.08h49.42A2.672 2.672 0 0070 59.193V26.468a2.672 2.672 0 00-2.67-2.67zM2.054 3.219c0-.567.46-1.027 1.027-1.027h49.557c.34 0 .616.276.616.616v3.66h-51.2v-3.25zm22.764 20.58a4.198 4.198 0 00.056-2.059l5.783-2.93a10.534 10.534 0 01.664 4.989h-6.503zm-5.834 0a2.105 2.105 0 01-.332-1.14c0-1.175.954-2.13 2.127-2.135.77.008 1.494.418 1.873 1.096l.021.039a2.127 2.127 0 01-.08 2.14h-3.61zm2.863-11.683c.538.054 1.073.15 1.597.284 2.628.68 4.86 2.349 6.283 4.58l-5.78 2.928a4.221 4.221 0 00-2.133-1.311v-6.484l.033.003zM10.19 22.659c0-5.497 4.206-10.028 9.569-10.546v6.485a4.196 4.196 0 00-3.162 4.06c0 .46.077.912.222 1.341a3.085 3.085 0 00-1.99 2.88v4.541c-2.86-1.955-4.64-5.239-4.64-8.762zm57.14 37.15H17.91a1.029 1.029 0 01-1.027-1.027V32.18h31.44a1.027 1.027 0 000-2.054h-31.44V26.88c0-.566.46-1.027 1.027-1.027h49.42c.34 0 .616.276.616.616v3.66H53.159a1.027 1.027 0 000 2.053h14.788v27.011c0 .34-.276.616-.616.616z" fill="#A0C1E0"/><path d="M19.743 29.113a1.044 1.044 0 100-2.087 1.044 1.044 0 000 2.087zm3.551 0a1.044 1.044 0 100-2.087 1.044 1.044 0 000 2.087zm3.549 0a1.044 1.044 0 100-2.087 1.044 1.044 0 000 2.087zm-.751 15.78h7.067c.944 0 1.711.768 1.711 1.711v1.985h6.383V36.928c0-.944.767-1.711 1.711-1.711h7.067c.944 0 1.711.767 1.711 1.71v5.708h6.725c.943 0 1.71.767 1.71 1.711v10.607a1.85 1.85 0 01-1.847 1.848h-32.1a1.85 1.85 0 01-1.849-1.848v-8.349c0-.943.768-1.71 1.711-1.71zm24.623 6.974c.567 0 1.027.46 1.027 1.027v1.854h6.383v-10.06h-6.383v3.278a1.027 1.027 0 11-2.053 0V37.27h-6.383v17.478h6.383v-1.854c0-.567.46-1.026 1.026-1.026zm-9.462-1.225H34.87v4.106h6.383v-4.106zm-14.818 4.106h6.382v-7.802h-6.382v7.802z" fill="#A0C1E0"/></svg>