<svg width="54" height="65" viewBox="0 0 54 65" fill="none" xmlns="http://www.w3.org/2000/svg"><path d="M51.213 19.44c.4-.65.615-1.397.627-2.16a4.32 4.32 0 00-8.64 0c.003.761.212 1.508.605 2.16h-3.24c.29-1.056.45-2.144.475-3.24a12.96 12.96 0 10-25.92 0 13.31 13.31 0 00.421 3.24H3.24A3.24 3.24 0 000 22.68v28.08A3.24 3.24 0 003.24 54h13.1l-2.883 4.32H10.8a3.24 3.24 0 00-3.24 3.24v2.16a1.08 1.08 0 001.08 1.08h36.72a1.08 1.08 0 001.08-1.08v-2.16a3.24 3.24 0 00-3.24-3.24h-2.657L37.66 54h13.1A3.24 3.24 0 0054 50.76V22.68a3.24 3.24 0 00-2.787-3.24zm-5.853-2.16a2.16 2.16 0 114.319 0 2.16 2.16 0 01-4.32 0zM28.08 5.4a10.8 10.8 0 110 21.6 10.8 10.8 0 010-21.6zm-2.614 31.32a2.16 2.16 0 01-2.495 1.75l-7.397-1.307a1.097 1.097 0 00-.378 2.16l7.397 1.307a4.32 4.32 0 004.558-2.236l2.517.216a3.24 3.24 0 002.473-.81l6.393-5.875a2.161 2.161 0 013.132.227 2.29 2.29 0 01-.345 3.088l-9.504 8.716a5.4 5.4 0 01-3.65 1.404H8.91V32.4h4.266l10.584 1.858a2.16 2.16 0 011.706 2.462zM6.75 47.52H2.16V30.24h4.59v17.28zm37.53 14.04v1.08H9.72v-1.08a1.08 1.08 0 011.08-1.08h32.4a1.08 1.08 0 011.08 1.08zm-6.34-3.24H16.06L18.943 54h16.114l2.883 4.32zm13.9-7.56a1.08 1.08 0 01-1.08 1.08H3.24a1.08 1.08 0 01-1.08-1.08v-1.08h5.67a1.08 1.08 0 001.08-1.08v-1.08h19.256a7.56 7.56 0 005.109-1.987l9.504-8.716a4.396 4.396 0 00.55-6.048 4.225 4.225 0 00-3.034-1.609 4.319 4.319 0 00-3.24 1.08l-6.394 5.865a1.078 1.078 0 01-.832.28l-2.16-.194a4.32 4.32 0 00-3.564-4.147L13.457 30.24a.539.539 0 00-.184 0h-4.32v-1.08a1.08 1.08 0 00-1.08-1.08H2.16v-5.4a1.08 1.08 0 011.08-1.08h13.079a12.96 12.96 0 0023.522 0H50.76a1.08 1.08 0 011.08 1.08v28.08z" fill="#A0C1E0"/><path d="M8.64 15.12a4.32 4.32 0 100-8.641 4.32 4.32 0 000 8.64zm0-6.48a2.16 2.16 0 110 4.32 2.16 2.16 0 010-4.32zm38.881 2.16a1.08 1.08 0 001.08-1.08V1.08a1.08 1.08 0 00-2.16 0v8.64a1.08 1.08 0 001.08 1.08zM41.04 7.56a1.08 1.08 0 001.08-1.08v-5.4a1.08 1.08 0 00-2.16 0v5.4a1.08 1.08 0 001.08 1.08zM16.201 6.48a1.08 1.08 0 001.08-1.08V1.08a1.08 1.08 0 00-2.16 0V5.4a1.08 1.08 0 001.08 1.08zM8.639 4.32a1.08 1.08 0 001.08-1.08V1.08a1.08 1.08 0 00-2.16 0v2.16a1.08 1.08 0 001.08 1.08zm19.439 16.2a1.62 1.62 0 01-1.62-1.62 1.08 1.08 0 10-2.16 0 3.779 3.779 0 002.7 3.607v1.252a1.08 1.08 0 102.16 0v-1.252a3.769 3.769 0 00-1.08-7.388 1.62 1.62 0 111.62-1.62 1.08 1.08 0 102.16 0 3.779 3.779 0 00-2.7-3.607V8.64a1.08 1.08 0 10-2.16 0v1.252a3.769 3.769 0 001.08 7.387 1.62 1.62 0 010 3.24z" fill="#A0C1E0"/></svg>