<svg width="70" height="71" viewBox="0 0 70 71" fill="none" xmlns="http://www.w3.org/2000/svg"><g clip-path="url(#clip0)" fill="#A0C1E0"><path d="M4.911 10.222a1.044 1.044 0 100-2.088 1.044 1.044 0 000 2.088zm3.551 0a1.044 1.044 0 100-2.088 1.044 1.044 0 000 2.088zm3.551 0a1.044 1.044 0 100-2.088 1.044 1.044 0 000 2.088z"/><path d="M67.33 28.567H55.307V7.577a2.672 2.672 0 00-2.67-2.67H3.08A3.083 3.083 0 000 7.987v4.275c0 .567.46 1.027 1.027 1.027h52.226v15.278h-19.87a12.57 12.57 0 00-1.28-6.784 1.14 1.14 0 00-.031-.073 12.63 12.63 0 00-11.286-6.932c-6.974 0-12.649 5.674-12.649 12.65 0 4.66 2.608 8.972 6.694 11.159v2.33H3.08a1.029 1.029 0 01-1.027-1.027V17.715a1.027 1.027 0 00-2.053 0V39.89a3.083 3.083 0 003.08 3.08h11.75v20.58a3.083 3.083 0 003.08 3.08h49.42A2.672 2.672 0 0070 63.96V31.238a2.672 2.672 0 00-2.67-2.67zM2.054 7.987c0-.566.46-1.027 1.027-1.027h49.557c.34 0 .616.277.616.616v3.66h-51.2V7.987zm22.764 20.58a4.196 4.196 0 00.056-2.058l5.783-2.93a10.534 10.534 0 01.664 4.988h-6.503zm-5.834 0a2.105 2.105 0 01-.332-1.14c0-1.174.954-2.13 2.127-2.135a2.17 2.17 0 011.873 1.097l.021.039a2.127 2.127 0 01-.08 2.14h-3.61zm2.863-11.683c.538.054 1.073.15 1.597.285 2.628.68 4.86 2.348 6.283 4.58l-5.78 2.927a4.222 4.222 0 00-2.133-1.31v-6.484l.033.002zM10.19 27.427c0-5.496 4.206-10.027 9.569-10.545v6.484a4.196 4.196 0 00-3.162 4.061c0 .459.077.911.222 1.34a3.085 3.085 0 00-1.99 2.88v4.542c-2.86-1.954-4.64-5.238-4.64-8.762zm57.14 37.15H17.91c-.566 0-1.027-.46-1.027-1.027v-26.6h31.44a1.027 1.027 0 000-2.054h-31.44v-3.249c0-.566.46-1.026 1.027-1.026h49.42c.34 0 .616.276.616.616v3.659H53.159a1.027 1.027 0 000 2.053h14.788v27.012c0 .34-.276.616-.616.616z"/><path d="M19.743 33.882a1.044 1.044 0 100-2.088 1.044 1.044 0 000 2.088zm3.551 0a1.044 1.044 0 100-2.088 1.044 1.044 0 000 2.088zm3.546 0a1.044 1.044 0 100-2.088 1.044 1.044 0 000 2.088zm-.75 15.781h7.067c.944 0 1.711.767 1.711 1.71v1.985h6.383v-11.66c0-.944.768-1.712 1.711-1.712h7.067c.944 0 1.711.768 1.711 1.711v5.707h6.725c.943 0 1.71.768 1.71 1.711v10.608a1.85 1.85 0 01-1.847 1.848h-32.1a1.85 1.85 0 01-1.849-1.848v-8.35c0-.943.768-1.71 1.711-1.71zm24.624 6.974c.566 0 1.026.46 1.026 1.027v1.853h6.383v-10.06H51.74v3.279a1.027 1.027 0 01-2.053 0V42.039h-6.383v17.478h6.383v-1.854c0-.566.46-1.026 1.027-1.026zm-9.463-1.226h-6.383v4.106h6.383v-4.106zm-14.818 4.106h6.382v-7.801h-6.382v7.801z"/></g><defs><clipPath id="clip0"><path fill="#fff" d="M0 .769h70v70H0z"/></clipPath></defs></svg>