<svg width="65" height="65" viewBox="0 0 65 65" fill="none" xmlns="http://www.w3.org/2000/svg"><path d="M21.559 19.181a22.432 22.432 0 011.747-.069s0 0 0 0v.1c3.052-.003 6.07.628 8.863 1.853L21.56 19.18zm0 0a20.33 20.33 0 016.294-11.794l.118-.107a20.33 20.33 0 0113.723-5.312h0c11.239 0 20.382 9.143 20.382 20.381v0a20.177 20.177 0 01-4.866 13.196h0a.933.933 0 00-.149.97l2.878 6.765-10.686-1.869a.931.931 0 00-.485.044 20.63 20.63 0 01-3.24.907 22.112 22.112 0 00-2.073-10.424l.004-.001h.001l.018-.008h.001c3.722-1.508 6.622-3.73 8.38-6.432l-.083-.055.084.055c1.565-2.405 2.166-5.097 1.682-7.586v-.001c-.661-3.278-3.051-5.41-6.097-5.41-1.467 0-3.03.522-4.555 1.507-1.543-1.03-3.087-1.557-4.596-1.557-3.065 0-5.446 2.157-6.074 5.469h0c-.187 1-.21 2.023-.068 3.03L21.56 19.18zM1.06 41.356a22.024 22.024 0 004.941 13.958l-3.327 7.822a.932.932 0 001.019 1.283l12.13-2.122a22.16 22.16 0 007.482 1.305c11.273 0 20.614-8.429 22.053-19.315 1.3-.22 2.577-.554 3.818-.998l12.13 2.122a.932.932 0 001.02-1.282l-.093.039.092-.04L59 36.308a22.025 22.025 0 004.94-13.958C63.94 10.082 53.962.103 41.695.103a22.248 22.248 0 00-22.052 19.311C9.113 21.166 1.06 30.337 1.06 41.356zm0 0s0 0 0 0h.1-.1s0 0 0 0zm33.23-19.338a7.853 7.853 0 01-.24-3.751c.465-2.452 2.095-3.954 4.243-3.954 1.248 0 2.642.54 4.031 1.576l.06-.08-.06.08a.932.932 0 001.105.007c1.388-1.007 2.777-1.533 4.016-1.533 2.14 0 3.78 1.488 4.269 3.909.514 2.65-.411 5.1-2.121 7.155-1.71 2.058-4.203 3.714-6.804 4.77h-.001l-.2.076a22.41 22.41 0 00-8.297-8.255zM16.234 60.463h0a.934.934 0 00-.485-.045h0L5.06 62.288l2.88-6.768a.932.932 0 00-.148-.97h0a20.177 20.177 0 01-4.867-13.194v0c0-11.239 9.143-20.382 20.382-20.382s20.382 9.143 20.382 20.382c0 11.238-9.143 20.382-20.382 20.382a20.305 20.305 0 01-7.073-1.276z" fill="#A0C1E0" stroke="#A0C1E0" stroke-width=".2"/><mask id="a" maskUnits="userSpaceOnUse" x="10.121" y="29.068" width="26" height="25" fill="#000"><path fill="#fff" d="M10.121 29.068h26v25h-26z"/><path d="M11.954 53.067H17.5a.832.832 0 00.832-.832v-.968h.448c1.454 0 2.88.405 4.114 1.172 1.544.957 3.242 1.037 4.992 1.037H32.4a2.373 2.373 0 002.077-3.523 2.372 2.372 0 00.421-3.509 2.42 2.42 0 00.025-3.138 2.278 2.278 0 00-1.717-3.78h-5.598a.363.363 0 01-.362-.326 5.108 5.108 0 01.294-2.34c.34-.9.513-1.854.512-2.817v-.53a3.448 3.448 0 00-3.444-3.445.832.832 0 00-.822.706l-.294 1.918a12.336 12.336 0 01-2.17 5.312 3.017 3.017 0 01-2.435 1.241h-.556v-1.202a.832.832 0 00-.832-.832h-5.547a.832.832 0 00-.832.832v14.192a.83.83 0 00.832.832zm6.934-12.158a4.688 4.688 0 003.783-1.93 14.008 14.008 0 002.467-6.035l.164-1.071a1.783 1.783 0 011.087 1.64v.53c0 .763-.137 1.52-.405 2.233a6.784 6.784 0 00-.392 3.105 2.026 2.026 0 002.017 1.808h5.598a.618.618 0 110 1.236h-1.334a.824.824 0 00-.103.007h-.845a.832.832 0 100 1.664h2.134a.765.765 0 110 1.531h-2.134a.832.832 0 000 1.664h2.183a.72.72 0 01.672.995.717.717 0 01-.672.44H29.96a.832.832 0 000 1.665h2.44a.712.712 0 110 1.421h-4.516c-1.557 0-2.94-.059-4.114-.786a9.458 9.458 0 00-4.99-1.423h-.449v-8.694h.556zm-6.102-2.034h3.882v12.528h-3.882V38.875z"/></mask><path d="M11.954 53.067H17.5a.832.832 0 00.832-.832v-.968h.448c1.454 0 2.88.405 4.114 1.172 1.544.957 3.242 1.037 4.992 1.037H32.4a2.373 2.373 0 002.077-3.523 2.372 2.372 0 00.421-3.509 2.42 2.42 0 00.025-3.138 2.278 2.278 0 00-1.717-3.78h-5.598a.363.363 0 01-.362-.326 5.108 5.108 0 01.294-2.34c.34-.9.513-1.854.512-2.817v-.53a3.448 3.448 0 00-3.444-3.445.832.832 0 00-.822.706l-.294 1.918a12.336 12.336 0 01-2.17 5.312 3.017 3.017 0 01-2.435 1.241h-.556v-1.202a.832.832 0 00-.832-.832h-5.547a.832.832 0 00-.832.832v14.192a.83.83 0 00.832.832zm6.934-12.158a4.688 4.688 0 003.783-1.93 14.008 14.008 0 002.467-6.035l.164-1.071a1.783 1.783 0 011.087 1.64v.53c0 .763-.137 1.52-.405 2.233a6.784 6.784 0 00-.392 3.105 2.026 2.026 0 002.017 1.808h5.598a.618.618 0 110 1.236h-1.334a.824.824 0 00-.103.007h-.845a.832.832 0 100 1.664h2.134a.765.765 0 110 1.531h-2.134a.832.832 0 000 1.664h2.183a.72.72 0 01.672.995.717.717 0 01-.672.44H29.96a.832.832 0 000 1.665h2.44a.712.712 0 110 1.421h-4.516c-1.557 0-2.94-.059-4.114-.786a9.458 9.458 0 00-4.99-1.423h-.449v-8.694h.556zm-6.102-2.034h3.882v12.528h-3.882V38.875z" fill="#A0C1E0"/><path d="M11.954 53.067H17.5a.832.832 0 00.832-.832v-.968h.448c1.454 0 2.88.405 4.114 1.172 1.544.957 3.242 1.037 4.992 1.037H32.4a2.373 2.373 0 002.077-3.523 2.372 2.372 0 00.421-3.509 2.42 2.42 0 00.025-3.138 2.278 2.278 0 00-1.717-3.78h-5.598a.363.363 0 01-.362-.326 5.108 5.108 0 01.294-2.34c.34-.9.513-1.854.512-2.817v-.53a3.448 3.448 0 00-3.444-3.445.832.832 0 00-.822.706l-.294 1.918a12.336 12.336 0 01-2.17 5.312 3.017 3.017 0 01-2.435 1.241h-.556v-1.202a.832.832 0 00-.832-.832h-5.547a.832.832 0 00-.832.832v14.192a.83.83 0 00.832.832zm6.934-12.158a4.688 4.688 0 003.783-1.93 14.008 14.008 0 002.467-6.035l.164-1.071a1.783 1.783 0 011.087 1.64v.53c0 .763-.137 1.52-.405 2.233a6.784 6.784 0 00-.392 3.105 2.026 2.026 0 002.017 1.808h5.598a.618.618 0 110 1.236h-1.334a.824.824 0 00-.103.007h-.845a.832.832 0 100 1.664h2.134a.765.765 0 110 1.531h-2.134a.832.832 0 000 1.664h2.183a.72.72 0 01.672.995.717.717 0 01-.672.44H29.96a.832.832 0 000 1.665h2.44a.712.712 0 110 1.421h-4.516c-1.557 0-2.94-.059-4.114-.786a9.458 9.458 0 00-4.99-1.423h-.449v-8.694h.556zm-6.102-2.034h3.882v12.528h-3.882V38.875z" stroke="#A0C1E0" stroke-width=".4" mask="url(#a)"/></svg>